%TF.GenerationSoftware,KiCad,Pcbnew,(5.1.9)-1*%
%TF.CreationDate,2021-03-29T16:21:42+05:30*%
%TF.ProjectId,LightStage,4c696768-7453-4746-9167-652e6b696361,rev?*%
%TF.SameCoordinates,Original*%
%TF.FileFunction,Paste,Bot*%
%TF.FilePolarity,Positive*%
%FSLAX46Y46*%
G04 Gerber Fmt 4.6, Leading zero omitted, Abs format (unit mm)*
G04 Created by KiCad (PCBNEW (5.1.9)-1) date 2021-03-29 16:21:42*
%MOMM*%
%LPD*%
G01*
G04 APERTURE LIST*
%ADD10O,1.450000X0.599999*%
G04 APERTURE END LIST*
%TO.C,D1*%
G36*
G01*
X61532000Y-70198000D02*
X61532000Y-70518000D01*
G75*
G02*
X61372000Y-70678000I-160000J0D01*
G01*
X60927000Y-70678000D01*
G75*
G02*
X60767000Y-70518000I0J160000D01*
G01*
X60767000Y-70198000D01*
G75*
G02*
X60927000Y-70038000I160000J0D01*
G01*
X61372000Y-70038000D01*
G75*
G02*
X61532000Y-70198000I0J-160000D01*
G01*
G37*
G36*
G01*
X62677000Y-70198000D02*
X62677000Y-70518000D01*
G75*
G02*
X62517000Y-70678000I-160000J0D01*
G01*
X62072000Y-70678000D01*
G75*
G02*
X61912000Y-70518000I0J160000D01*
G01*
X61912000Y-70198000D01*
G75*
G02*
X62072000Y-70038000I160000J0D01*
G01*
X62517000Y-70038000D01*
G75*
G02*
X62677000Y-70198000I0J-160000D01*
G01*
G37*
%TD*%
%TO.C,C3*%
G36*
G01*
X89042001Y-66918000D02*
X87741999Y-66918000D01*
G75*
G02*
X87492000Y-66668001I0J249999D01*
G01*
X87492000Y-65842999D01*
G75*
G02*
X87741999Y-65593000I249999J0D01*
G01*
X89042001Y-65593000D01*
G75*
G02*
X89292000Y-65842999I0J-249999D01*
G01*
X89292000Y-66668001D01*
G75*
G02*
X89042001Y-66918000I-249999J0D01*
G01*
G37*
G36*
G01*
X89042001Y-70043000D02*
X87741999Y-70043000D01*
G75*
G02*
X87492000Y-69793001I0J249999D01*
G01*
X87492000Y-68967999D01*
G75*
G02*
X87741999Y-68718000I249999J0D01*
G01*
X89042001Y-68718000D01*
G75*
G02*
X89292000Y-68967999I0J-249999D01*
G01*
X89292000Y-69793001D01*
G75*
G02*
X89042001Y-70043000I-249999J0D01*
G01*
G37*
%TD*%
%TO.C,C2*%
G36*
G01*
X92852001Y-66918000D02*
X91551999Y-66918000D01*
G75*
G02*
X91302000Y-66668001I0J249999D01*
G01*
X91302000Y-65842999D01*
G75*
G02*
X91551999Y-65593000I249999J0D01*
G01*
X92852001Y-65593000D01*
G75*
G02*
X93102000Y-65842999I0J-249999D01*
G01*
X93102000Y-66668001D01*
G75*
G02*
X92852001Y-66918000I-249999J0D01*
G01*
G37*
G36*
G01*
X92852001Y-70043000D02*
X91551999Y-70043000D01*
G75*
G02*
X91302000Y-69793001I0J249999D01*
G01*
X91302000Y-68967999D01*
G75*
G02*
X91551999Y-68718000I249999J0D01*
G01*
X92852001Y-68718000D01*
G75*
G02*
X93102000Y-68967999I0J-249999D01*
G01*
X93102000Y-69793001D01*
G75*
G02*
X92852001Y-70043000I-249999J0D01*
G01*
G37*
%TD*%
%TO.C,C1*%
G36*
G01*
X75405000Y-67368000D02*
X74455000Y-67368000D01*
G75*
G02*
X74205000Y-67118000I0J250000D01*
G01*
X74205000Y-66443000D01*
G75*
G02*
X74455000Y-66193000I250000J0D01*
G01*
X75405000Y-66193000D01*
G75*
G02*
X75655000Y-66443000I0J-250000D01*
G01*
X75655000Y-67118000D01*
G75*
G02*
X75405000Y-67368000I-250000J0D01*
G01*
G37*
G36*
G01*
X75405000Y-69443000D02*
X74455000Y-69443000D01*
G75*
G02*
X74205000Y-69193000I0J250000D01*
G01*
X74205000Y-68518000D01*
G75*
G02*
X74455000Y-68268000I250000J0D01*
G01*
X75405000Y-68268000D01*
G75*
G02*
X75655000Y-68518000I0J-250000D01*
G01*
X75655000Y-69193000D01*
G75*
G02*
X75405000Y-69443000I-250000J0D01*
G01*
G37*
%TD*%
%TO.C,R3*%
G36*
G01*
X49389000Y-120175000D02*
X49389000Y-119855000D01*
G75*
G02*
X49549000Y-119695000I160000J0D01*
G01*
X49944000Y-119695000D01*
G75*
G02*
X50104000Y-119855000I0J-160000D01*
G01*
X50104000Y-120175000D01*
G75*
G02*
X49944000Y-120335000I-160000J0D01*
G01*
X49549000Y-120335000D01*
G75*
G02*
X49389000Y-120175000I0J160000D01*
G01*
G37*
G36*
G01*
X48194000Y-120175000D02*
X48194000Y-119855000D01*
G75*
G02*
X48354000Y-119695000I160000J0D01*
G01*
X48749000Y-119695000D01*
G75*
G02*
X48909000Y-119855000I0J-160000D01*
G01*
X48909000Y-120175000D01*
G75*
G02*
X48749000Y-120335000I-160000J0D01*
G01*
X48354000Y-120335000D01*
G75*
G02*
X48194000Y-120175000I0J160000D01*
G01*
G37*
%TD*%
%TO.C,R2*%
G36*
G01*
X49389000Y-122715000D02*
X49389000Y-122395000D01*
G75*
G02*
X49549000Y-122235000I160000J0D01*
G01*
X49944000Y-122235000D01*
G75*
G02*
X50104000Y-122395000I0J-160000D01*
G01*
X50104000Y-122715000D01*
G75*
G02*
X49944000Y-122875000I-160000J0D01*
G01*
X49549000Y-122875000D01*
G75*
G02*
X49389000Y-122715000I0J160000D01*
G01*
G37*
G36*
G01*
X48194000Y-122715000D02*
X48194000Y-122395000D01*
G75*
G02*
X48354000Y-122235000I160000J0D01*
G01*
X48749000Y-122235000D01*
G75*
G02*
X48909000Y-122395000I0J-160000D01*
G01*
X48909000Y-122715000D01*
G75*
G02*
X48749000Y-122875000I-160000J0D01*
G01*
X48354000Y-122875000D01*
G75*
G02*
X48194000Y-122715000I0J160000D01*
G01*
G37*
%TD*%
%TO.C,R1*%
G36*
G01*
X65518000Y-70772000D02*
X65518000Y-70452000D01*
G75*
G02*
X65678000Y-70292000I160000J0D01*
G01*
X66073000Y-70292000D01*
G75*
G02*
X66233000Y-70452000I0J-160000D01*
G01*
X66233000Y-70772000D01*
G75*
G02*
X66073000Y-70932000I-160000J0D01*
G01*
X65678000Y-70932000D01*
G75*
G02*
X65518000Y-70772000I0J160000D01*
G01*
G37*
G36*
G01*
X64323000Y-70772000D02*
X64323000Y-70452000D01*
G75*
G02*
X64483000Y-70292000I160000J0D01*
G01*
X64878000Y-70292000D01*
G75*
G02*
X65038000Y-70452000I0J-160000D01*
G01*
X65038000Y-70772000D01*
G75*
G02*
X64878000Y-70932000I-160000J0D01*
G01*
X64483000Y-70932000D01*
G75*
G02*
X64323000Y-70772000I0J160000D01*
G01*
G37*
%TD*%
%TO.C,C5*%
G36*
G01*
X59337000Y-67618000D02*
X59027000Y-67618000D01*
G75*
G02*
X58872000Y-67463000I0J155000D01*
G01*
X58872000Y-67038000D01*
G75*
G02*
X59027000Y-66883000I155000J0D01*
G01*
X59337000Y-66883000D01*
G75*
G02*
X59492000Y-67038000I0J-155000D01*
G01*
X59492000Y-67463000D01*
G75*
G02*
X59337000Y-67618000I-155000J0D01*
G01*
G37*
G36*
G01*
X59337000Y-68753000D02*
X59027000Y-68753000D01*
G75*
G02*
X58872000Y-68598000I0J155000D01*
G01*
X58872000Y-68173000D01*
G75*
G02*
X59027000Y-68018000I155000J0D01*
G01*
X59337000Y-68018000D01*
G75*
G02*
X59492000Y-68173000I0J-155000D01*
G01*
X59492000Y-68598000D01*
G75*
G02*
X59337000Y-68753000I-155000J0D01*
G01*
G37*
%TD*%
D10*
%TO.C,U1*%
X70796998Y-68453000D03*
X70796998Y-67183000D03*
X70796998Y-65913000D03*
X70796998Y-64643000D03*
X65346999Y-64643000D03*
X65346999Y-65913000D03*
X65346999Y-67183000D03*
X65346999Y-68453000D03*
%TD*%
M02*
