M48
; DRILL file {KiCad (5.1.9)-1} date 04/06/21 09:51:30
; FORMAT={-:-/ absolute / inch / decimal}
; #@! TF.CreationDate,2021-04-06T09:51:30+05:30
; #@! TF.GenerationSoftware,Kicad,Pcbnew,(5.1.9)-1
; #@! TF.FileFunction,Plated,1,2,PTH
FMAT,2
INCH
T1C0.0157
T2C0.0300
T3C0.0331
T4C0.1181
%
G90
G05
T1
X1.59Y-4.16
X1.6Y-3.705
X1.605Y-2.775
X1.605Y-3.25
X1.74Y-4.86
X1.755Y-2.295
X1.835Y-2.0
X1.925Y-3.72
X1.93Y-2.81
X1.93Y-3.42
X1.935Y-3.26
X1.97Y-3.625
X2.025Y-3.77
X2.03Y-3.02
X2.125Y-3.145
X2.15Y-4.165
X2.18Y-4.6
X2.22Y-2.48
X2.28Y-3.77
X2.295Y-3.54
X2.34Y-4.2
X2.345Y-2.175
X2.38Y-1.965
X2.385Y-4.515
X2.42Y-3.375
X2.43Y-3.02
X2.4308Y-2.1208
X2.445Y-5.345
X2.48Y-2.98
X2.5Y-3.1
X2.53Y-2.22
X2.53Y-3.22
X2.53Y-3.47
X2.53Y-4.37
X2.59Y-2.36
X2.6Y-2.82
X2.615Y-5.185
X2.655Y-5.08
X2.675Y-5.425
X2.68Y-2.97
X2.68Y-4.375
X2.73Y-3.22
X2.88Y-5.42
X2.895Y-2.175
X2.93Y-3.97
X2.9608Y-2.9642
X2.965Y-3.91
X2.97Y-3.47
X2.98Y-2.095
X2.98Y-5.445
X2.985Y-4.725
X3.025Y-3.655
X3.095Y-4.67
X3.095Y-5.015
X3.12Y-3.395
X3.13Y-2.97
X3.15Y-4.235
X3.1815Y-3.625
X3.1815Y-3.74
X3.1815Y-3.81
X3.1815Y-3.895
X3.205Y-4.935
X3.21Y-4.025
X3.215Y-2.87
X3.245Y-3.325
X3.265Y-3.865
X3.29Y-4.57
X3.33Y-2.47
X3.345Y-3.65
X3.345Y-4.975
X3.355Y-2.995
X3.385Y-3.88
X3.395Y-2.955
X3.395Y-3.0
X3.43Y-2.47
X3.435Y-4.57
X3.44Y-2.99
X3.44Y-4.32
X3.445Y-3.74
X3.445Y-4.115
X3.445Y-4.165
X3.445Y-4.26
X3.48Y-2.7315
X3.485Y-2.99
X3.5Y-1.96
X3.53Y-3.0
X3.54Y-5.395
X3.57Y-2.495
X3.58Y-2.995
X3.63Y-2.7315
X3.64Y-2.99
X3.685Y-3.0
X3.735Y-3.3
X3.93Y-3.52
X3.98Y-5.42
X4.025Y-5.535
X4.04Y-4.77
X4.075Y-3.27
X4.08Y-5.27
X4.13Y-3.77
X4.135Y-4.315
X4.14Y-4.755
X4.24Y-3.765
X4.31Y-4.775
T2
X4.12Y-2.035
X4.3375Y-2.035
T3
X2.78Y-3.42
X2.78Y-3.52
X2.78Y-3.62
X2.78Y-3.72
X2.78Y-3.82
X2.78Y-3.92
X2.78Y-4.02
X2.78Y-4.12
X2.78Y-4.22
T4
X4.625Y-2.035
T0
M30
