%TF.GenerationSoftware,KiCad,Pcbnew,(5.1.9)-1*%
%TF.CreationDate,2021-04-06T09:51:50+05:30*%
%TF.ProjectId,LightStage,4c696768-7453-4746-9167-652e6b696361,rev?*%
%TF.SameCoordinates,Original*%
%TF.FileFunction,Legend,Top*%
%TF.FilePolarity,Positive*%
%FSLAX46Y46*%
G04 Gerber Fmt 4.6, Leading zero omitted, Abs format (unit mm)*
G04 Created by KiCad (PCBNEW (5.1.9)-1) date 2021-04-06 09:51:50*
%MOMM*%
%LPD*%
G01*
G04 APERTURE LIST*
%ADD10C,0.100000*%
%ADD11C,0.150000*%
%ADD12C,0.120000*%
%ADD13C,0.010000*%
%ADD14C,0.152400*%
%ADD15C,0.254000*%
G04 APERTURE END LIST*
D10*
X34271428Y-145051428D02*
X34271428Y-144451428D01*
X34614285Y-145051428D01*
X34614285Y-144451428D01*
X35157142Y-145051428D02*
X35157142Y-144737142D01*
X35128571Y-144680000D01*
X35071428Y-144651428D01*
X34957142Y-144651428D01*
X34900000Y-144680000D01*
X35157142Y-145022857D02*
X35100000Y-145051428D01*
X34957142Y-145051428D01*
X34900000Y-145022857D01*
X34871428Y-144965714D01*
X34871428Y-144908571D01*
X34900000Y-144851428D01*
X34957142Y-144822857D01*
X35100000Y-144822857D01*
X35157142Y-144794285D01*
X35442857Y-144651428D02*
X35442857Y-145051428D01*
X35442857Y-144708571D02*
X35471428Y-144680000D01*
X35528571Y-144651428D01*
X35614285Y-144651428D01*
X35671428Y-144680000D01*
X35700000Y-144737142D01*
X35700000Y-145051428D01*
X36071428Y-145051428D02*
X36014285Y-145022857D01*
X35985714Y-144994285D01*
X35957142Y-144937142D01*
X35957142Y-144765714D01*
X35985714Y-144708571D01*
X36014285Y-144680000D01*
X36071428Y-144651428D01*
X36157142Y-144651428D01*
X36214285Y-144680000D01*
X36242857Y-144708571D01*
X36271428Y-144765714D01*
X36271428Y-144937142D01*
X36242857Y-144994285D01*
X36214285Y-145022857D01*
X36157142Y-145051428D01*
X36071428Y-145051428D01*
X36442857Y-144651428D02*
X36671428Y-144651428D01*
X36528571Y-144451428D02*
X36528571Y-144965714D01*
X36557142Y-145022857D01*
X36614285Y-145051428D01*
X36671428Y-145051428D01*
X37100000Y-145022857D02*
X37042857Y-145051428D01*
X36928571Y-145051428D01*
X36871428Y-145022857D01*
X36842857Y-144965714D01*
X36842857Y-144737142D01*
X36871428Y-144680000D01*
X36928571Y-144651428D01*
X37042857Y-144651428D01*
X37100000Y-144680000D01*
X37128571Y-144737142D01*
X37128571Y-144794285D01*
X36842857Y-144851428D01*
X37642857Y-145022857D02*
X37585714Y-145051428D01*
X37471428Y-145051428D01*
X37414285Y-145022857D01*
X37385714Y-144994285D01*
X37357142Y-144937142D01*
X37357142Y-144765714D01*
X37385714Y-144708571D01*
X37414285Y-144680000D01*
X37471428Y-144651428D01*
X37585714Y-144651428D01*
X37642857Y-144680000D01*
X37899999Y-145051428D02*
X37899999Y-144451428D01*
X38157142Y-145051428D02*
X38157142Y-144737142D01*
X38128571Y-144680000D01*
X38071428Y-144651428D01*
X37985714Y-144651428D01*
X37928571Y-144680000D01*
X37899999Y-144708571D01*
X38442857Y-144651428D02*
X38442857Y-145051428D01*
X38442857Y-144708571D02*
X38471428Y-144680000D01*
X38528571Y-144651428D01*
X38614285Y-144651428D01*
X38671428Y-144680000D01*
X38700000Y-144737142D01*
X38700000Y-145051428D01*
X39071428Y-145051428D02*
X39014285Y-145022857D01*
X38985714Y-144994285D01*
X38957142Y-144937142D01*
X38957142Y-144765714D01*
X38985714Y-144708571D01*
X39014285Y-144680000D01*
X39071428Y-144651428D01*
X39157142Y-144651428D01*
X39214285Y-144680000D01*
X39242857Y-144708571D01*
X39271428Y-144765714D01*
X39271428Y-144937142D01*
X39242857Y-144994285D01*
X39214285Y-145022857D01*
X39157142Y-145051428D01*
X39071428Y-145051428D01*
X39614285Y-145051428D02*
X39557142Y-145022857D01*
X39528571Y-144965714D01*
X39528571Y-144451428D01*
X39928571Y-145051428D02*
X39871428Y-145022857D01*
X39842857Y-144994285D01*
X39814285Y-144937142D01*
X39814285Y-144765714D01*
X39842857Y-144708571D01*
X39871428Y-144680000D01*
X39928571Y-144651428D01*
X40014285Y-144651428D01*
X40071428Y-144680000D01*
X40100000Y-144708571D01*
X40128571Y-144765714D01*
X40128571Y-144937142D01*
X40100000Y-144994285D01*
X40071428Y-145022857D01*
X40014285Y-145051428D01*
X39928571Y-145051428D01*
X40642857Y-144651428D02*
X40642857Y-145137142D01*
X40614285Y-145194285D01*
X40585714Y-145222857D01*
X40528571Y-145251428D01*
X40442857Y-145251428D01*
X40385714Y-145222857D01*
X40642857Y-145022857D02*
X40585714Y-145051428D01*
X40471428Y-145051428D01*
X40414285Y-145022857D01*
X40385714Y-144994285D01*
X40357142Y-144937142D01*
X40357142Y-144765714D01*
X40385714Y-144708571D01*
X40414285Y-144680000D01*
X40471428Y-144651428D01*
X40585714Y-144651428D01*
X40642857Y-144680000D01*
X40928571Y-145051428D02*
X40928571Y-144651428D01*
X40928571Y-144451428D02*
X40900000Y-144480000D01*
X40928571Y-144508571D01*
X40957142Y-144480000D01*
X40928571Y-144451428D01*
X40928571Y-144508571D01*
X41442857Y-145022857D02*
X41385714Y-145051428D01*
X41271428Y-145051428D01*
X41214285Y-145022857D01*
X41185714Y-144965714D01*
X41185714Y-144737142D01*
X41214285Y-144680000D01*
X41271428Y-144651428D01*
X41385714Y-144651428D01*
X41442857Y-144680000D01*
X41471428Y-144737142D01*
X41471428Y-144794285D01*
X41185714Y-144851428D01*
X41700000Y-145022857D02*
X41757142Y-145051428D01*
X41871428Y-145051428D01*
X41928571Y-145022857D01*
X41957142Y-144965714D01*
X41957142Y-144937142D01*
X41928571Y-144880000D01*
X41871428Y-144851428D01*
X41785714Y-144851428D01*
X41728571Y-144822857D01*
X41700000Y-144765714D01*
X41700000Y-144737142D01*
X41728571Y-144680000D01*
X41785714Y-144651428D01*
X41871428Y-144651428D01*
X41928571Y-144680000D01*
D11*
X34385714Y-147407380D02*
X34719047Y-148407380D01*
X35052380Y-147407380D01*
X35766666Y-148359761D02*
X35671428Y-148407380D01*
X35480952Y-148407380D01*
X35385714Y-148359761D01*
X35338095Y-148264523D01*
X35338095Y-147883571D01*
X35385714Y-147788333D01*
X35480952Y-147740714D01*
X35671428Y-147740714D01*
X35766666Y-147788333D01*
X35814285Y-147883571D01*
X35814285Y-147978809D01*
X35338095Y-148074047D01*
X36242857Y-148407380D02*
X36242857Y-147740714D01*
X36242857Y-147931190D02*
X36290476Y-147835952D01*
X36338095Y-147788333D01*
X36433333Y-147740714D01*
X36528571Y-147740714D01*
X36814285Y-148359761D02*
X36909523Y-148407380D01*
X37100000Y-148407380D01*
X37195238Y-148359761D01*
X37242857Y-148264523D01*
X37242857Y-148216904D01*
X37195238Y-148121666D01*
X37100000Y-148074047D01*
X36957142Y-148074047D01*
X36861904Y-148026428D01*
X36814285Y-147931190D01*
X36814285Y-147883571D01*
X36861904Y-147788333D01*
X36957142Y-147740714D01*
X37100000Y-147740714D01*
X37195238Y-147788333D01*
X37671428Y-148407380D02*
X37671428Y-147740714D01*
X37671428Y-147407380D02*
X37623809Y-147455000D01*
X37671428Y-147502619D01*
X37719047Y-147455000D01*
X37671428Y-147407380D01*
X37671428Y-147502619D01*
X38290476Y-148407380D02*
X38195238Y-148359761D01*
X38147619Y-148312142D01*
X38100000Y-148216904D01*
X38100000Y-147931190D01*
X38147619Y-147835952D01*
X38195238Y-147788333D01*
X38290476Y-147740714D01*
X38433333Y-147740714D01*
X38528571Y-147788333D01*
X38576190Y-147835952D01*
X38623809Y-147931190D01*
X38623809Y-148216904D01*
X38576190Y-148312142D01*
X38528571Y-148359761D01*
X38433333Y-148407380D01*
X38290476Y-148407380D01*
X39052380Y-147740714D02*
X39052380Y-148407380D01*
X39052380Y-147835952D02*
X39100000Y-147788333D01*
X39195238Y-147740714D01*
X39338095Y-147740714D01*
X39433333Y-147788333D01*
X39480952Y-147883571D01*
X39480952Y-148407380D01*
X39957142Y-148026428D02*
X40719047Y-148026428D01*
X41719047Y-148407380D02*
X41147619Y-148407380D01*
X41433333Y-148407380D02*
X41433333Y-147407380D01*
X41338095Y-147550238D01*
X41242857Y-147645476D01*
X41147619Y-147693095D01*
X116641666Y-55062380D02*
X116641666Y-54062380D01*
X116975000Y-54776666D01*
X117308333Y-54062380D01*
X117308333Y-55062380D01*
X117784523Y-55062380D02*
X117784523Y-54062380D01*
X118165476Y-54062380D01*
X118260714Y-54110000D01*
X118308333Y-54157619D01*
X118355952Y-54252857D01*
X118355952Y-54395714D01*
X118308333Y-54490952D01*
X118260714Y-54538571D01*
X118165476Y-54586190D01*
X117784523Y-54586190D01*
X109728095Y-54110000D02*
X109632857Y-54062380D01*
X109490000Y-54062380D01*
X109347142Y-54110000D01*
X109251904Y-54205238D01*
X109204285Y-54300476D01*
X109156666Y-54490952D01*
X109156666Y-54633809D01*
X109204285Y-54824285D01*
X109251904Y-54919523D01*
X109347142Y-55014761D01*
X109490000Y-55062380D01*
X109585238Y-55062380D01*
X109728095Y-55014761D01*
X109775714Y-54967142D01*
X109775714Y-54633809D01*
X109585238Y-54633809D01*
X110204285Y-55062380D02*
X110204285Y-54062380D01*
X110775714Y-55062380D01*
X110775714Y-54062380D01*
X111251904Y-55062380D02*
X111251904Y-54062380D01*
X111490000Y-54062380D01*
X111632857Y-54110000D01*
X111728095Y-54205238D01*
X111775714Y-54300476D01*
X111823333Y-54490952D01*
X111823333Y-54633809D01*
X111775714Y-54824285D01*
X111728095Y-54919523D01*
X111632857Y-55014761D01*
X111490000Y-55062380D01*
X111251904Y-55062380D01*
X102949523Y-54157619D02*
X102997142Y-54110000D01*
X103092380Y-54062380D01*
X103330476Y-54062380D01*
X103425714Y-54110000D01*
X103473333Y-54157619D01*
X103520952Y-54252857D01*
X103520952Y-54348095D01*
X103473333Y-54490952D01*
X102901904Y-55062380D01*
X103520952Y-55062380D01*
X104378095Y-54395714D02*
X104378095Y-55062380D01*
X104140000Y-54014761D02*
X103901904Y-54729047D01*
X104520952Y-54729047D01*
X104759047Y-54062380D02*
X105092380Y-55062380D01*
X105425714Y-54062380D01*
X104370952Y-48077380D02*
X104370952Y-47077380D01*
X104751904Y-47077380D01*
X104847142Y-47125000D01*
X104894761Y-47172619D01*
X104942380Y-47267857D01*
X104942380Y-47410714D01*
X104894761Y-47505952D01*
X104847142Y-47553571D01*
X104751904Y-47601190D01*
X104370952Y-47601190D01*
X105513809Y-48077380D02*
X105418571Y-48029761D01*
X105370952Y-47982142D01*
X105323333Y-47886904D01*
X105323333Y-47601190D01*
X105370952Y-47505952D01*
X105418571Y-47458333D01*
X105513809Y-47410714D01*
X105656666Y-47410714D01*
X105751904Y-47458333D01*
X105799523Y-47505952D01*
X105847142Y-47601190D01*
X105847142Y-47886904D01*
X105799523Y-47982142D01*
X105751904Y-48029761D01*
X105656666Y-48077380D01*
X105513809Y-48077380D01*
X106180476Y-47410714D02*
X106370952Y-48077380D01*
X106561428Y-47601190D01*
X106751904Y-48077380D01*
X106942380Y-47410714D01*
X107704285Y-48029761D02*
X107609047Y-48077380D01*
X107418571Y-48077380D01*
X107323333Y-48029761D01*
X107275714Y-47934523D01*
X107275714Y-47553571D01*
X107323333Y-47458333D01*
X107418571Y-47410714D01*
X107609047Y-47410714D01*
X107704285Y-47458333D01*
X107751904Y-47553571D01*
X107751904Y-47648809D01*
X107275714Y-47744047D01*
X108180476Y-48077380D02*
X108180476Y-47410714D01*
X108180476Y-47601190D02*
X108228095Y-47505952D01*
X108275714Y-47458333D01*
X108370952Y-47410714D01*
X108466190Y-47410714D01*
X109561428Y-47696428D02*
X110323333Y-47696428D01*
X110751904Y-47172619D02*
X110799523Y-47125000D01*
X110894761Y-47077380D01*
X111132857Y-47077380D01*
X111228095Y-47125000D01*
X111275714Y-47172619D01*
X111323333Y-47267857D01*
X111323333Y-47363095D01*
X111275714Y-47505952D01*
X110704285Y-48077380D01*
X111323333Y-48077380D01*
X112180476Y-47410714D02*
X112180476Y-48077380D01*
X111942380Y-47029761D02*
X111704285Y-47744047D01*
X112323333Y-47744047D01*
X112561428Y-47077380D02*
X112894761Y-48077380D01*
X113228095Y-47077380D01*
X114847142Y-48077380D02*
X114275714Y-48077380D01*
X114561428Y-48077380D02*
X114561428Y-47077380D01*
X114466190Y-47220238D01*
X114370952Y-47315476D01*
X114275714Y-47363095D01*
X115799523Y-48077380D02*
X115228095Y-48077380D01*
X115513809Y-48077380D02*
X115513809Y-47077380D01*
X115418571Y-47220238D01*
X115323333Y-47315476D01*
X115228095Y-47363095D01*
X116180476Y-47791666D02*
X116656666Y-47791666D01*
X116085238Y-48077380D02*
X116418571Y-47077380D01*
X116751904Y-48077380D01*
D12*
X31115000Y-64770000D02*
X33655000Y-64770000D01*
X31115000Y-113030000D02*
X31115000Y-64770000D01*
X32385000Y-113030000D02*
X31115000Y-113030000D01*
X97790000Y-41275000D02*
X97790000Y-44450000D01*
X39370000Y-41275000D02*
X97790000Y-41275000D01*
X39370000Y-43815000D02*
X39370000Y-41275000D01*
X119380000Y-76835000D02*
X116840000Y-76835000D01*
X119380000Y-128270000D02*
X119380000Y-76835000D01*
X117475000Y-128270000D02*
X119380000Y-128270000D01*
X109220000Y-149860000D02*
X109220000Y-147955000D01*
X50800000Y-149860000D02*
X109220000Y-149860000D01*
X50800000Y-147320000D02*
X50800000Y-149860000D01*
D11*
X35917142Y-116617380D02*
X35964761Y-116665000D01*
X36012380Y-116807857D01*
X36012380Y-116903095D01*
X35964761Y-117045952D01*
X35869523Y-117141190D01*
X35774285Y-117188809D01*
X35583809Y-117236428D01*
X35440952Y-117236428D01*
X35250476Y-117188809D01*
X35155238Y-117141190D01*
X35060000Y-117045952D01*
X35012380Y-116903095D01*
X35012380Y-116807857D01*
X35060000Y-116665000D01*
X35107619Y-116617380D01*
X36012380Y-116045952D02*
X35964761Y-116141190D01*
X35869523Y-116188809D01*
X35012380Y-116188809D01*
X35345714Y-115236428D02*
X36012380Y-115236428D01*
X35345714Y-115665000D02*
X35869523Y-115665000D01*
X35964761Y-115617380D01*
X36012380Y-115522142D01*
X36012380Y-115379285D01*
X35964761Y-115284047D01*
X35917142Y-115236428D01*
X35964761Y-114807857D02*
X36012380Y-114712619D01*
X36012380Y-114522142D01*
X35964761Y-114426904D01*
X35869523Y-114379285D01*
X35821904Y-114379285D01*
X35726666Y-114426904D01*
X35679047Y-114522142D01*
X35679047Y-114665000D01*
X35631428Y-114760238D01*
X35536190Y-114807857D01*
X35488571Y-114807857D01*
X35393333Y-114760238D01*
X35345714Y-114665000D01*
X35345714Y-114522142D01*
X35393333Y-114426904D01*
X35345714Y-114093571D02*
X35345714Y-113712619D01*
X35012380Y-113950714D02*
X35869523Y-113950714D01*
X35964761Y-113903095D01*
X36012380Y-113807857D01*
X36012380Y-113712619D01*
X35964761Y-112998333D02*
X36012380Y-113093571D01*
X36012380Y-113284047D01*
X35964761Y-113379285D01*
X35869523Y-113426904D01*
X35488571Y-113426904D01*
X35393333Y-113379285D01*
X35345714Y-113284047D01*
X35345714Y-113093571D01*
X35393333Y-112998333D01*
X35488571Y-112950714D01*
X35583809Y-112950714D01*
X35679047Y-113426904D01*
X36012380Y-112522142D02*
X35345714Y-112522142D01*
X35536190Y-112522142D02*
X35440952Y-112474523D01*
X35393333Y-112426904D01*
X35345714Y-112331666D01*
X35345714Y-112236428D01*
X35631428Y-111903095D02*
X35631428Y-111141190D01*
X35488571Y-110331666D02*
X35536190Y-110188809D01*
X35583809Y-110141190D01*
X35679047Y-110093571D01*
X35821904Y-110093571D01*
X35917142Y-110141190D01*
X35964761Y-110188809D01*
X36012380Y-110284047D01*
X36012380Y-110665000D01*
X35012380Y-110665000D01*
X35012380Y-110331666D01*
X35060000Y-110236428D01*
X35107619Y-110188809D01*
X35202857Y-110141190D01*
X35298095Y-110141190D01*
X35393333Y-110188809D01*
X35440952Y-110236428D01*
X35488571Y-110331666D01*
X35488571Y-110665000D01*
D12*
X33655000Y-116840000D02*
X33655000Y-110490000D01*
X33655000Y-110490000D02*
X33020000Y-111125000D01*
X33655000Y-110490000D02*
X34290000Y-111125000D01*
D11*
X115927142Y-131222380D02*
X115974761Y-131270000D01*
X116022380Y-131412857D01*
X116022380Y-131508095D01*
X115974761Y-131650952D01*
X115879523Y-131746190D01*
X115784285Y-131793809D01*
X115593809Y-131841428D01*
X115450952Y-131841428D01*
X115260476Y-131793809D01*
X115165238Y-131746190D01*
X115070000Y-131650952D01*
X115022380Y-131508095D01*
X115022380Y-131412857D01*
X115070000Y-131270000D01*
X115117619Y-131222380D01*
X116022380Y-130650952D02*
X115974761Y-130746190D01*
X115879523Y-130793809D01*
X115022380Y-130793809D01*
X115355714Y-129841428D02*
X116022380Y-129841428D01*
X115355714Y-130270000D02*
X115879523Y-130270000D01*
X115974761Y-130222380D01*
X116022380Y-130127142D01*
X116022380Y-129984285D01*
X115974761Y-129889047D01*
X115927142Y-129841428D01*
X115974761Y-129412857D02*
X116022380Y-129317619D01*
X116022380Y-129127142D01*
X115974761Y-129031904D01*
X115879523Y-128984285D01*
X115831904Y-128984285D01*
X115736666Y-129031904D01*
X115689047Y-129127142D01*
X115689047Y-129270000D01*
X115641428Y-129365238D01*
X115546190Y-129412857D01*
X115498571Y-129412857D01*
X115403333Y-129365238D01*
X115355714Y-129270000D01*
X115355714Y-129127142D01*
X115403333Y-129031904D01*
X115355714Y-128698571D02*
X115355714Y-128317619D01*
X115022380Y-128555714D02*
X115879523Y-128555714D01*
X115974761Y-128508095D01*
X116022380Y-128412857D01*
X116022380Y-128317619D01*
X115974761Y-127603333D02*
X116022380Y-127698571D01*
X116022380Y-127889047D01*
X115974761Y-127984285D01*
X115879523Y-128031904D01*
X115498571Y-128031904D01*
X115403333Y-127984285D01*
X115355714Y-127889047D01*
X115355714Y-127698571D01*
X115403333Y-127603333D01*
X115498571Y-127555714D01*
X115593809Y-127555714D01*
X115689047Y-128031904D01*
X116022380Y-127127142D02*
X115355714Y-127127142D01*
X115546190Y-127127142D02*
X115450952Y-127079523D01*
X115403333Y-127031904D01*
X115355714Y-126936666D01*
X115355714Y-126841428D01*
X115641428Y-126508095D02*
X115641428Y-125746190D01*
X116022380Y-125270000D02*
X115022380Y-125270000D01*
X115022380Y-125031904D01*
X115070000Y-124889047D01*
X115165238Y-124793809D01*
X115260476Y-124746190D01*
X115450952Y-124698571D01*
X115593809Y-124698571D01*
X115784285Y-124746190D01*
X115879523Y-124793809D01*
X115974761Y-124889047D01*
X116022380Y-125031904D01*
X116022380Y-125270000D01*
D12*
X113665000Y-131445000D02*
X113665000Y-125095000D01*
X113665000Y-125095000D02*
X113030000Y-125730000D01*
X113665000Y-125095000D02*
X114300000Y-125730000D01*
D11*
X47847619Y-146407142D02*
X47800000Y-146454761D01*
X47657142Y-146502380D01*
X47561904Y-146502380D01*
X47419047Y-146454761D01*
X47323809Y-146359523D01*
X47276190Y-146264285D01*
X47228571Y-146073809D01*
X47228571Y-145930952D01*
X47276190Y-145740476D01*
X47323809Y-145645238D01*
X47419047Y-145550000D01*
X47561904Y-145502380D01*
X47657142Y-145502380D01*
X47800000Y-145550000D01*
X47847619Y-145597619D01*
X48419047Y-146502380D02*
X48323809Y-146454761D01*
X48276190Y-146359523D01*
X48276190Y-145502380D01*
X49228571Y-145835714D02*
X49228571Y-146502380D01*
X48800000Y-145835714D02*
X48800000Y-146359523D01*
X48847619Y-146454761D01*
X48942857Y-146502380D01*
X49085714Y-146502380D01*
X49180952Y-146454761D01*
X49228571Y-146407142D01*
X49657142Y-146454761D02*
X49752380Y-146502380D01*
X49942857Y-146502380D01*
X50038095Y-146454761D01*
X50085714Y-146359523D01*
X50085714Y-146311904D01*
X50038095Y-146216666D01*
X49942857Y-146169047D01*
X49800000Y-146169047D01*
X49704761Y-146121428D01*
X49657142Y-146026190D01*
X49657142Y-145978571D01*
X49704761Y-145883333D01*
X49800000Y-145835714D01*
X49942857Y-145835714D01*
X50038095Y-145883333D01*
X50371428Y-145835714D02*
X50752380Y-145835714D01*
X50514285Y-145502380D02*
X50514285Y-146359523D01*
X50561904Y-146454761D01*
X50657142Y-146502380D01*
X50752380Y-146502380D01*
X51466666Y-146454761D02*
X51371428Y-146502380D01*
X51180952Y-146502380D01*
X51085714Y-146454761D01*
X51038095Y-146359523D01*
X51038095Y-145978571D01*
X51085714Y-145883333D01*
X51180952Y-145835714D01*
X51371428Y-145835714D01*
X51466666Y-145883333D01*
X51514285Y-145978571D01*
X51514285Y-146073809D01*
X51038095Y-146169047D01*
X51942857Y-146502380D02*
X51942857Y-145835714D01*
X51942857Y-146026190D02*
X51990476Y-145930952D01*
X52038095Y-145883333D01*
X52133333Y-145835714D01*
X52228571Y-145835714D01*
X52561904Y-146121428D02*
X53323809Y-146121428D01*
X54371428Y-146407142D02*
X54323809Y-146454761D01*
X54180952Y-146502380D01*
X54085714Y-146502380D01*
X53942857Y-146454761D01*
X53847619Y-146359523D01*
X53800000Y-146264285D01*
X53752380Y-146073809D01*
X53752380Y-145930952D01*
X53800000Y-145740476D01*
X53847619Y-145645238D01*
X53942857Y-145550000D01*
X54085714Y-145502380D01*
X54180952Y-145502380D01*
X54323809Y-145550000D01*
X54371428Y-145597619D01*
D12*
X47625000Y-144145000D02*
X53975000Y-144145000D01*
X53975000Y-144145000D02*
X53340000Y-143510000D01*
X53975000Y-144145000D02*
X53340000Y-144780000D01*
X95885000Y-44450000D02*
X96520000Y-43815000D01*
X95885000Y-44450000D02*
X96520000Y-45085000D01*
X102235000Y-44450000D02*
X95885000Y-44450000D01*
D11*
X96179047Y-46712142D02*
X96131428Y-46759761D01*
X95988571Y-46807380D01*
X95893333Y-46807380D01*
X95750476Y-46759761D01*
X95655238Y-46664523D01*
X95607619Y-46569285D01*
X95560000Y-46378809D01*
X95560000Y-46235952D01*
X95607619Y-46045476D01*
X95655238Y-45950238D01*
X95750476Y-45855000D01*
X95893333Y-45807380D01*
X95988571Y-45807380D01*
X96131428Y-45855000D01*
X96179047Y-45902619D01*
X96750476Y-46807380D02*
X96655238Y-46759761D01*
X96607619Y-46664523D01*
X96607619Y-45807380D01*
X97560000Y-46140714D02*
X97560000Y-46807380D01*
X97131428Y-46140714D02*
X97131428Y-46664523D01*
X97179047Y-46759761D01*
X97274285Y-46807380D01*
X97417142Y-46807380D01*
X97512380Y-46759761D01*
X97560000Y-46712142D01*
X97988571Y-46759761D02*
X98083809Y-46807380D01*
X98274285Y-46807380D01*
X98369523Y-46759761D01*
X98417142Y-46664523D01*
X98417142Y-46616904D01*
X98369523Y-46521666D01*
X98274285Y-46474047D01*
X98131428Y-46474047D01*
X98036190Y-46426428D01*
X97988571Y-46331190D01*
X97988571Y-46283571D01*
X98036190Y-46188333D01*
X98131428Y-46140714D01*
X98274285Y-46140714D01*
X98369523Y-46188333D01*
X98702857Y-46140714D02*
X99083809Y-46140714D01*
X98845714Y-45807380D02*
X98845714Y-46664523D01*
X98893333Y-46759761D01*
X98988571Y-46807380D01*
X99083809Y-46807380D01*
X99798095Y-46759761D02*
X99702857Y-46807380D01*
X99512380Y-46807380D01*
X99417142Y-46759761D01*
X99369523Y-46664523D01*
X99369523Y-46283571D01*
X99417142Y-46188333D01*
X99512380Y-46140714D01*
X99702857Y-46140714D01*
X99798095Y-46188333D01*
X99845714Y-46283571D01*
X99845714Y-46378809D01*
X99369523Y-46474047D01*
X100274285Y-46807380D02*
X100274285Y-46140714D01*
X100274285Y-46331190D02*
X100321904Y-46235952D01*
X100369523Y-46188333D01*
X100464761Y-46140714D01*
X100560000Y-46140714D01*
X100893333Y-46426428D02*
X101655238Y-46426428D01*
X102083809Y-46521666D02*
X102560000Y-46521666D01*
X101988571Y-46807380D02*
X102321904Y-45807380D01*
X102655238Y-46807380D01*
X36465238Y-128087380D02*
X36465238Y-127087380D01*
X36893809Y-127182619D02*
X36941428Y-127135000D01*
X37036666Y-127087380D01*
X37274761Y-127087380D01*
X37370000Y-127135000D01*
X37417619Y-127182619D01*
X37465238Y-127277857D01*
X37465238Y-127373095D01*
X37417619Y-127515952D01*
X36846190Y-128087380D01*
X37465238Y-128087380D01*
X38465238Y-127992142D02*
X38417619Y-128039761D01*
X38274761Y-128087380D01*
X38179523Y-128087380D01*
X38036666Y-128039761D01*
X37941428Y-127944523D01*
X37893809Y-127849285D01*
X37846190Y-127658809D01*
X37846190Y-127515952D01*
X37893809Y-127325476D01*
X37941428Y-127230238D01*
X38036666Y-127135000D01*
X38179523Y-127087380D01*
X38274761Y-127087380D01*
X38417619Y-127135000D01*
X38465238Y-127182619D01*
X39798571Y-128087380D02*
X39703333Y-128039761D01*
X39655714Y-127992142D01*
X39608095Y-127896904D01*
X39608095Y-127611190D01*
X39655714Y-127515952D01*
X39703333Y-127468333D01*
X39798571Y-127420714D01*
X39941428Y-127420714D01*
X40036666Y-127468333D01*
X40084285Y-127515952D01*
X40131904Y-127611190D01*
X40131904Y-127896904D01*
X40084285Y-127992142D01*
X40036666Y-128039761D01*
X39941428Y-128087380D01*
X39798571Y-128087380D01*
X40560476Y-127420714D02*
X40560476Y-128087380D01*
X40560476Y-127515952D02*
X40608095Y-127468333D01*
X40703333Y-127420714D01*
X40846190Y-127420714D01*
X40941428Y-127468333D01*
X40989047Y-127563571D01*
X40989047Y-128087380D01*
X41608095Y-128087380D02*
X41512857Y-128039761D01*
X41465238Y-127944523D01*
X41465238Y-127087380D01*
X41893809Y-127420714D02*
X42131904Y-128087380D01*
X42370000Y-127420714D02*
X42131904Y-128087380D01*
X42036666Y-128325476D01*
X41989047Y-128373095D01*
X41893809Y-128420714D01*
D13*
%TO.C, *%
G36*
X35601462Y-140786691D02*
G01*
X35617956Y-140906500D01*
X35597264Y-141061550D01*
X35514054Y-141333914D01*
X35382903Y-141690137D01*
X35218387Y-142096767D01*
X35035083Y-142520351D01*
X34847568Y-142927437D01*
X34670418Y-143284572D01*
X34518211Y-143558303D01*
X34405522Y-143715177D01*
X34387280Y-143730828D01*
X34252956Y-143806802D01*
X34210735Y-143769515D01*
X34210661Y-143747634D01*
X34245370Y-143638606D01*
X34338799Y-143401180D01*
X34480127Y-143061354D01*
X34658532Y-142645123D01*
X34863194Y-142178486D01*
X34873462Y-142155333D01*
X35129062Y-141584562D01*
X35331443Y-141159135D01*
X35494943Y-140869119D01*
X35604968Y-140738843D01*
X35601462Y-140786691D01*
G37*
X35601462Y-140786691D02*
X35617956Y-140906500D01*
X35597264Y-141061550D01*
X35514054Y-141333914D01*
X35382903Y-141690137D01*
X35218387Y-142096767D01*
X35035083Y-142520351D01*
X34847568Y-142927437D01*
X34670418Y-143284572D01*
X34518211Y-143558303D01*
X34405522Y-143715177D01*
X34387280Y-143730828D01*
X34252956Y-143806802D01*
X34210735Y-143769515D01*
X34210661Y-143747634D01*
X34245370Y-143638606D01*
X34338799Y-143401180D01*
X34480127Y-143061354D01*
X34658532Y-142645123D01*
X34863194Y-142178486D01*
X34873462Y-142155333D01*
X35129062Y-141584562D01*
X35331443Y-141159135D01*
X35494943Y-140869119D01*
X35604968Y-140738843D01*
X35601462Y-140786691D01*
G36*
X38304202Y-138373143D02*
G01*
X38222506Y-138582880D01*
X38093895Y-138892219D01*
X37930372Y-139274080D01*
X37743943Y-139701381D01*
X37546610Y-140147040D01*
X37350377Y-140583978D01*
X37167249Y-140985112D01*
X37009230Y-141323361D01*
X36888323Y-141571644D01*
X36816533Y-141702879D01*
X36810712Y-141710833D01*
X36666291Y-141812026D01*
X36495949Y-141777542D01*
X36287196Y-141600337D01*
X36027540Y-141273368D01*
X36022512Y-141266333D01*
X35836926Y-141010017D01*
X35692306Y-140817336D01*
X35616648Y-140725013D01*
X35633900Y-140704586D01*
X35762654Y-140655603D01*
X35895541Y-140712242D01*
X36046900Y-140864570D01*
X36231070Y-141102659D01*
X36285891Y-141177102D01*
X36476093Y-141433344D01*
X36623710Y-141626941D01*
X36704045Y-141725684D01*
X36711403Y-141732000D01*
X36709023Y-141664052D01*
X36691191Y-141583833D01*
X36711929Y-141454950D01*
X36795288Y-141204640D01*
X36927859Y-140862777D01*
X37096234Y-140459241D01*
X37287002Y-140023906D01*
X37486755Y-139586649D01*
X37682083Y-139177348D01*
X37859577Y-138825878D01*
X38005828Y-138562117D01*
X38107427Y-138415941D01*
X38117142Y-138406716D01*
X38256214Y-138307859D01*
X38326979Y-138290091D01*
X38304202Y-138373143D01*
G37*
X38304202Y-138373143D02*
X38222506Y-138582880D01*
X38093895Y-138892219D01*
X37930372Y-139274080D01*
X37743943Y-139701381D01*
X37546610Y-140147040D01*
X37350377Y-140583978D01*
X37167249Y-140985112D01*
X37009230Y-141323361D01*
X36888323Y-141571644D01*
X36816533Y-141702879D01*
X36810712Y-141710833D01*
X36666291Y-141812026D01*
X36495949Y-141777542D01*
X36287196Y-141600337D01*
X36027540Y-141273368D01*
X36022512Y-141266333D01*
X35836926Y-141010017D01*
X35692306Y-140817336D01*
X35616648Y-140725013D01*
X35633900Y-140704586D01*
X35762654Y-140655603D01*
X35895541Y-140712242D01*
X36046900Y-140864570D01*
X36231070Y-141102659D01*
X36285891Y-141177102D01*
X36476093Y-141433344D01*
X36623710Y-141626941D01*
X36704045Y-141725684D01*
X36711403Y-141732000D01*
X36709023Y-141664052D01*
X36691191Y-141583833D01*
X36711929Y-141454950D01*
X36795288Y-141204640D01*
X36927859Y-140862777D01*
X37096234Y-140459241D01*
X37287002Y-140023906D01*
X37486755Y-139586649D01*
X37682083Y-139177348D01*
X37859577Y-138825878D01*
X38005828Y-138562117D01*
X38107427Y-138415941D01*
X38117142Y-138406716D01*
X38256214Y-138307859D01*
X38326979Y-138290091D01*
X38304202Y-138373143D01*
G36*
X40877055Y-138300166D02*
G01*
X40859140Y-138388644D01*
X40782279Y-138610172D01*
X40655709Y-138942800D01*
X40488666Y-139364577D01*
X40290387Y-139853555D01*
X40070107Y-140387782D01*
X39837064Y-140945309D01*
X39600494Y-141504185D01*
X39369633Y-142042461D01*
X39153717Y-142538187D01*
X38961984Y-142969412D01*
X38803668Y-143314187D01*
X38688007Y-143550560D01*
X38624237Y-143656584D01*
X38622458Y-143658166D01*
X38460722Y-143752994D01*
X38364913Y-143741285D01*
X38354000Y-143701793D01*
X38385684Y-143611444D01*
X38475566Y-143384023D01*
X38615891Y-143038420D01*
X38798905Y-142593526D01*
X39016853Y-142068229D01*
X39261979Y-141481420D01*
X39422817Y-141098293D01*
X39763461Y-140296980D01*
X40049367Y-139644565D01*
X40285505Y-139131488D01*
X40476844Y-138748188D01*
X40628351Y-138485106D01*
X40744995Y-138332681D01*
X40831746Y-138281354D01*
X40877055Y-138300166D01*
G37*
X40877055Y-138300166D02*
X40859140Y-138388644D01*
X40782279Y-138610172D01*
X40655709Y-138942800D01*
X40488666Y-139364577D01*
X40290387Y-139853555D01*
X40070107Y-140387782D01*
X39837064Y-140945309D01*
X39600494Y-141504185D01*
X39369633Y-142042461D01*
X39153717Y-142538187D01*
X38961984Y-142969412D01*
X38803668Y-143314187D01*
X38688007Y-143550560D01*
X38624237Y-143656584D01*
X38622458Y-143658166D01*
X38460722Y-143752994D01*
X38364913Y-143741285D01*
X38354000Y-143701793D01*
X38385684Y-143611444D01*
X38475566Y-143384023D01*
X38615891Y-143038420D01*
X38798905Y-142593526D01*
X39016853Y-142068229D01*
X39261979Y-141481420D01*
X39422817Y-141098293D01*
X39763461Y-140296980D01*
X40049367Y-139644565D01*
X40285505Y-139131488D01*
X40476844Y-138748188D01*
X40628351Y-138485106D01*
X40744995Y-138332681D01*
X40831746Y-138281354D01*
X40877055Y-138300166D01*
G36*
X42322099Y-140651090D02*
G01*
X42493155Y-140730377D01*
X42644325Y-140910426D01*
X42697639Y-140992029D01*
X42785035Y-141207868D01*
X42749660Y-141424124D01*
X42582253Y-141680696D01*
X42520998Y-141753166D01*
X42303666Y-141888016D01*
X42040001Y-141896285D01*
X41788218Y-141784596D01*
X41661765Y-141655429D01*
X41519364Y-141399768D01*
X41505960Y-141193973D01*
X41692947Y-141193973D01*
X41710953Y-141326889D01*
X41775305Y-141435805D01*
X41956693Y-141599775D01*
X42140983Y-141671178D01*
X42323790Y-141701141D01*
X42410944Y-141719314D01*
X42402417Y-141688899D01*
X42389480Y-141675258D01*
X42389752Y-141572470D01*
X42467918Y-141412207D01*
X42551374Y-141229249D01*
X42510548Y-141113348D01*
X42426708Y-140949932D01*
X42418000Y-140883063D01*
X42356621Y-140785362D01*
X42206667Y-140771533D01*
X42019404Y-140829966D01*
X41846104Y-140949050D01*
X41780962Y-141027325D01*
X41692947Y-141193973D01*
X41505960Y-141193973D01*
X41504258Y-141167842D01*
X41612207Y-140888180D01*
X41615840Y-140881128D01*
X41735745Y-140709050D01*
X41899058Y-140640922D01*
X42060340Y-140632629D01*
X42322099Y-140651090D01*
G37*
X42322099Y-140651090D02*
X42493155Y-140730377D01*
X42644325Y-140910426D01*
X42697639Y-140992029D01*
X42785035Y-141207868D01*
X42749660Y-141424124D01*
X42582253Y-141680696D01*
X42520998Y-141753166D01*
X42303666Y-141888016D01*
X42040001Y-141896285D01*
X41788218Y-141784596D01*
X41661765Y-141655429D01*
X41519364Y-141399768D01*
X41505960Y-141193973D01*
X41692947Y-141193973D01*
X41710953Y-141326889D01*
X41775305Y-141435805D01*
X41956693Y-141599775D01*
X42140983Y-141671178D01*
X42323790Y-141701141D01*
X42410944Y-141719314D01*
X42402417Y-141688899D01*
X42389480Y-141675258D01*
X42389752Y-141572470D01*
X42467918Y-141412207D01*
X42551374Y-141229249D01*
X42510548Y-141113348D01*
X42426708Y-140949932D01*
X42418000Y-140883063D01*
X42356621Y-140785362D01*
X42206667Y-140771533D01*
X42019404Y-140829966D01*
X41846104Y-140949050D01*
X41780962Y-141027325D01*
X41692947Y-141193973D01*
X41505960Y-141193973D01*
X41504258Y-141167842D01*
X41612207Y-140888180D01*
X41615840Y-140881128D01*
X41735745Y-140709050D01*
X41899058Y-140640922D01*
X42060340Y-140632629D01*
X42322099Y-140651090D01*
G36*
X38506412Y-140687920D02*
G01*
X38743861Y-140873799D01*
X38865533Y-141061268D01*
X38903713Y-141287957D01*
X38807306Y-141510598D01*
X38608116Y-141693712D01*
X38337949Y-141801822D01*
X38188356Y-141816666D01*
X37935571Y-141785239D01*
X37773912Y-141669786D01*
X37728737Y-141607978D01*
X37626903Y-141393938D01*
X37592000Y-141224000D01*
X37603195Y-141174951D01*
X37797099Y-141174951D01*
X37820692Y-141310362D01*
X37888306Y-141423743D01*
X38054578Y-141583024D01*
X38188704Y-141604222D01*
X38345228Y-141613826D01*
X38399549Y-141652537D01*
X38485808Y-141729510D01*
X38500107Y-141732000D01*
X38508652Y-141690291D01*
X38498487Y-141678932D01*
X38496300Y-141575339D01*
X38563720Y-141397227D01*
X38568732Y-141387403D01*
X38638519Y-141188865D01*
X38607689Y-141096808D01*
X38534617Y-140976527D01*
X38523333Y-140895000D01*
X38460962Y-140792547D01*
X38308721Y-140772209D01*
X38118918Y-140824125D01*
X37943860Y-140938436D01*
X37877681Y-141016707D01*
X37797099Y-141174951D01*
X37603195Y-141174951D01*
X37637728Y-141023662D01*
X37728737Y-140840021D01*
X37875694Y-140689947D01*
X38090747Y-140634356D01*
X38188356Y-140631333D01*
X38506412Y-140687920D01*
G37*
X38506412Y-140687920D02*
X38743861Y-140873799D01*
X38865533Y-141061268D01*
X38903713Y-141287957D01*
X38807306Y-141510598D01*
X38608116Y-141693712D01*
X38337949Y-141801822D01*
X38188356Y-141816666D01*
X37935571Y-141785239D01*
X37773912Y-141669786D01*
X37728737Y-141607978D01*
X37626903Y-141393938D01*
X37592000Y-141224000D01*
X37603195Y-141174951D01*
X37797099Y-141174951D01*
X37820692Y-141310362D01*
X37888306Y-141423743D01*
X38054578Y-141583024D01*
X38188704Y-141604222D01*
X38345228Y-141613826D01*
X38399549Y-141652537D01*
X38485808Y-141729510D01*
X38500107Y-141732000D01*
X38508652Y-141690291D01*
X38498487Y-141678932D01*
X38496300Y-141575339D01*
X38563720Y-141397227D01*
X38568732Y-141387403D01*
X38638519Y-141188865D01*
X38607689Y-141096808D01*
X38534617Y-140976527D01*
X38523333Y-140895000D01*
X38460962Y-140792547D01*
X38308721Y-140772209D01*
X38118918Y-140824125D01*
X37943860Y-140938436D01*
X37877681Y-141016707D01*
X37797099Y-141174951D01*
X37603195Y-141174951D01*
X37637728Y-141023662D01*
X37728737Y-140840021D01*
X37875694Y-140689947D01*
X38090747Y-140634356D01*
X38188356Y-140631333D01*
X38506412Y-140687920D01*
G36*
X40363290Y-140673883D02*
G01*
X40586984Y-140776825D01*
X40833230Y-140914449D01*
X41053423Y-141058230D01*
X41198958Y-141179640D01*
X41230483Y-141232632D01*
X41158947Y-141304076D01*
X40968889Y-141408412D01*
X40703458Y-141528159D01*
X40405798Y-141645835D01*
X40119057Y-141743960D01*
X39886382Y-141805052D01*
X39788969Y-141816666D01*
X39662261Y-141810712D01*
X39632997Y-141783699D01*
X39716719Y-141721905D01*
X39928969Y-141611604D01*
X40134388Y-141511652D01*
X40767000Y-141206639D01*
X40559929Y-141067152D01*
X40337658Y-140907209D01*
X40178929Y-140782316D01*
X40061262Y-140676254D01*
X40081969Y-140639686D01*
X40210752Y-140634150D01*
X40363290Y-140673883D01*
G37*
X40363290Y-140673883D02*
X40586984Y-140776825D01*
X40833230Y-140914449D01*
X41053423Y-141058230D01*
X41198958Y-141179640D01*
X41230483Y-141232632D01*
X41158947Y-141304076D01*
X40968889Y-141408412D01*
X40703458Y-141528159D01*
X40405798Y-141645835D01*
X40119057Y-141743960D01*
X39886382Y-141805052D01*
X39788969Y-141816666D01*
X39662261Y-141810712D01*
X39632997Y-141783699D01*
X39716719Y-141721905D01*
X39928969Y-141611604D01*
X40134388Y-141511652D01*
X40767000Y-141206639D01*
X40559929Y-141067152D01*
X40337658Y-140907209D01*
X40178929Y-140782316D01*
X40061262Y-140676254D01*
X40081969Y-140639686D01*
X40210752Y-140634150D01*
X40363290Y-140673883D01*
D12*
%TO.C,C5*%
X61574000Y-65875248D02*
X61574000Y-67297752D01*
X63394000Y-65875248D02*
X63394000Y-67297752D01*
D14*
%TO.C,J5*%
X48372040Y-47404002D02*
X49251992Y-47404002D01*
X42652005Y-47404002D02*
X43531960Y-47404002D01*
X42652005Y-44189039D02*
X42652005Y-47404002D01*
X48277772Y-42904001D02*
X43626228Y-42904001D01*
X49251992Y-47404002D02*
X49251992Y-44189039D01*
X51029992Y-46609000D02*
X49505992Y-47244000D01*
X51029992Y-47879000D02*
X51029992Y-46609000D01*
X49505992Y-47244000D02*
X51029992Y-47879000D01*
%TO.C,J9*%
X112615998Y-96632040D02*
X112615998Y-97511992D01*
X112615998Y-90912005D02*
X112615998Y-91791960D01*
X115830961Y-90912005D02*
X112615998Y-90912005D01*
X117115999Y-96537772D02*
X117115999Y-91886228D01*
X112615998Y-97511992D02*
X115830961Y-97511992D01*
X113411000Y-99289992D02*
X112776000Y-97765992D01*
X112141000Y-99289992D02*
X113411000Y-99289992D01*
X112776000Y-97765992D02*
X112141000Y-99289992D01*
%TO.C,J6*%
X112615998Y-85710040D02*
X112615998Y-86589992D01*
X112615998Y-79990005D02*
X112615998Y-80869960D01*
X115830961Y-79990005D02*
X112615998Y-79990005D01*
X117115999Y-85615772D02*
X117115999Y-80964228D01*
X112615998Y-86589992D02*
X115830961Y-86589992D01*
X113411000Y-88367992D02*
X112776000Y-86843992D01*
X112141000Y-88367992D02*
X113411000Y-88367992D01*
X112776000Y-86843992D02*
X112141000Y-88367992D01*
%TO.C,J7*%
X91044040Y-47404002D02*
X91923992Y-47404002D01*
X85324005Y-47404002D02*
X86203960Y-47404002D01*
X85324005Y-44189039D02*
X85324005Y-47404002D01*
X90949772Y-42904001D02*
X86298228Y-42904001D01*
X91923992Y-47404002D02*
X91923992Y-44189039D01*
X93701992Y-46609000D02*
X92177992Y-47244000D01*
X93701992Y-47879000D02*
X93701992Y-46609000D01*
X92177992Y-47244000D02*
X93701992Y-47879000D01*
%TO.C,J8*%
X76998041Y-47623003D02*
X77877993Y-47623003D01*
X71278006Y-47623003D02*
X72157961Y-47623003D01*
X71278006Y-44408040D02*
X71278006Y-47623003D01*
X76903773Y-43123002D02*
X72252229Y-43123002D01*
X77877993Y-47623003D02*
X77877993Y-44408040D01*
X79655993Y-46828001D02*
X78131993Y-47463001D01*
X79655993Y-48098001D02*
X79655993Y-46828001D01*
X78131993Y-47463001D02*
X79655993Y-48098001D01*
%TO.C,J4*%
X62596040Y-47404002D02*
X63475992Y-47404002D01*
X56876005Y-47404002D02*
X57755960Y-47404002D01*
X56876005Y-44189039D02*
X56876005Y-47404002D01*
X62501772Y-42904001D02*
X57850228Y-42904001D01*
X63475992Y-47404002D02*
X63475992Y-44189039D01*
X65253992Y-46609000D02*
X63729992Y-47244000D01*
X65253992Y-47879000D02*
X65253992Y-46609000D01*
X63729992Y-47244000D02*
X65253992Y-47879000D01*
%TO.C,J13*%
X57291960Y-143095998D02*
X56412008Y-143095998D01*
X63011995Y-143095998D02*
X62132040Y-143095998D01*
X63011995Y-146310961D02*
X63011995Y-143095998D01*
X57386228Y-147595999D02*
X62037772Y-147595999D01*
X56412008Y-143095998D02*
X56412008Y-146310961D01*
X54634008Y-143891000D02*
X56158008Y-143256000D01*
X54634008Y-142621000D02*
X54634008Y-143891000D01*
X56158008Y-143256000D02*
X54634008Y-142621000D01*
%TO.C,J20*%
X41308002Y-119267960D02*
X41308002Y-118388008D01*
X41308002Y-124987995D02*
X41308002Y-124108040D01*
X38093039Y-124987995D02*
X41308002Y-124987995D01*
X36808001Y-119362228D02*
X36808001Y-124013772D01*
X41308002Y-118388008D02*
X38093039Y-118388008D01*
X40513000Y-116610008D02*
X41148000Y-118134008D01*
X41783000Y-116610008D02*
X40513000Y-116610008D01*
X41148000Y-118134008D02*
X41783000Y-116610008D01*
%TO.C,J19*%
X37625002Y-68594960D02*
X37625002Y-67715008D01*
X37625002Y-74314995D02*
X37625002Y-73435040D01*
X34410039Y-74314995D02*
X37625002Y-74314995D01*
X33125001Y-68689228D02*
X33125001Y-73340772D01*
X37625002Y-67715008D02*
X34410039Y-67715008D01*
X36830000Y-65937008D02*
X37465000Y-67461008D01*
X38100000Y-65937008D02*
X36830000Y-65937008D01*
X37465000Y-67461008D02*
X38100000Y-65937008D01*
%TO.C,J18*%
X37625002Y-102884960D02*
X37625002Y-102005008D01*
X37625002Y-108604995D02*
X37625002Y-107725040D01*
X34410039Y-108604995D02*
X37625002Y-108604995D01*
X33125001Y-102979228D02*
X33125001Y-107630772D01*
X37625002Y-102005008D02*
X34410039Y-102005008D01*
X36830000Y-100227008D02*
X37465000Y-101751008D01*
X38100000Y-100227008D02*
X36830000Y-100227008D01*
X37465000Y-101751008D02*
X38100000Y-100227008D01*
%TO.C,J17*%
X37625002Y-91454960D02*
X37625002Y-90575008D01*
X37625002Y-97174995D02*
X37625002Y-96295040D01*
X34410039Y-97174995D02*
X37625002Y-97174995D01*
X33125001Y-91549228D02*
X33125001Y-96200772D01*
X37625002Y-90575008D02*
X34410039Y-90575008D01*
X36830000Y-88797008D02*
X37465000Y-90321008D01*
X38100000Y-88797008D02*
X36830000Y-88797008D01*
X37465000Y-90321008D02*
X38100000Y-88797008D01*
%TO.C,J16*%
X37625002Y-80151960D02*
X37625002Y-79272008D01*
X37625002Y-85871995D02*
X37625002Y-84992040D01*
X34410039Y-85871995D02*
X37625002Y-85871995D01*
X33125001Y-80246228D02*
X33125001Y-84897772D01*
X37625002Y-79272008D02*
X34410039Y-79272008D01*
X36830000Y-77494008D02*
X37465000Y-79018008D01*
X38100000Y-77494008D02*
X36830000Y-77494008D01*
X37465000Y-79018008D02*
X38100000Y-77494008D01*
%TO.C,J15*%
X85739960Y-143095998D02*
X84860008Y-143095998D01*
X91459995Y-143095998D02*
X90580040Y-143095998D01*
X91459995Y-146310961D02*
X91459995Y-143095998D01*
X85834228Y-147595999D02*
X90485772Y-147595999D01*
X84860008Y-143095998D02*
X84860008Y-146310961D01*
X83082008Y-143891000D02*
X84606008Y-143256000D01*
X83082008Y-142621000D02*
X83082008Y-143891000D01*
X84606008Y-143256000D02*
X83082008Y-142621000D01*
%TO.C,J14*%
X71134960Y-143095998D02*
X70255008Y-143095998D01*
X76854995Y-143095998D02*
X75975040Y-143095998D01*
X76854995Y-146310961D02*
X76854995Y-143095998D01*
X71229228Y-147595999D02*
X75880772Y-147595999D01*
X70255008Y-143095998D02*
X70255008Y-146310961D01*
X68477008Y-143891000D02*
X70001008Y-143256000D01*
X68477008Y-142621000D02*
X68477008Y-143891000D01*
X70001008Y-143256000D02*
X68477008Y-142621000D01*
%TO.C,J12*%
X112615998Y-109332040D02*
X112615998Y-110211992D01*
X112615998Y-103612005D02*
X112615998Y-104491960D01*
X115830961Y-103612005D02*
X112615998Y-103612005D01*
X117115999Y-109237772D02*
X117115999Y-104586228D01*
X112615998Y-110211992D02*
X115830961Y-110211992D01*
X113411000Y-111989992D02*
X112776000Y-110465992D01*
X112141000Y-111989992D02*
X113411000Y-111989992D01*
X112776000Y-110465992D02*
X112141000Y-111989992D01*
%TO.C,J11*%
X112615998Y-122032040D02*
X112615998Y-122911992D01*
X112615998Y-116312005D02*
X112615998Y-117191960D01*
X115830961Y-116312005D02*
X112615998Y-116312005D01*
X117115999Y-121937772D02*
X117115999Y-117286228D01*
X112615998Y-122911992D02*
X115830961Y-122911992D01*
X113411000Y-124689992D02*
X112776000Y-123165992D01*
X112141000Y-124689992D02*
X113411000Y-124689992D01*
X112776000Y-123165992D02*
X112141000Y-124689992D01*
%TO.C,J10*%
X100471960Y-143095998D02*
X99592008Y-143095998D01*
X106191995Y-143095998D02*
X105312040Y-143095998D01*
X106191995Y-146310961D02*
X106191995Y-143095998D01*
X100566228Y-147595999D02*
X105217772Y-147595999D01*
X99592008Y-143095998D02*
X99592008Y-146310961D01*
X97814008Y-143891000D02*
X99338008Y-143256000D01*
X97814008Y-142621000D02*
X97814008Y-143891000D01*
X99338008Y-143256000D02*
X97814008Y-142621000D01*
D10*
%TO.C,D1*%
X57840000Y-64262000D02*
G75*
G03*
X57840000Y-64262000I-50000J0D01*
G01*
D12*
%TO.C,J1*%
X66862000Y-101598000D02*
X66862000Y-102618000D01*
X61662000Y-101598000D02*
X61662000Y-102618000D01*
X66862000Y-99058000D02*
X66862000Y-100078000D01*
X61662000Y-99058000D02*
X61662000Y-100078000D01*
X66862000Y-96518000D02*
X66862000Y-97538000D01*
X61662000Y-96518000D02*
X61662000Y-97538000D01*
X66862000Y-93978000D02*
X66862000Y-94998000D01*
X61662000Y-93978000D02*
X61662000Y-94998000D01*
X66862000Y-91438000D02*
X66862000Y-92458000D01*
X61662000Y-91438000D02*
X61662000Y-92458000D01*
X66862000Y-88898000D02*
X66862000Y-89918000D01*
X61662000Y-88898000D02*
X61662000Y-89918000D01*
X66862000Y-104138000D02*
X66862000Y-104708000D01*
X61662000Y-104138000D02*
X61662000Y-104708000D01*
X66862000Y-86808000D02*
X66862000Y-87378000D01*
X61662000Y-86808000D02*
X61662000Y-87378000D01*
X60222000Y-87378000D02*
X61662000Y-87378000D01*
X61662000Y-104708000D02*
X66862000Y-104708000D01*
X61662000Y-86808000D02*
X66862000Y-86808000D01*
D15*
%TO.C,RN1*%
X68432905Y-86374665D02*
G75*
G03*
X68432905Y-86374665I-122235J0D01*
G01*
X69367000Y-85623000D02*
X71857000Y-85623000D01*
X69367000Y-108433000D02*
X69367000Y-85623000D01*
X71857000Y-108433000D02*
X69367000Y-108433000D01*
X71857000Y-85623000D02*
X71857000Y-108433000D01*
D12*
%TO.C,R19*%
X106694500Y-85852724D02*
X106694500Y-85343276D01*
X105649500Y-85852724D02*
X105649500Y-85343276D01*
%TO.C,R18*%
X106694500Y-98195224D02*
X106694500Y-97685776D01*
X105649500Y-98195224D02*
X105649500Y-97685776D01*
%TO.C,R17*%
X61976724Y-52055500D02*
X61467276Y-52055500D01*
X61976724Y-53100500D02*
X61467276Y-53100500D01*
%TO.C,R16*%
X75946724Y-50785500D02*
X75437276Y-50785500D01*
X75946724Y-51830500D02*
X75437276Y-51830500D01*
%TO.C,R15*%
X89916724Y-50785500D02*
X89407276Y-50785500D01*
X89916724Y-51830500D02*
X89407276Y-51830500D01*
%TO.C,R14*%
X48006724Y-52055500D02*
X47497276Y-52055500D01*
X48006724Y-53100500D02*
X47497276Y-53100500D01*
%TO.C,R13*%
X106694500Y-109982724D02*
X106694500Y-109473276D01*
X105649500Y-109982724D02*
X105649500Y-109473276D01*
%TO.C,R12*%
X106694500Y-122682724D02*
X106694500Y-122173276D01*
X105649500Y-122682724D02*
X105649500Y-122173276D01*
%TO.C,R11*%
X86867276Y-139460500D02*
X87376724Y-139460500D01*
X86867276Y-138415500D02*
X87376724Y-138415500D01*
%TO.C,R10*%
X100837276Y-139460500D02*
X101346724Y-139460500D01*
X100837276Y-138415500D02*
X101346724Y-138415500D01*
%TO.C,L16*%
X98045748Y-79958000D02*
X98568252Y-79958000D01*
X98045748Y-78538000D02*
X98568252Y-78538000D01*
%TO.C,L15*%
X98045748Y-92658000D02*
X98568252Y-92658000D01*
X98045748Y-91238000D02*
X98568252Y-91238000D01*
%TO.C,L14*%
X57352000Y-60704252D02*
X57352000Y-60181748D01*
X55932000Y-60704252D02*
X55932000Y-60181748D01*
%TO.C,L13*%
X71322000Y-60704252D02*
X71322000Y-60181748D01*
X69902000Y-60704252D02*
X69902000Y-60181748D01*
%TO.C,L12*%
X85292000Y-59434252D02*
X85292000Y-58911748D01*
X83872000Y-59434252D02*
X83872000Y-58911748D01*
%TO.C,L11*%
X43382000Y-60704252D02*
X43382000Y-60181748D01*
X41962000Y-60704252D02*
X41962000Y-60181748D01*
%TO.C,L10*%
X98045748Y-105358000D02*
X98568252Y-105358000D01*
X98045748Y-103938000D02*
X98568252Y-103938000D01*
%TO.C,L9*%
X98045748Y-118058000D02*
X98568252Y-118058000D01*
X98045748Y-116638000D02*
X98568252Y-116638000D01*
%TO.C,L8*%
X91492000Y-131056748D02*
X91492000Y-131579252D01*
X92912000Y-131056748D02*
X92912000Y-131579252D01*
%TO.C,L7*%
X105462000Y-130811748D02*
X105462000Y-131334252D01*
X106882000Y-130811748D02*
X106882000Y-131334252D01*
%TO.C,C39*%
X102920748Y-80158000D02*
X104343252Y-80158000D01*
X102920748Y-78338000D02*
X104343252Y-78338000D01*
%TO.C,C38*%
X102920748Y-92858000D02*
X104343252Y-92858000D01*
X102920748Y-91038000D02*
X104343252Y-91038000D01*
%TO.C,C37*%
X57552000Y-55829252D02*
X57552000Y-54406748D01*
X55732000Y-55829252D02*
X55732000Y-54406748D01*
%TO.C,C36*%
X71522000Y-55829252D02*
X71522000Y-54406748D01*
X69702000Y-55829252D02*
X69702000Y-54406748D01*
%TO.C,C35*%
X85492000Y-54559252D02*
X85492000Y-53136748D01*
X83672000Y-54559252D02*
X83672000Y-53136748D01*
%TO.C,C34*%
X98192000Y-86309252D02*
X98192000Y-84886748D01*
X96372000Y-86309252D02*
X96372000Y-84886748D01*
%TO.C,C33*%
X98192000Y-98031752D02*
X98192000Y-96609248D01*
X96372000Y-98031752D02*
X96372000Y-96609248D01*
%TO.C,C32*%
X62433252Y-60558000D02*
X61010748Y-60558000D01*
X62433252Y-62378000D02*
X61010748Y-62378000D01*
%TO.C,C31*%
X76403252Y-60558000D02*
X74980748Y-60558000D01*
X76403252Y-62378000D02*
X74980748Y-62378000D01*
%TO.C,C30*%
X90373252Y-59288000D02*
X88950748Y-59288000D01*
X90373252Y-61108000D02*
X88950748Y-61108000D01*
%TO.C,C29*%
X43582000Y-55536752D02*
X43582000Y-54114248D01*
X41762000Y-55536752D02*
X41762000Y-54114248D01*
%TO.C,C28*%
X103213248Y-105558000D02*
X104635752Y-105558000D01*
X103213248Y-103738000D02*
X104635752Y-103738000D01*
%TO.C,C27*%
X103213248Y-118258000D02*
X104635752Y-118258000D01*
X103213248Y-116438000D02*
X104635752Y-116438000D01*
%TO.C,C26*%
X93112000Y-137401752D02*
X93112000Y-135979248D01*
X91292000Y-137401752D02*
X91292000Y-135979248D01*
%TO.C,C25*%
X105262000Y-135394248D02*
X105262000Y-136816752D01*
X107082000Y-135394248D02*
X107082000Y-136816752D01*
%TO.C,C23*%
X48755752Y-60558000D02*
X47333248Y-60558000D01*
X48755752Y-62378000D02*
X47333248Y-62378000D01*
%TO.C,C22*%
X98192000Y-110439252D02*
X98192000Y-109016748D01*
X96372000Y-110439252D02*
X96372000Y-109016748D01*
%TO.C,C21*%
X98192000Y-123431752D02*
X98192000Y-122009248D01*
X96372000Y-123431752D02*
X96372000Y-122009248D01*
%TO.C,C20*%
X86410748Y-130958000D02*
X87833252Y-130958000D01*
X86410748Y-129138000D02*
X87833252Y-129138000D01*
%TO.C,C18*%
X100380748Y-130958000D02*
X101803252Y-130958000D01*
X100380748Y-129138000D02*
X101803252Y-129138000D01*
%TO.C,R5*%
X72539776Y-139460500D02*
X73049224Y-139460500D01*
X72539776Y-138415500D02*
X73049224Y-138415500D01*
%TO.C,R4*%
X58927276Y-139460500D02*
X59436724Y-139460500D01*
X58927276Y-138415500D02*
X59436724Y-138415500D01*
%TO.C,L2*%
X77522000Y-131056748D02*
X77522000Y-131579252D01*
X78942000Y-131056748D02*
X78942000Y-131579252D01*
%TO.C,L1*%
X63552000Y-131056748D02*
X63552000Y-131579252D01*
X64972000Y-131056748D02*
X64972000Y-131579252D01*
%TO.C,C9*%
X79142000Y-137109252D02*
X79142000Y-135686748D01*
X77322000Y-137109252D02*
X77322000Y-135686748D01*
%TO.C,C8*%
X65172000Y-137109252D02*
X65172000Y-135686748D01*
X63352000Y-137109252D02*
X63352000Y-135686748D01*
%TO.C,C7*%
X72733248Y-130958000D02*
X74155752Y-130958000D01*
X72733248Y-129138000D02*
X74155752Y-129138000D01*
%TO.C,C6*%
X58470748Y-130958000D02*
X59893252Y-130958000D01*
X58470748Y-129138000D02*
X59893252Y-129138000D01*
%TO.C,C16*%
X49580748Y-103018000D02*
X51003252Y-103018000D01*
X49580748Y-101198000D02*
X51003252Y-101198000D01*
%TO.C,C15*%
X49288248Y-80158000D02*
X50710752Y-80158000D01*
X49288248Y-78338000D02*
X50710752Y-78338000D01*
%TO.C,C14*%
X49288248Y-91588000D02*
X50710752Y-91588000D01*
X49288248Y-89768000D02*
X50710752Y-89768000D01*
%TO.C,C3*%
X89302000Y-67259252D02*
X89302000Y-65836748D01*
X87482000Y-67259252D02*
X87482000Y-65836748D01*
%TO.C,C12*%
X44852000Y-107899252D02*
X44852000Y-106476748D01*
X43032000Y-107899252D02*
X43032000Y-106476748D01*
%TO.C,C11*%
X44852000Y-85039252D02*
X44852000Y-83616748D01*
X43032000Y-85039252D02*
X43032000Y-83616748D01*
%TO.C,C10*%
X44852000Y-96469252D02*
X44852000Y-95046748D01*
X43032000Y-96469252D02*
X43032000Y-95046748D01*
%TO.C,C2*%
X93112000Y-67259252D02*
X93112000Y-65836748D01*
X91292000Y-67259252D02*
X91292000Y-65836748D01*
%TO.C,C17*%
X49580748Y-68728000D02*
X51003252Y-68728000D01*
X49580748Y-66908000D02*
X51003252Y-66908000D01*
%TO.C,C13*%
X44852000Y-73609252D02*
X44852000Y-72186748D01*
X43032000Y-73609252D02*
X43032000Y-72186748D01*
%TO.C,C1*%
X74429252Y-66321000D02*
X73906748Y-66321000D01*
X74429252Y-67791000D02*
X73906748Y-67791000D01*
%TO.C,R9*%
X53354500Y-73152724D02*
X53354500Y-72643276D01*
X52309500Y-73152724D02*
X52309500Y-72643276D01*
%TO.C,R8*%
X53354500Y-107442724D02*
X53354500Y-106933276D01*
X52309500Y-107442724D02*
X52309500Y-106933276D01*
%TO.C,R7*%
X53354500Y-84940224D02*
X53354500Y-84430776D01*
X52309500Y-84940224D02*
X52309500Y-84430776D01*
%TO.C,R6*%
X53354500Y-96012724D02*
X53354500Y-95503276D01*
X52309500Y-96012724D02*
X52309500Y-95503276D01*
%TO.C,L5*%
X43435748Y-102818000D02*
X43958252Y-102818000D01*
X43435748Y-101398000D02*
X43958252Y-101398000D01*
%TO.C,L4*%
X43435748Y-79958000D02*
X43958252Y-79958000D01*
X43435748Y-78538000D02*
X43958252Y-78538000D01*
%TO.C,L3*%
X43435748Y-91388000D02*
X43958252Y-91388000D01*
X43435748Y-89968000D02*
X43958252Y-89968000D01*
%TO.C,U4*%
X79409500Y-96448000D02*
X78119500Y-96448000D01*
X79409500Y-96173000D02*
X79409500Y-96448000D01*
X81719500Y-96173000D02*
X79409500Y-96173000D01*
X84029500Y-96173000D02*
X84029500Y-96448000D01*
X81719500Y-96173000D02*
X84029500Y-96173000D01*
X79409500Y-106093000D02*
X79409500Y-105818000D01*
X81719500Y-106093000D02*
X79409500Y-106093000D01*
X84029500Y-106093000D02*
X84029500Y-105818000D01*
X81719500Y-106093000D02*
X84029500Y-106093000D01*
%TO.C,R3*%
X48092379Y-120268000D02*
X48427621Y-120268000D01*
X48092379Y-119508000D02*
X48427621Y-119508000D01*
%TO.C,R2*%
X48092379Y-122808000D02*
X48427621Y-122808000D01*
X48092379Y-122048000D02*
X48427621Y-122048000D01*
%TO.C,R1*%
X58887379Y-66547000D02*
X59222621Y-66547000D01*
X58887379Y-65787000D02*
X59222621Y-65787000D01*
%TO.C,L6*%
X43925748Y-68528000D02*
X44448252Y-68528000D01*
X43925748Y-67108000D02*
X44448252Y-67108000D01*
D14*
%TO.C,U2*%
X60833000Y-136131300D02*
X60833000Y-134124700D01*
X57531000Y-134124700D02*
X57531000Y-136131300D01*
%TO.C,U8*%
X48018700Y-74549000D02*
X50025300Y-74549000D01*
X50025300Y-71247000D02*
X48018700Y-71247000D01*
%TO.C,U1*%
X67171999Y-69048000D02*
X68972001Y-69048000D01*
X64771999Y-64048000D02*
X68972001Y-64048000D01*
%TO.C,U18*%
X103365300Y-83947000D02*
X101358700Y-83947000D01*
X101358700Y-87249000D02*
X103365300Y-87249000D01*
%TO.C,U17*%
X103365300Y-95967800D02*
X101358700Y-95967800D01*
X101358700Y-99269800D02*
X103365300Y-99269800D01*
%TO.C,U16*%
X63393800Y-57510499D02*
X63393800Y-55503899D01*
X60091800Y-55503899D02*
X60091800Y-57510499D01*
%TO.C,U15*%
X77343000Y-57391300D02*
X77343000Y-55384700D01*
X74041000Y-55384700D02*
X74041000Y-57391300D01*
%TO.C,U14*%
X91313000Y-56121300D02*
X91313000Y-54114700D01*
X88011000Y-54114700D02*
X88011000Y-56121300D01*
%TO.C,U13*%
X46101000Y-55384700D02*
X46101000Y-57391300D01*
X49403000Y-57391300D02*
X49403000Y-55384700D01*
%TO.C,U12*%
X101358700Y-111379000D02*
X103365300Y-111379000D01*
X103365300Y-108077000D02*
X101358700Y-108077000D01*
%TO.C,U11*%
X101358700Y-124079000D02*
X103365300Y-124079000D01*
X103365300Y-120777000D02*
X101358700Y-120777000D01*
%TO.C,U10*%
X85471000Y-134124700D02*
X85471000Y-136131300D01*
X88773000Y-136131300D02*
X88773000Y-134124700D01*
%TO.C,U9*%
X99441000Y-134124700D02*
X99441000Y-136131300D01*
X102743000Y-136131300D02*
X102743000Y-134124700D01*
%TO.C,U3*%
X74803000Y-136131300D02*
X74803000Y-134124700D01*
X71501000Y-134124700D02*
X71501000Y-136131300D01*
%TO.C,U7*%
X48018700Y-108839000D02*
X50025300Y-108839000D01*
X50025300Y-105537000D02*
X48018700Y-105537000D01*
%TO.C,U6*%
X48018700Y-85979000D02*
X50025300Y-85979000D01*
X50025300Y-82677000D02*
X48018700Y-82677000D01*
%TO.C,U5*%
X49920149Y-94107000D02*
X47913549Y-94107000D01*
X47913549Y-97409000D02*
X49920149Y-97409000D01*
%TO.C,C5*%
D11*
X64691142Y-66753166D02*
X64738761Y-66800785D01*
X64786380Y-66943642D01*
X64786380Y-67038880D01*
X64738761Y-67181738D01*
X64643523Y-67276976D01*
X64548285Y-67324595D01*
X64357809Y-67372214D01*
X64214952Y-67372214D01*
X64024476Y-67324595D01*
X63929238Y-67276976D01*
X63834000Y-67181738D01*
X63786380Y-67038880D01*
X63786380Y-66943642D01*
X63834000Y-66800785D01*
X63881619Y-66753166D01*
X63786380Y-65848404D02*
X63786380Y-66324595D01*
X64262571Y-66372214D01*
X64214952Y-66324595D01*
X64167333Y-66229357D01*
X64167333Y-65991261D01*
X64214952Y-65896023D01*
X64262571Y-65848404D01*
X64357809Y-65800785D01*
X64595904Y-65800785D01*
X64691142Y-65848404D01*
X64738761Y-65896023D01*
X64786380Y-65991261D01*
X64786380Y-66229357D01*
X64738761Y-66324595D01*
X64691142Y-66372214D01*
%TO.C,J5*%
X45386666Y-48982380D02*
X45386666Y-49696666D01*
X45339047Y-49839523D01*
X45243809Y-49934761D01*
X45100952Y-49982380D01*
X45005714Y-49982380D01*
X46339047Y-48982380D02*
X45862857Y-48982380D01*
X45815238Y-49458571D01*
X45862857Y-49410952D01*
X45958095Y-49363333D01*
X46196190Y-49363333D01*
X46291428Y-49410952D01*
X46339047Y-49458571D01*
X46386666Y-49553809D01*
X46386666Y-49791904D01*
X46339047Y-49887142D01*
X46291428Y-49934761D01*
X46196190Y-49982380D01*
X45958095Y-49982380D01*
X45862857Y-49934761D01*
X45815238Y-49887142D01*
X47752000Y-46696380D02*
X47752000Y-46934476D01*
X47513904Y-46839238D02*
X47752000Y-46934476D01*
X47990095Y-46839238D01*
X47609142Y-47124952D02*
X47752000Y-46934476D01*
X47894857Y-47124952D01*
%TO.C,J9*%
X109942380Y-94545331D02*
X110656666Y-94545331D01*
X110799523Y-94592950D01*
X110894761Y-94688188D01*
X110942380Y-94831045D01*
X110942380Y-94926283D01*
X110942380Y-94021521D02*
X110942380Y-93831045D01*
X110894761Y-93735807D01*
X110847142Y-93688188D01*
X110704285Y-93592950D01*
X110513809Y-93545331D01*
X110132857Y-93545331D01*
X110037619Y-93592950D01*
X109990000Y-93640569D01*
X109942380Y-93735807D01*
X109942380Y-93926283D01*
X109990000Y-94021521D01*
X110037619Y-94069140D01*
X110132857Y-94116759D01*
X110370952Y-94116759D01*
X110466190Y-94069140D01*
X110513809Y-94021521D01*
X110561428Y-93926283D01*
X110561428Y-93735807D01*
X110513809Y-93640569D01*
X110466190Y-93592950D01*
X110370952Y-93545331D01*
X112228380Y-96012000D02*
X112466476Y-96012000D01*
X112371238Y-96250095D02*
X112466476Y-96012000D01*
X112371238Y-95773904D01*
X112656952Y-96154857D02*
X112466476Y-96012000D01*
X112656952Y-95869142D01*
%TO.C,J6*%
X109942380Y-83623331D02*
X110656666Y-83623331D01*
X110799523Y-83670950D01*
X110894761Y-83766188D01*
X110942380Y-83909045D01*
X110942380Y-84004283D01*
X109942380Y-82718569D02*
X109942380Y-82909045D01*
X109990000Y-83004283D01*
X110037619Y-83051902D01*
X110180476Y-83147140D01*
X110370952Y-83194759D01*
X110751904Y-83194759D01*
X110847142Y-83147140D01*
X110894761Y-83099521D01*
X110942380Y-83004283D01*
X110942380Y-82813807D01*
X110894761Y-82718569D01*
X110847142Y-82670950D01*
X110751904Y-82623331D01*
X110513809Y-82623331D01*
X110418571Y-82670950D01*
X110370952Y-82718569D01*
X110323333Y-82813807D01*
X110323333Y-83004283D01*
X110370952Y-83099521D01*
X110418571Y-83147140D01*
X110513809Y-83194759D01*
X112228380Y-85090000D02*
X112466476Y-85090000D01*
X112371238Y-85328095D02*
X112466476Y-85090000D01*
X112371238Y-84851904D01*
X112656952Y-85232857D02*
X112466476Y-85090000D01*
X112656952Y-84947142D01*
%TO.C,J7*%
X88566666Y-48982380D02*
X88566666Y-49696666D01*
X88519047Y-49839523D01*
X88423809Y-49934761D01*
X88280952Y-49982380D01*
X88185714Y-49982380D01*
X88947619Y-48982380D02*
X89614285Y-48982380D01*
X89185714Y-49982380D01*
X90424000Y-46696380D02*
X90424000Y-46934476D01*
X90185904Y-46839238D02*
X90424000Y-46934476D01*
X90662095Y-46839238D01*
X90281142Y-47124952D02*
X90424000Y-46934476D01*
X90566857Y-47124952D01*
%TO.C,J8*%
X74244665Y-48982380D02*
X74244665Y-49696666D01*
X74197046Y-49839523D01*
X74101808Y-49934761D01*
X73958951Y-49982380D01*
X73863713Y-49982380D01*
X74863713Y-49410952D02*
X74768475Y-49363333D01*
X74720856Y-49315714D01*
X74673237Y-49220476D01*
X74673237Y-49172857D01*
X74720856Y-49077619D01*
X74768475Y-49030000D01*
X74863713Y-48982380D01*
X75054189Y-48982380D01*
X75149427Y-49030000D01*
X75197046Y-49077619D01*
X75244665Y-49172857D01*
X75244665Y-49220476D01*
X75197046Y-49315714D01*
X75149427Y-49363333D01*
X75054189Y-49410952D01*
X74863713Y-49410952D01*
X74768475Y-49458571D01*
X74720856Y-49506190D01*
X74673237Y-49601428D01*
X74673237Y-49791904D01*
X74720856Y-49887142D01*
X74768475Y-49934761D01*
X74863713Y-49982380D01*
X75054189Y-49982380D01*
X75149427Y-49934761D01*
X75197046Y-49887142D01*
X75244665Y-49791904D01*
X75244665Y-49601428D01*
X75197046Y-49506190D01*
X75149427Y-49458571D01*
X75054189Y-49410952D01*
X76378001Y-46915381D02*
X76378001Y-47153477D01*
X76139905Y-47058239D02*
X76378001Y-47153477D01*
X76616096Y-47058239D01*
X76235143Y-47343953D02*
X76378001Y-47153477D01*
X76520858Y-47343953D01*
%TO.C,J4*%
X59842664Y-48982380D02*
X59842664Y-49696666D01*
X59795045Y-49839523D01*
X59699807Y-49934761D01*
X59556950Y-49982380D01*
X59461712Y-49982380D01*
X60747426Y-49315714D02*
X60747426Y-49982380D01*
X60509331Y-48934761D02*
X60271236Y-49649047D01*
X60890283Y-49649047D01*
X61976000Y-46696380D02*
X61976000Y-46934476D01*
X61737904Y-46839238D02*
X61976000Y-46934476D01*
X62214095Y-46839238D01*
X61833142Y-47124952D02*
X61976000Y-46934476D01*
X62118857Y-47124952D01*
%TO.C,J13*%
X58880476Y-140422380D02*
X58880476Y-141136666D01*
X58832857Y-141279523D01*
X58737619Y-141374761D01*
X58594761Y-141422380D01*
X58499523Y-141422380D01*
X59880476Y-141422380D02*
X59309047Y-141422380D01*
X59594761Y-141422380D02*
X59594761Y-140422380D01*
X59499523Y-140565238D01*
X59404285Y-140660476D01*
X59309047Y-140708095D01*
X60213809Y-140422380D02*
X60832857Y-140422380D01*
X60499523Y-140803333D01*
X60642380Y-140803333D01*
X60737619Y-140850952D01*
X60785238Y-140898571D01*
X60832857Y-140993809D01*
X60832857Y-141231904D01*
X60785238Y-141327142D01*
X60737619Y-141374761D01*
X60642380Y-141422380D01*
X60356666Y-141422380D01*
X60261428Y-141374761D01*
X60213809Y-141327142D01*
X57912000Y-142708380D02*
X57912000Y-142946476D01*
X57673904Y-142851238D02*
X57912000Y-142946476D01*
X58150095Y-142851238D01*
X57769142Y-143136952D02*
X57912000Y-142946476D01*
X58054857Y-143136952D01*
%TO.C,J20*%
X43267380Y-122497525D02*
X43981666Y-122497525D01*
X44124523Y-122545144D01*
X44219761Y-122640382D01*
X44267380Y-122783240D01*
X44267380Y-122878478D01*
X43362619Y-122068954D02*
X43315000Y-122021335D01*
X43267380Y-121926097D01*
X43267380Y-121688002D01*
X43315000Y-121592763D01*
X43362619Y-121545144D01*
X43457857Y-121497525D01*
X43553095Y-121497525D01*
X43695952Y-121545144D01*
X44267380Y-122116573D01*
X44267380Y-121497525D01*
X43267380Y-120878478D02*
X43267380Y-120783240D01*
X43315000Y-120688002D01*
X43362619Y-120640382D01*
X43457857Y-120592763D01*
X43648333Y-120545144D01*
X43886428Y-120545144D01*
X44076904Y-120592763D01*
X44172142Y-120640382D01*
X44219761Y-120688002D01*
X44267380Y-120783240D01*
X44267380Y-120878478D01*
X44219761Y-120973716D01*
X44172142Y-121021335D01*
X44076904Y-121068954D01*
X43886428Y-121116573D01*
X43648333Y-121116573D01*
X43457857Y-121068954D01*
X43362619Y-121021335D01*
X43315000Y-120973716D01*
X43267380Y-120878478D01*
X40600380Y-119888000D02*
X40838476Y-119888000D01*
X40743238Y-120126095D02*
X40838476Y-119888000D01*
X40743238Y-119649904D01*
X41028952Y-120030857D02*
X40838476Y-119888000D01*
X41028952Y-119745142D01*
%TO.C,J19*%
X39457380Y-71824525D02*
X40171666Y-71824525D01*
X40314523Y-71872144D01*
X40409761Y-71967382D01*
X40457380Y-72110240D01*
X40457380Y-72205478D01*
X40457380Y-70824525D02*
X40457380Y-71395954D01*
X40457380Y-71110240D02*
X39457380Y-71110240D01*
X39600238Y-71205478D01*
X39695476Y-71300716D01*
X39743095Y-71395954D01*
X40457380Y-70348335D02*
X40457380Y-70157859D01*
X40409761Y-70062621D01*
X40362142Y-70015002D01*
X40219285Y-69919763D01*
X40028809Y-69872144D01*
X39647857Y-69872144D01*
X39552619Y-69919763D01*
X39505000Y-69967382D01*
X39457380Y-70062621D01*
X39457380Y-70253097D01*
X39505000Y-70348335D01*
X39552619Y-70395954D01*
X39647857Y-70443573D01*
X39885952Y-70443573D01*
X39981190Y-70395954D01*
X40028809Y-70348335D01*
X40076428Y-70253097D01*
X40076428Y-70062621D01*
X40028809Y-69967382D01*
X39981190Y-69919763D01*
X39885952Y-69872144D01*
X36917380Y-69215000D02*
X37155476Y-69215000D01*
X37060238Y-69453095D02*
X37155476Y-69215000D01*
X37060238Y-68976904D01*
X37345952Y-69357857D02*
X37155476Y-69215000D01*
X37345952Y-69072142D01*
%TO.C,J18*%
X39457380Y-106114525D02*
X40171666Y-106114525D01*
X40314523Y-106162144D01*
X40409761Y-106257382D01*
X40457380Y-106400240D01*
X40457380Y-106495478D01*
X40457380Y-105114525D02*
X40457380Y-105685954D01*
X40457380Y-105400240D02*
X39457380Y-105400240D01*
X39600238Y-105495478D01*
X39695476Y-105590716D01*
X39743095Y-105685954D01*
X39885952Y-104543097D02*
X39838333Y-104638335D01*
X39790714Y-104685954D01*
X39695476Y-104733573D01*
X39647857Y-104733573D01*
X39552619Y-104685954D01*
X39505000Y-104638335D01*
X39457380Y-104543097D01*
X39457380Y-104352621D01*
X39505000Y-104257382D01*
X39552619Y-104209763D01*
X39647857Y-104162144D01*
X39695476Y-104162144D01*
X39790714Y-104209763D01*
X39838333Y-104257382D01*
X39885952Y-104352621D01*
X39885952Y-104543097D01*
X39933571Y-104638335D01*
X39981190Y-104685954D01*
X40076428Y-104733573D01*
X40266904Y-104733573D01*
X40362142Y-104685954D01*
X40409761Y-104638335D01*
X40457380Y-104543097D01*
X40457380Y-104352621D01*
X40409761Y-104257382D01*
X40362142Y-104209763D01*
X40266904Y-104162144D01*
X40076428Y-104162144D01*
X39981190Y-104209763D01*
X39933571Y-104257382D01*
X39885952Y-104352621D01*
X36917380Y-103505000D02*
X37155476Y-103505000D01*
X37060238Y-103743095D02*
X37155476Y-103505000D01*
X37060238Y-103266904D01*
X37345952Y-103647857D02*
X37155476Y-103505000D01*
X37345952Y-103362142D01*
%TO.C,J17*%
X39457380Y-94684525D02*
X40171666Y-94684525D01*
X40314523Y-94732144D01*
X40409761Y-94827382D01*
X40457380Y-94970240D01*
X40457380Y-95065478D01*
X40457380Y-93684525D02*
X40457380Y-94255954D01*
X40457380Y-93970240D02*
X39457380Y-93970240D01*
X39600238Y-94065478D01*
X39695476Y-94160716D01*
X39743095Y-94255954D01*
X39457380Y-93351192D02*
X39457380Y-92684525D01*
X40457380Y-93113097D01*
X36917380Y-92075000D02*
X37155476Y-92075000D01*
X37060238Y-92313095D02*
X37155476Y-92075000D01*
X37060238Y-91836904D01*
X37345952Y-92217857D02*
X37155476Y-92075000D01*
X37345952Y-91932142D01*
%TO.C,J16*%
X39457380Y-83381525D02*
X40171666Y-83381525D01*
X40314523Y-83429144D01*
X40409761Y-83524382D01*
X40457380Y-83667240D01*
X40457380Y-83762478D01*
X40457380Y-82381525D02*
X40457380Y-82952954D01*
X40457380Y-82667240D02*
X39457380Y-82667240D01*
X39600238Y-82762478D01*
X39695476Y-82857716D01*
X39743095Y-82952954D01*
X39457380Y-81524382D02*
X39457380Y-81714859D01*
X39505000Y-81810097D01*
X39552619Y-81857716D01*
X39695476Y-81952954D01*
X39885952Y-82000573D01*
X40266904Y-82000573D01*
X40362142Y-81952954D01*
X40409761Y-81905335D01*
X40457380Y-81810097D01*
X40457380Y-81619621D01*
X40409761Y-81524382D01*
X40362142Y-81476763D01*
X40266904Y-81429144D01*
X40028809Y-81429144D01*
X39933571Y-81476763D01*
X39885952Y-81524382D01*
X39838333Y-81619621D01*
X39838333Y-81810097D01*
X39885952Y-81905335D01*
X39933571Y-81952954D01*
X40028809Y-82000573D01*
X36917380Y-80772000D02*
X37155476Y-80772000D01*
X37060238Y-81010095D02*
X37155476Y-80772000D01*
X37060238Y-80533904D01*
X37345952Y-80914857D02*
X37155476Y-80772000D01*
X37345952Y-80629142D01*
%TO.C,J15*%
X87350478Y-140422380D02*
X87350478Y-141136666D01*
X87302859Y-141279523D01*
X87207621Y-141374761D01*
X87064763Y-141422380D01*
X86969525Y-141422380D01*
X88350478Y-141422380D02*
X87779049Y-141422380D01*
X88064763Y-141422380D02*
X88064763Y-140422380D01*
X87969525Y-140565238D01*
X87874287Y-140660476D01*
X87779049Y-140708095D01*
X89255240Y-140422380D02*
X88779049Y-140422380D01*
X88731430Y-140898571D01*
X88779049Y-140850952D01*
X88874287Y-140803333D01*
X89112382Y-140803333D01*
X89207621Y-140850952D01*
X89255240Y-140898571D01*
X89302859Y-140993809D01*
X89302859Y-141231904D01*
X89255240Y-141327142D01*
X89207621Y-141374761D01*
X89112382Y-141422380D01*
X88874287Y-141422380D01*
X88779049Y-141374761D01*
X88731430Y-141327142D01*
X86360000Y-142708380D02*
X86360000Y-142946476D01*
X86121904Y-142851238D02*
X86360000Y-142946476D01*
X86598095Y-142851238D01*
X86217142Y-143136952D02*
X86360000Y-142946476D01*
X86502857Y-143136952D01*
%TO.C,J14*%
X72745478Y-140422380D02*
X72745478Y-141136666D01*
X72697859Y-141279523D01*
X72602621Y-141374761D01*
X72459763Y-141422380D01*
X72364525Y-141422380D01*
X73745478Y-141422380D02*
X73174049Y-141422380D01*
X73459763Y-141422380D02*
X73459763Y-140422380D01*
X73364525Y-140565238D01*
X73269287Y-140660476D01*
X73174049Y-140708095D01*
X74602621Y-140755714D02*
X74602621Y-141422380D01*
X74364525Y-140374761D02*
X74126430Y-141089047D01*
X74745478Y-141089047D01*
X71755000Y-142708380D02*
X71755000Y-142946476D01*
X71516904Y-142851238D02*
X71755000Y-142946476D01*
X71993095Y-142851238D01*
X71612142Y-143136952D02*
X71755000Y-142946476D01*
X71897857Y-143136952D01*
%TO.C,J12*%
X109942380Y-108759523D02*
X110656666Y-108759523D01*
X110799523Y-108807142D01*
X110894761Y-108902380D01*
X110942380Y-109045238D01*
X110942380Y-109140476D01*
X110942380Y-107759523D02*
X110942380Y-108330952D01*
X110942380Y-108045238D02*
X109942380Y-108045238D01*
X110085238Y-108140476D01*
X110180476Y-108235714D01*
X110228095Y-108330952D01*
X110037619Y-107378571D02*
X109990000Y-107330952D01*
X109942380Y-107235714D01*
X109942380Y-106997619D01*
X109990000Y-106902380D01*
X110037619Y-106854761D01*
X110132857Y-106807142D01*
X110228095Y-106807142D01*
X110370952Y-106854761D01*
X110942380Y-107426190D01*
X110942380Y-106807142D01*
X112228380Y-108712000D02*
X112466476Y-108712000D01*
X112371238Y-108950095D02*
X112466476Y-108712000D01*
X112371238Y-108473904D01*
X112656952Y-108854857D02*
X112466476Y-108712000D01*
X112656952Y-108569142D01*
%TO.C,J11*%
X109942380Y-121459523D02*
X110656666Y-121459523D01*
X110799523Y-121507142D01*
X110894761Y-121602380D01*
X110942380Y-121745238D01*
X110942380Y-121840476D01*
X110942380Y-120459523D02*
X110942380Y-121030952D01*
X110942380Y-120745238D02*
X109942380Y-120745238D01*
X110085238Y-120840476D01*
X110180476Y-120935714D01*
X110228095Y-121030952D01*
X110942380Y-119507142D02*
X110942380Y-120078571D01*
X110942380Y-119792857D02*
X109942380Y-119792857D01*
X110085238Y-119888095D01*
X110180476Y-119983333D01*
X110228095Y-120078571D01*
X112228380Y-121412000D02*
X112466476Y-121412000D01*
X112371238Y-121650095D02*
X112466476Y-121412000D01*
X112371238Y-121173904D01*
X112656952Y-121554857D02*
X112466476Y-121412000D01*
X112656952Y-121269142D01*
%TO.C,J10*%
X102082478Y-140422380D02*
X102082478Y-141136666D01*
X102034859Y-141279523D01*
X101939621Y-141374761D01*
X101796763Y-141422380D01*
X101701525Y-141422380D01*
X103082478Y-141422380D02*
X102511049Y-141422380D01*
X102796763Y-141422380D02*
X102796763Y-140422380D01*
X102701525Y-140565238D01*
X102606287Y-140660476D01*
X102511049Y-140708095D01*
X103701525Y-140422380D02*
X103796763Y-140422380D01*
X103892002Y-140470000D01*
X103939621Y-140517619D01*
X103987240Y-140612857D01*
X104034859Y-140803333D01*
X104034859Y-141041428D01*
X103987240Y-141231904D01*
X103939621Y-141327142D01*
X103892002Y-141374761D01*
X103796763Y-141422380D01*
X103701525Y-141422380D01*
X103606287Y-141374761D01*
X103558668Y-141327142D01*
X103511049Y-141231904D01*
X103463430Y-141041428D01*
X103463430Y-140803333D01*
X103511049Y-140612857D01*
X103558668Y-140517619D01*
X103606287Y-140470000D01*
X103701525Y-140422380D01*
X101092000Y-142708380D02*
X101092000Y-142946476D01*
X100853904Y-142851238D02*
X101092000Y-142946476D01*
X101330095Y-142851238D01*
X100949142Y-143136952D02*
X101092000Y-142946476D01*
X101234857Y-143136952D01*
%TO.C,D1*%
X58316904Y-63544380D02*
X58316904Y-62544380D01*
X58555000Y-62544380D01*
X58697857Y-62592000D01*
X58793095Y-62687238D01*
X58840714Y-62782476D01*
X58888333Y-62972952D01*
X58888333Y-63115809D01*
X58840714Y-63306285D01*
X58793095Y-63401523D01*
X58697857Y-63496761D01*
X58555000Y-63544380D01*
X58316904Y-63544380D01*
X59840714Y-63544380D02*
X59269285Y-63544380D01*
X59555000Y-63544380D02*
X59555000Y-62544380D01*
X59459761Y-62687238D01*
X59364523Y-62782476D01*
X59269285Y-62830095D01*
%TO.C,J1*%
X63928666Y-85260380D02*
X63928666Y-85974666D01*
X63881047Y-86117523D01*
X63785809Y-86212761D01*
X63642952Y-86260380D01*
X63547714Y-86260380D01*
X64928666Y-86260380D02*
X64357238Y-86260380D01*
X64642952Y-86260380D02*
X64642952Y-85260380D01*
X64547714Y-85403238D01*
X64452476Y-85498476D01*
X64357238Y-85546095D01*
%TO.C,RN1*%
D15*
X71022193Y-97499234D02*
X70417431Y-97922568D01*
X71022193Y-98224949D02*
X69752193Y-98224949D01*
X69752193Y-97741139D01*
X69812670Y-97620187D01*
X69873146Y-97559710D01*
X69994098Y-97499234D01*
X70175527Y-97499234D01*
X70296479Y-97559710D01*
X70356955Y-97620187D01*
X70417431Y-97741139D01*
X70417431Y-98224949D01*
X71022193Y-96954949D02*
X69752193Y-96954949D01*
X71022193Y-96229234D01*
X69752193Y-96229234D01*
X71022193Y-94959234D02*
X71022193Y-95684949D01*
X71022193Y-95322091D02*
X69752193Y-95322091D01*
X69933622Y-95443044D01*
X70054574Y-95563996D01*
X70115050Y-95684949D01*
%TO.C,R19*%
D11*
X105194380Y-86240857D02*
X104718190Y-86574190D01*
X105194380Y-86812285D02*
X104194380Y-86812285D01*
X104194380Y-86431333D01*
X104242000Y-86336095D01*
X104289619Y-86288476D01*
X104384857Y-86240857D01*
X104527714Y-86240857D01*
X104622952Y-86288476D01*
X104670571Y-86336095D01*
X104718190Y-86431333D01*
X104718190Y-86812285D01*
X105194380Y-85288476D02*
X105194380Y-85859904D01*
X105194380Y-85574190D02*
X104194380Y-85574190D01*
X104337238Y-85669428D01*
X104432476Y-85764666D01*
X104480095Y-85859904D01*
X105194380Y-84812285D02*
X105194380Y-84621809D01*
X105146761Y-84526571D01*
X105099142Y-84478952D01*
X104956285Y-84383714D01*
X104765809Y-84336095D01*
X104384857Y-84336095D01*
X104289619Y-84383714D01*
X104242000Y-84431333D01*
X104194380Y-84526571D01*
X104194380Y-84717047D01*
X104242000Y-84812285D01*
X104289619Y-84859904D01*
X104384857Y-84907523D01*
X104622952Y-84907523D01*
X104718190Y-84859904D01*
X104765809Y-84812285D01*
X104813428Y-84717047D01*
X104813428Y-84526571D01*
X104765809Y-84431333D01*
X104718190Y-84383714D01*
X104622952Y-84336095D01*
%TO.C,R18*%
X105194380Y-98583357D02*
X104718190Y-98916690D01*
X105194380Y-99154785D02*
X104194380Y-99154785D01*
X104194380Y-98773833D01*
X104242000Y-98678595D01*
X104289619Y-98630976D01*
X104384857Y-98583357D01*
X104527714Y-98583357D01*
X104622952Y-98630976D01*
X104670571Y-98678595D01*
X104718190Y-98773833D01*
X104718190Y-99154785D01*
X105194380Y-97630976D02*
X105194380Y-98202404D01*
X105194380Y-97916690D02*
X104194380Y-97916690D01*
X104337238Y-98011928D01*
X104432476Y-98107166D01*
X104480095Y-98202404D01*
X104622952Y-97059547D02*
X104575333Y-97154785D01*
X104527714Y-97202404D01*
X104432476Y-97250023D01*
X104384857Y-97250023D01*
X104289619Y-97202404D01*
X104242000Y-97154785D01*
X104194380Y-97059547D01*
X104194380Y-96869071D01*
X104242000Y-96773833D01*
X104289619Y-96726214D01*
X104384857Y-96678595D01*
X104432476Y-96678595D01*
X104527714Y-96726214D01*
X104575333Y-96773833D01*
X104622952Y-96869071D01*
X104622952Y-97059547D01*
X104670571Y-97154785D01*
X104718190Y-97202404D01*
X104813428Y-97250023D01*
X105003904Y-97250023D01*
X105099142Y-97202404D01*
X105146761Y-97154785D01*
X105194380Y-97059547D01*
X105194380Y-96869071D01*
X105146761Y-96773833D01*
X105099142Y-96726214D01*
X105003904Y-96678595D01*
X104813428Y-96678595D01*
X104718190Y-96726214D01*
X104670571Y-96773833D01*
X104622952Y-96869071D01*
%TO.C,R17*%
X61079142Y-54460380D02*
X60745809Y-53984190D01*
X60507714Y-54460380D02*
X60507714Y-53460380D01*
X60888666Y-53460380D01*
X60983904Y-53508000D01*
X61031523Y-53555619D01*
X61079142Y-53650857D01*
X61079142Y-53793714D01*
X61031523Y-53888952D01*
X60983904Y-53936571D01*
X60888666Y-53984190D01*
X60507714Y-53984190D01*
X62031523Y-54460380D02*
X61460095Y-54460380D01*
X61745809Y-54460380D02*
X61745809Y-53460380D01*
X61650571Y-53603238D01*
X61555333Y-53698476D01*
X61460095Y-53746095D01*
X62364857Y-53460380D02*
X63031523Y-53460380D01*
X62602952Y-54460380D01*
%TO.C,R16*%
X75049142Y-53190380D02*
X74715809Y-52714190D01*
X74477714Y-53190380D02*
X74477714Y-52190380D01*
X74858666Y-52190380D01*
X74953904Y-52238000D01*
X75001523Y-52285619D01*
X75049142Y-52380857D01*
X75049142Y-52523714D01*
X75001523Y-52618952D01*
X74953904Y-52666571D01*
X74858666Y-52714190D01*
X74477714Y-52714190D01*
X76001523Y-53190380D02*
X75430095Y-53190380D01*
X75715809Y-53190380D02*
X75715809Y-52190380D01*
X75620571Y-52333238D01*
X75525333Y-52428476D01*
X75430095Y-52476095D01*
X76858666Y-52190380D02*
X76668190Y-52190380D01*
X76572952Y-52238000D01*
X76525333Y-52285619D01*
X76430095Y-52428476D01*
X76382476Y-52618952D01*
X76382476Y-52999904D01*
X76430095Y-53095142D01*
X76477714Y-53142761D01*
X76572952Y-53190380D01*
X76763428Y-53190380D01*
X76858666Y-53142761D01*
X76906285Y-53095142D01*
X76953904Y-52999904D01*
X76953904Y-52761809D01*
X76906285Y-52666571D01*
X76858666Y-52618952D01*
X76763428Y-52571333D01*
X76572952Y-52571333D01*
X76477714Y-52618952D01*
X76430095Y-52666571D01*
X76382476Y-52761809D01*
%TO.C,R15*%
X89019142Y-53190380D02*
X88685809Y-52714190D01*
X88447714Y-53190380D02*
X88447714Y-52190380D01*
X88828666Y-52190380D01*
X88923904Y-52238000D01*
X88971523Y-52285619D01*
X89019142Y-52380857D01*
X89019142Y-52523714D01*
X88971523Y-52618952D01*
X88923904Y-52666571D01*
X88828666Y-52714190D01*
X88447714Y-52714190D01*
X89971523Y-53190380D02*
X89400095Y-53190380D01*
X89685809Y-53190380D02*
X89685809Y-52190380D01*
X89590571Y-52333238D01*
X89495333Y-52428476D01*
X89400095Y-52476095D01*
X90876285Y-52190380D02*
X90400095Y-52190380D01*
X90352476Y-52666571D01*
X90400095Y-52618952D01*
X90495333Y-52571333D01*
X90733428Y-52571333D01*
X90828666Y-52618952D01*
X90876285Y-52666571D01*
X90923904Y-52761809D01*
X90923904Y-52999904D01*
X90876285Y-53095142D01*
X90828666Y-53142761D01*
X90733428Y-53190380D01*
X90495333Y-53190380D01*
X90400095Y-53142761D01*
X90352476Y-53095142D01*
%TO.C,R14*%
X47109142Y-54460380D02*
X46775809Y-53984190D01*
X46537714Y-54460380D02*
X46537714Y-53460380D01*
X46918666Y-53460380D01*
X47013904Y-53508000D01*
X47061523Y-53555619D01*
X47109142Y-53650857D01*
X47109142Y-53793714D01*
X47061523Y-53888952D01*
X47013904Y-53936571D01*
X46918666Y-53984190D01*
X46537714Y-53984190D01*
X48061523Y-54460380D02*
X47490095Y-54460380D01*
X47775809Y-54460380D02*
X47775809Y-53460380D01*
X47680571Y-53603238D01*
X47585333Y-53698476D01*
X47490095Y-53746095D01*
X48918666Y-53793714D02*
X48918666Y-54460380D01*
X48680571Y-53412761D02*
X48442476Y-54127047D01*
X49061523Y-54127047D01*
%TO.C,R13*%
X105194380Y-110370857D02*
X104718190Y-110704190D01*
X105194380Y-110942285D02*
X104194380Y-110942285D01*
X104194380Y-110561333D01*
X104242000Y-110466095D01*
X104289619Y-110418476D01*
X104384857Y-110370857D01*
X104527714Y-110370857D01*
X104622952Y-110418476D01*
X104670571Y-110466095D01*
X104718190Y-110561333D01*
X104718190Y-110942285D01*
X105194380Y-109418476D02*
X105194380Y-109989904D01*
X105194380Y-109704190D02*
X104194380Y-109704190D01*
X104337238Y-109799428D01*
X104432476Y-109894666D01*
X104480095Y-109989904D01*
X104194380Y-109085142D02*
X104194380Y-108466095D01*
X104575333Y-108799428D01*
X104575333Y-108656571D01*
X104622952Y-108561333D01*
X104670571Y-108513714D01*
X104765809Y-108466095D01*
X105003904Y-108466095D01*
X105099142Y-108513714D01*
X105146761Y-108561333D01*
X105194380Y-108656571D01*
X105194380Y-108942285D01*
X105146761Y-109037523D01*
X105099142Y-109085142D01*
%TO.C,R12*%
X105194380Y-123070857D02*
X104718190Y-123404190D01*
X105194380Y-123642285D02*
X104194380Y-123642285D01*
X104194380Y-123261333D01*
X104242000Y-123166095D01*
X104289619Y-123118476D01*
X104384857Y-123070857D01*
X104527714Y-123070857D01*
X104622952Y-123118476D01*
X104670571Y-123166095D01*
X104718190Y-123261333D01*
X104718190Y-123642285D01*
X105194380Y-122118476D02*
X105194380Y-122689904D01*
X105194380Y-122404190D02*
X104194380Y-122404190D01*
X104337238Y-122499428D01*
X104432476Y-122594666D01*
X104480095Y-122689904D01*
X104289619Y-121737523D02*
X104242000Y-121689904D01*
X104194380Y-121594666D01*
X104194380Y-121356571D01*
X104242000Y-121261333D01*
X104289619Y-121213714D01*
X104384857Y-121166095D01*
X104480095Y-121166095D01*
X104622952Y-121213714D01*
X105194380Y-121785142D01*
X105194380Y-121166095D01*
%TO.C,R11*%
X86479142Y-137960380D02*
X86145809Y-137484190D01*
X85907714Y-137960380D02*
X85907714Y-136960380D01*
X86288666Y-136960380D01*
X86383904Y-137008000D01*
X86431523Y-137055619D01*
X86479142Y-137150857D01*
X86479142Y-137293714D01*
X86431523Y-137388952D01*
X86383904Y-137436571D01*
X86288666Y-137484190D01*
X85907714Y-137484190D01*
X87431523Y-137960380D02*
X86860095Y-137960380D01*
X87145809Y-137960380D02*
X87145809Y-136960380D01*
X87050571Y-137103238D01*
X86955333Y-137198476D01*
X86860095Y-137246095D01*
X88383904Y-137960380D02*
X87812476Y-137960380D01*
X88098190Y-137960380D02*
X88098190Y-136960380D01*
X88002952Y-137103238D01*
X87907714Y-137198476D01*
X87812476Y-137246095D01*
%TO.C,R10*%
X100449142Y-137960380D02*
X100115809Y-137484190D01*
X99877714Y-137960380D02*
X99877714Y-136960380D01*
X100258666Y-136960380D01*
X100353904Y-137008000D01*
X100401523Y-137055619D01*
X100449142Y-137150857D01*
X100449142Y-137293714D01*
X100401523Y-137388952D01*
X100353904Y-137436571D01*
X100258666Y-137484190D01*
X99877714Y-137484190D01*
X101401523Y-137960380D02*
X100830095Y-137960380D01*
X101115809Y-137960380D02*
X101115809Y-136960380D01*
X101020571Y-137103238D01*
X100925333Y-137198476D01*
X100830095Y-137246095D01*
X102020571Y-136960380D02*
X102115809Y-136960380D01*
X102211047Y-137008000D01*
X102258666Y-137055619D01*
X102306285Y-137150857D01*
X102353904Y-137341333D01*
X102353904Y-137579428D01*
X102306285Y-137769904D01*
X102258666Y-137865142D01*
X102211047Y-137912761D01*
X102115809Y-137960380D01*
X102020571Y-137960380D01*
X101925333Y-137912761D01*
X101877714Y-137865142D01*
X101830095Y-137769904D01*
X101782476Y-137579428D01*
X101782476Y-137341333D01*
X101830095Y-137150857D01*
X101877714Y-137055619D01*
X101925333Y-137008000D01*
X102020571Y-136960380D01*
%TO.C,L16*%
X97664142Y-78050380D02*
X97187952Y-78050380D01*
X97187952Y-77050380D01*
X98521285Y-78050380D02*
X97949857Y-78050380D01*
X98235571Y-78050380D02*
X98235571Y-77050380D01*
X98140333Y-77193238D01*
X98045095Y-77288476D01*
X97949857Y-77336095D01*
X99378428Y-77050380D02*
X99187952Y-77050380D01*
X99092714Y-77098000D01*
X99045095Y-77145619D01*
X98949857Y-77288476D01*
X98902238Y-77478952D01*
X98902238Y-77859904D01*
X98949857Y-77955142D01*
X98997476Y-78002761D01*
X99092714Y-78050380D01*
X99283190Y-78050380D01*
X99378428Y-78002761D01*
X99426047Y-77955142D01*
X99473666Y-77859904D01*
X99473666Y-77621809D01*
X99426047Y-77526571D01*
X99378428Y-77478952D01*
X99283190Y-77431333D01*
X99092714Y-77431333D01*
X98997476Y-77478952D01*
X98949857Y-77526571D01*
X98902238Y-77621809D01*
%TO.C,L15*%
X97664142Y-90750380D02*
X97187952Y-90750380D01*
X97187952Y-89750380D01*
X98521285Y-90750380D02*
X97949857Y-90750380D01*
X98235571Y-90750380D02*
X98235571Y-89750380D01*
X98140333Y-89893238D01*
X98045095Y-89988476D01*
X97949857Y-90036095D01*
X99426047Y-89750380D02*
X98949857Y-89750380D01*
X98902238Y-90226571D01*
X98949857Y-90178952D01*
X99045095Y-90131333D01*
X99283190Y-90131333D01*
X99378428Y-90178952D01*
X99426047Y-90226571D01*
X99473666Y-90321809D01*
X99473666Y-90559904D01*
X99426047Y-90655142D01*
X99378428Y-90702761D01*
X99283190Y-90750380D01*
X99045095Y-90750380D01*
X98949857Y-90702761D01*
X98902238Y-90655142D01*
%TO.C,L14*%
X55444380Y-61085857D02*
X55444380Y-61562047D01*
X54444380Y-61562047D01*
X55444380Y-60228714D02*
X55444380Y-60800142D01*
X55444380Y-60514428D02*
X54444380Y-60514428D01*
X54587238Y-60609666D01*
X54682476Y-60704904D01*
X54730095Y-60800142D01*
X54777714Y-59371571D02*
X55444380Y-59371571D01*
X54396761Y-59609666D02*
X55111047Y-59847761D01*
X55111047Y-59228714D01*
%TO.C,L13*%
X69414380Y-61085857D02*
X69414380Y-61562047D01*
X68414380Y-61562047D01*
X69414380Y-60228714D02*
X69414380Y-60800142D01*
X69414380Y-60514428D02*
X68414380Y-60514428D01*
X68557238Y-60609666D01*
X68652476Y-60704904D01*
X68700095Y-60800142D01*
X68414380Y-59895380D02*
X68414380Y-59276333D01*
X68795333Y-59609666D01*
X68795333Y-59466809D01*
X68842952Y-59371571D01*
X68890571Y-59323952D01*
X68985809Y-59276333D01*
X69223904Y-59276333D01*
X69319142Y-59323952D01*
X69366761Y-59371571D01*
X69414380Y-59466809D01*
X69414380Y-59752523D01*
X69366761Y-59847761D01*
X69319142Y-59895380D01*
%TO.C,L12*%
X83384380Y-59815857D02*
X83384380Y-60292047D01*
X82384380Y-60292047D01*
X83384380Y-58958714D02*
X83384380Y-59530142D01*
X83384380Y-59244428D02*
X82384380Y-59244428D01*
X82527238Y-59339666D01*
X82622476Y-59434904D01*
X82670095Y-59530142D01*
X82479619Y-58577761D02*
X82432000Y-58530142D01*
X82384380Y-58434904D01*
X82384380Y-58196809D01*
X82432000Y-58101571D01*
X82479619Y-58053952D01*
X82574857Y-58006333D01*
X82670095Y-58006333D01*
X82812952Y-58053952D01*
X83384380Y-58625380D01*
X83384380Y-58006333D01*
%TO.C,L11*%
X41474380Y-61085857D02*
X41474380Y-61562047D01*
X40474380Y-61562047D01*
X41474380Y-60228714D02*
X41474380Y-60800142D01*
X41474380Y-60514428D02*
X40474380Y-60514428D01*
X40617238Y-60609666D01*
X40712476Y-60704904D01*
X40760095Y-60800142D01*
X41474380Y-59276333D02*
X41474380Y-59847761D01*
X41474380Y-59562047D02*
X40474380Y-59562047D01*
X40617238Y-59657285D01*
X40712476Y-59752523D01*
X40760095Y-59847761D01*
%TO.C,L10*%
X97664142Y-103450380D02*
X97187952Y-103450380D01*
X97187952Y-102450380D01*
X98521285Y-103450380D02*
X97949857Y-103450380D01*
X98235571Y-103450380D02*
X98235571Y-102450380D01*
X98140333Y-102593238D01*
X98045095Y-102688476D01*
X97949857Y-102736095D01*
X99140333Y-102450380D02*
X99235571Y-102450380D01*
X99330809Y-102498000D01*
X99378428Y-102545619D01*
X99426047Y-102640857D01*
X99473666Y-102831333D01*
X99473666Y-103069428D01*
X99426047Y-103259904D01*
X99378428Y-103355142D01*
X99330809Y-103402761D01*
X99235571Y-103450380D01*
X99140333Y-103450380D01*
X99045095Y-103402761D01*
X98997476Y-103355142D01*
X98949857Y-103259904D01*
X98902238Y-103069428D01*
X98902238Y-102831333D01*
X98949857Y-102640857D01*
X98997476Y-102545619D01*
X99045095Y-102498000D01*
X99140333Y-102450380D01*
%TO.C,L9*%
X98140333Y-116150380D02*
X97664142Y-116150380D01*
X97664142Y-115150380D01*
X98521285Y-116150380D02*
X98711761Y-116150380D01*
X98807000Y-116102761D01*
X98854619Y-116055142D01*
X98949857Y-115912285D01*
X98997476Y-115721809D01*
X98997476Y-115340857D01*
X98949857Y-115245619D01*
X98902238Y-115198000D01*
X98807000Y-115150380D01*
X98616523Y-115150380D01*
X98521285Y-115198000D01*
X98473666Y-115245619D01*
X98426047Y-115340857D01*
X98426047Y-115578952D01*
X98473666Y-115674190D01*
X98521285Y-115721809D01*
X98616523Y-115769428D01*
X98807000Y-115769428D01*
X98902238Y-115721809D01*
X98949857Y-115674190D01*
X98997476Y-115578952D01*
%TO.C,L8*%
X94304380Y-131484666D02*
X94304380Y-131960857D01*
X93304380Y-131960857D01*
X93732952Y-131008476D02*
X93685333Y-131103714D01*
X93637714Y-131151333D01*
X93542476Y-131198952D01*
X93494857Y-131198952D01*
X93399619Y-131151333D01*
X93352000Y-131103714D01*
X93304380Y-131008476D01*
X93304380Y-130818000D01*
X93352000Y-130722761D01*
X93399619Y-130675142D01*
X93494857Y-130627523D01*
X93542476Y-130627523D01*
X93637714Y-130675142D01*
X93685333Y-130722761D01*
X93732952Y-130818000D01*
X93732952Y-131008476D01*
X93780571Y-131103714D01*
X93828190Y-131151333D01*
X93923428Y-131198952D01*
X94113904Y-131198952D01*
X94209142Y-131151333D01*
X94256761Y-131103714D01*
X94304380Y-131008476D01*
X94304380Y-130818000D01*
X94256761Y-130722761D01*
X94209142Y-130675142D01*
X94113904Y-130627523D01*
X93923428Y-130627523D01*
X93828190Y-130675142D01*
X93780571Y-130722761D01*
X93732952Y-130818000D01*
%TO.C,L7*%
X108274380Y-131239666D02*
X108274380Y-131715857D01*
X107274380Y-131715857D01*
X107274380Y-131001571D02*
X107274380Y-130334904D01*
X108274380Y-130763476D01*
%TO.C,C39*%
X102989142Y-77755142D02*
X102941523Y-77802761D01*
X102798666Y-77850380D01*
X102703428Y-77850380D01*
X102560571Y-77802761D01*
X102465333Y-77707523D01*
X102417714Y-77612285D01*
X102370095Y-77421809D01*
X102370095Y-77278952D01*
X102417714Y-77088476D01*
X102465333Y-76993238D01*
X102560571Y-76898000D01*
X102703428Y-76850380D01*
X102798666Y-76850380D01*
X102941523Y-76898000D01*
X102989142Y-76945619D01*
X103322476Y-76850380D02*
X103941523Y-76850380D01*
X103608190Y-77231333D01*
X103751047Y-77231333D01*
X103846285Y-77278952D01*
X103893904Y-77326571D01*
X103941523Y-77421809D01*
X103941523Y-77659904D01*
X103893904Y-77755142D01*
X103846285Y-77802761D01*
X103751047Y-77850380D01*
X103465333Y-77850380D01*
X103370095Y-77802761D01*
X103322476Y-77755142D01*
X104417714Y-77850380D02*
X104608190Y-77850380D01*
X104703428Y-77802761D01*
X104751047Y-77755142D01*
X104846285Y-77612285D01*
X104893904Y-77421809D01*
X104893904Y-77040857D01*
X104846285Y-76945619D01*
X104798666Y-76898000D01*
X104703428Y-76850380D01*
X104512952Y-76850380D01*
X104417714Y-76898000D01*
X104370095Y-76945619D01*
X104322476Y-77040857D01*
X104322476Y-77278952D01*
X104370095Y-77374190D01*
X104417714Y-77421809D01*
X104512952Y-77469428D01*
X104703428Y-77469428D01*
X104798666Y-77421809D01*
X104846285Y-77374190D01*
X104893904Y-77278952D01*
%TO.C,C38*%
X102989142Y-90455142D02*
X102941523Y-90502761D01*
X102798666Y-90550380D01*
X102703428Y-90550380D01*
X102560571Y-90502761D01*
X102465333Y-90407523D01*
X102417714Y-90312285D01*
X102370095Y-90121809D01*
X102370095Y-89978952D01*
X102417714Y-89788476D01*
X102465333Y-89693238D01*
X102560571Y-89598000D01*
X102703428Y-89550380D01*
X102798666Y-89550380D01*
X102941523Y-89598000D01*
X102989142Y-89645619D01*
X103322476Y-89550380D02*
X103941523Y-89550380D01*
X103608190Y-89931333D01*
X103751047Y-89931333D01*
X103846285Y-89978952D01*
X103893904Y-90026571D01*
X103941523Y-90121809D01*
X103941523Y-90359904D01*
X103893904Y-90455142D01*
X103846285Y-90502761D01*
X103751047Y-90550380D01*
X103465333Y-90550380D01*
X103370095Y-90502761D01*
X103322476Y-90455142D01*
X104512952Y-89978952D02*
X104417714Y-89931333D01*
X104370095Y-89883714D01*
X104322476Y-89788476D01*
X104322476Y-89740857D01*
X104370095Y-89645619D01*
X104417714Y-89598000D01*
X104512952Y-89550380D01*
X104703428Y-89550380D01*
X104798666Y-89598000D01*
X104846285Y-89645619D01*
X104893904Y-89740857D01*
X104893904Y-89788476D01*
X104846285Y-89883714D01*
X104798666Y-89931333D01*
X104703428Y-89978952D01*
X104512952Y-89978952D01*
X104417714Y-90026571D01*
X104370095Y-90074190D01*
X104322476Y-90169428D01*
X104322476Y-90359904D01*
X104370095Y-90455142D01*
X104417714Y-90502761D01*
X104512952Y-90550380D01*
X104703428Y-90550380D01*
X104798666Y-90502761D01*
X104846285Y-90455142D01*
X104893904Y-90359904D01*
X104893904Y-90169428D01*
X104846285Y-90074190D01*
X104798666Y-90026571D01*
X104703428Y-89978952D01*
%TO.C,C37*%
X55149142Y-55760857D02*
X55196761Y-55808476D01*
X55244380Y-55951333D01*
X55244380Y-56046571D01*
X55196761Y-56189428D01*
X55101523Y-56284666D01*
X55006285Y-56332285D01*
X54815809Y-56379904D01*
X54672952Y-56379904D01*
X54482476Y-56332285D01*
X54387238Y-56284666D01*
X54292000Y-56189428D01*
X54244380Y-56046571D01*
X54244380Y-55951333D01*
X54292000Y-55808476D01*
X54339619Y-55760857D01*
X54244380Y-55427523D02*
X54244380Y-54808476D01*
X54625333Y-55141809D01*
X54625333Y-54998952D01*
X54672952Y-54903714D01*
X54720571Y-54856095D01*
X54815809Y-54808476D01*
X55053904Y-54808476D01*
X55149142Y-54856095D01*
X55196761Y-54903714D01*
X55244380Y-54998952D01*
X55244380Y-55284666D01*
X55196761Y-55379904D01*
X55149142Y-55427523D01*
X54244380Y-54475142D02*
X54244380Y-53808476D01*
X55244380Y-54237047D01*
%TO.C,C36*%
X69119142Y-55760857D02*
X69166761Y-55808476D01*
X69214380Y-55951333D01*
X69214380Y-56046571D01*
X69166761Y-56189428D01*
X69071523Y-56284666D01*
X68976285Y-56332285D01*
X68785809Y-56379904D01*
X68642952Y-56379904D01*
X68452476Y-56332285D01*
X68357238Y-56284666D01*
X68262000Y-56189428D01*
X68214380Y-56046571D01*
X68214380Y-55951333D01*
X68262000Y-55808476D01*
X68309619Y-55760857D01*
X68214380Y-55427523D02*
X68214380Y-54808476D01*
X68595333Y-55141809D01*
X68595333Y-54998952D01*
X68642952Y-54903714D01*
X68690571Y-54856095D01*
X68785809Y-54808476D01*
X69023904Y-54808476D01*
X69119142Y-54856095D01*
X69166761Y-54903714D01*
X69214380Y-54998952D01*
X69214380Y-55284666D01*
X69166761Y-55379904D01*
X69119142Y-55427523D01*
X68214380Y-53951333D02*
X68214380Y-54141809D01*
X68262000Y-54237047D01*
X68309619Y-54284666D01*
X68452476Y-54379904D01*
X68642952Y-54427523D01*
X69023904Y-54427523D01*
X69119142Y-54379904D01*
X69166761Y-54332285D01*
X69214380Y-54237047D01*
X69214380Y-54046571D01*
X69166761Y-53951333D01*
X69119142Y-53903714D01*
X69023904Y-53856095D01*
X68785809Y-53856095D01*
X68690571Y-53903714D01*
X68642952Y-53951333D01*
X68595333Y-54046571D01*
X68595333Y-54237047D01*
X68642952Y-54332285D01*
X68690571Y-54379904D01*
X68785809Y-54427523D01*
%TO.C,C35*%
X83089142Y-54490857D02*
X83136761Y-54538476D01*
X83184380Y-54681333D01*
X83184380Y-54776571D01*
X83136761Y-54919428D01*
X83041523Y-55014666D01*
X82946285Y-55062285D01*
X82755809Y-55109904D01*
X82612952Y-55109904D01*
X82422476Y-55062285D01*
X82327238Y-55014666D01*
X82232000Y-54919428D01*
X82184380Y-54776571D01*
X82184380Y-54681333D01*
X82232000Y-54538476D01*
X82279619Y-54490857D01*
X82184380Y-54157523D02*
X82184380Y-53538476D01*
X82565333Y-53871809D01*
X82565333Y-53728952D01*
X82612952Y-53633714D01*
X82660571Y-53586095D01*
X82755809Y-53538476D01*
X82993904Y-53538476D01*
X83089142Y-53586095D01*
X83136761Y-53633714D01*
X83184380Y-53728952D01*
X83184380Y-54014666D01*
X83136761Y-54109904D01*
X83089142Y-54157523D01*
X82184380Y-52633714D02*
X82184380Y-53109904D01*
X82660571Y-53157523D01*
X82612952Y-53109904D01*
X82565333Y-53014666D01*
X82565333Y-52776571D01*
X82612952Y-52681333D01*
X82660571Y-52633714D01*
X82755809Y-52586095D01*
X82993904Y-52586095D01*
X83089142Y-52633714D01*
X83136761Y-52681333D01*
X83184380Y-52776571D01*
X83184380Y-53014666D01*
X83136761Y-53109904D01*
X83089142Y-53157523D01*
%TO.C,C34*%
X95789142Y-86240857D02*
X95836761Y-86288476D01*
X95884380Y-86431333D01*
X95884380Y-86526571D01*
X95836761Y-86669428D01*
X95741523Y-86764666D01*
X95646285Y-86812285D01*
X95455809Y-86859904D01*
X95312952Y-86859904D01*
X95122476Y-86812285D01*
X95027238Y-86764666D01*
X94932000Y-86669428D01*
X94884380Y-86526571D01*
X94884380Y-86431333D01*
X94932000Y-86288476D01*
X94979619Y-86240857D01*
X94884380Y-85907523D02*
X94884380Y-85288476D01*
X95265333Y-85621809D01*
X95265333Y-85478952D01*
X95312952Y-85383714D01*
X95360571Y-85336095D01*
X95455809Y-85288476D01*
X95693904Y-85288476D01*
X95789142Y-85336095D01*
X95836761Y-85383714D01*
X95884380Y-85478952D01*
X95884380Y-85764666D01*
X95836761Y-85859904D01*
X95789142Y-85907523D01*
X95217714Y-84431333D02*
X95884380Y-84431333D01*
X94836761Y-84669428D02*
X95551047Y-84907523D01*
X95551047Y-84288476D01*
%TO.C,C33*%
X95789142Y-97963357D02*
X95836761Y-98010976D01*
X95884380Y-98153833D01*
X95884380Y-98249071D01*
X95836761Y-98391928D01*
X95741523Y-98487166D01*
X95646285Y-98534785D01*
X95455809Y-98582404D01*
X95312952Y-98582404D01*
X95122476Y-98534785D01*
X95027238Y-98487166D01*
X94932000Y-98391928D01*
X94884380Y-98249071D01*
X94884380Y-98153833D01*
X94932000Y-98010976D01*
X94979619Y-97963357D01*
X94884380Y-97630023D02*
X94884380Y-97010976D01*
X95265333Y-97344309D01*
X95265333Y-97201452D01*
X95312952Y-97106214D01*
X95360571Y-97058595D01*
X95455809Y-97010976D01*
X95693904Y-97010976D01*
X95789142Y-97058595D01*
X95836761Y-97106214D01*
X95884380Y-97201452D01*
X95884380Y-97487166D01*
X95836761Y-97582404D01*
X95789142Y-97630023D01*
X94884380Y-96677642D02*
X94884380Y-96058595D01*
X95265333Y-96391928D01*
X95265333Y-96249071D01*
X95312952Y-96153833D01*
X95360571Y-96106214D01*
X95455809Y-96058595D01*
X95693904Y-96058595D01*
X95789142Y-96106214D01*
X95836761Y-96153833D01*
X95884380Y-96249071D01*
X95884380Y-96534785D01*
X95836761Y-96630023D01*
X95789142Y-96677642D01*
%TO.C,C32*%
X61079142Y-63675142D02*
X61031523Y-63722761D01*
X60888666Y-63770380D01*
X60793428Y-63770380D01*
X60650571Y-63722761D01*
X60555333Y-63627523D01*
X60507714Y-63532285D01*
X60460095Y-63341809D01*
X60460095Y-63198952D01*
X60507714Y-63008476D01*
X60555333Y-62913238D01*
X60650571Y-62818000D01*
X60793428Y-62770380D01*
X60888666Y-62770380D01*
X61031523Y-62818000D01*
X61079142Y-62865619D01*
X61412476Y-62770380D02*
X62031523Y-62770380D01*
X61698190Y-63151333D01*
X61841047Y-63151333D01*
X61936285Y-63198952D01*
X61983904Y-63246571D01*
X62031523Y-63341809D01*
X62031523Y-63579904D01*
X61983904Y-63675142D01*
X61936285Y-63722761D01*
X61841047Y-63770380D01*
X61555333Y-63770380D01*
X61460095Y-63722761D01*
X61412476Y-63675142D01*
X62412476Y-62865619D02*
X62460095Y-62818000D01*
X62555333Y-62770380D01*
X62793428Y-62770380D01*
X62888666Y-62818000D01*
X62936285Y-62865619D01*
X62983904Y-62960857D01*
X62983904Y-63056095D01*
X62936285Y-63198952D01*
X62364857Y-63770380D01*
X62983904Y-63770380D01*
%TO.C,C31*%
X75049142Y-63675142D02*
X75001523Y-63722761D01*
X74858666Y-63770380D01*
X74763428Y-63770380D01*
X74620571Y-63722761D01*
X74525333Y-63627523D01*
X74477714Y-63532285D01*
X74430095Y-63341809D01*
X74430095Y-63198952D01*
X74477714Y-63008476D01*
X74525333Y-62913238D01*
X74620571Y-62818000D01*
X74763428Y-62770380D01*
X74858666Y-62770380D01*
X75001523Y-62818000D01*
X75049142Y-62865619D01*
X75382476Y-62770380D02*
X76001523Y-62770380D01*
X75668190Y-63151333D01*
X75811047Y-63151333D01*
X75906285Y-63198952D01*
X75953904Y-63246571D01*
X76001523Y-63341809D01*
X76001523Y-63579904D01*
X75953904Y-63675142D01*
X75906285Y-63722761D01*
X75811047Y-63770380D01*
X75525333Y-63770380D01*
X75430095Y-63722761D01*
X75382476Y-63675142D01*
X76953904Y-63770380D02*
X76382476Y-63770380D01*
X76668190Y-63770380D02*
X76668190Y-62770380D01*
X76572952Y-62913238D01*
X76477714Y-63008476D01*
X76382476Y-63056095D01*
%TO.C,C30*%
X89019142Y-62405142D02*
X88971523Y-62452761D01*
X88828666Y-62500380D01*
X88733428Y-62500380D01*
X88590571Y-62452761D01*
X88495333Y-62357523D01*
X88447714Y-62262285D01*
X88400095Y-62071809D01*
X88400095Y-61928952D01*
X88447714Y-61738476D01*
X88495333Y-61643238D01*
X88590571Y-61548000D01*
X88733428Y-61500380D01*
X88828666Y-61500380D01*
X88971523Y-61548000D01*
X89019142Y-61595619D01*
X89352476Y-61500380D02*
X89971523Y-61500380D01*
X89638190Y-61881333D01*
X89781047Y-61881333D01*
X89876285Y-61928952D01*
X89923904Y-61976571D01*
X89971523Y-62071809D01*
X89971523Y-62309904D01*
X89923904Y-62405142D01*
X89876285Y-62452761D01*
X89781047Y-62500380D01*
X89495333Y-62500380D01*
X89400095Y-62452761D01*
X89352476Y-62405142D01*
X90590571Y-61500380D02*
X90685809Y-61500380D01*
X90781047Y-61548000D01*
X90828666Y-61595619D01*
X90876285Y-61690857D01*
X90923904Y-61881333D01*
X90923904Y-62119428D01*
X90876285Y-62309904D01*
X90828666Y-62405142D01*
X90781047Y-62452761D01*
X90685809Y-62500380D01*
X90590571Y-62500380D01*
X90495333Y-62452761D01*
X90447714Y-62405142D01*
X90400095Y-62309904D01*
X90352476Y-62119428D01*
X90352476Y-61881333D01*
X90400095Y-61690857D01*
X90447714Y-61595619D01*
X90495333Y-61548000D01*
X90590571Y-61500380D01*
%TO.C,C29*%
X41179142Y-55468357D02*
X41226761Y-55515976D01*
X41274380Y-55658833D01*
X41274380Y-55754071D01*
X41226761Y-55896928D01*
X41131523Y-55992166D01*
X41036285Y-56039785D01*
X40845809Y-56087404D01*
X40702952Y-56087404D01*
X40512476Y-56039785D01*
X40417238Y-55992166D01*
X40322000Y-55896928D01*
X40274380Y-55754071D01*
X40274380Y-55658833D01*
X40322000Y-55515976D01*
X40369619Y-55468357D01*
X40369619Y-55087404D02*
X40322000Y-55039785D01*
X40274380Y-54944547D01*
X40274380Y-54706452D01*
X40322000Y-54611214D01*
X40369619Y-54563595D01*
X40464857Y-54515976D01*
X40560095Y-54515976D01*
X40702952Y-54563595D01*
X41274380Y-55135023D01*
X41274380Y-54515976D01*
X41274380Y-54039785D02*
X41274380Y-53849309D01*
X41226761Y-53754071D01*
X41179142Y-53706452D01*
X41036285Y-53611214D01*
X40845809Y-53563595D01*
X40464857Y-53563595D01*
X40369619Y-53611214D01*
X40322000Y-53658833D01*
X40274380Y-53754071D01*
X40274380Y-53944547D01*
X40322000Y-54039785D01*
X40369619Y-54087404D01*
X40464857Y-54135023D01*
X40702952Y-54135023D01*
X40798190Y-54087404D01*
X40845809Y-54039785D01*
X40893428Y-53944547D01*
X40893428Y-53754071D01*
X40845809Y-53658833D01*
X40798190Y-53611214D01*
X40702952Y-53563595D01*
%TO.C,C28*%
X103281642Y-103155142D02*
X103234023Y-103202761D01*
X103091166Y-103250380D01*
X102995928Y-103250380D01*
X102853071Y-103202761D01*
X102757833Y-103107523D01*
X102710214Y-103012285D01*
X102662595Y-102821809D01*
X102662595Y-102678952D01*
X102710214Y-102488476D01*
X102757833Y-102393238D01*
X102853071Y-102298000D01*
X102995928Y-102250380D01*
X103091166Y-102250380D01*
X103234023Y-102298000D01*
X103281642Y-102345619D01*
X103662595Y-102345619D02*
X103710214Y-102298000D01*
X103805452Y-102250380D01*
X104043547Y-102250380D01*
X104138785Y-102298000D01*
X104186404Y-102345619D01*
X104234023Y-102440857D01*
X104234023Y-102536095D01*
X104186404Y-102678952D01*
X103614976Y-103250380D01*
X104234023Y-103250380D01*
X104805452Y-102678952D02*
X104710214Y-102631333D01*
X104662595Y-102583714D01*
X104614976Y-102488476D01*
X104614976Y-102440857D01*
X104662595Y-102345619D01*
X104710214Y-102298000D01*
X104805452Y-102250380D01*
X104995928Y-102250380D01*
X105091166Y-102298000D01*
X105138785Y-102345619D01*
X105186404Y-102440857D01*
X105186404Y-102488476D01*
X105138785Y-102583714D01*
X105091166Y-102631333D01*
X104995928Y-102678952D01*
X104805452Y-102678952D01*
X104710214Y-102726571D01*
X104662595Y-102774190D01*
X104614976Y-102869428D01*
X104614976Y-103059904D01*
X104662595Y-103155142D01*
X104710214Y-103202761D01*
X104805452Y-103250380D01*
X104995928Y-103250380D01*
X105091166Y-103202761D01*
X105138785Y-103155142D01*
X105186404Y-103059904D01*
X105186404Y-102869428D01*
X105138785Y-102774190D01*
X105091166Y-102726571D01*
X104995928Y-102678952D01*
%TO.C,C27*%
X103281642Y-115855142D02*
X103234023Y-115902761D01*
X103091166Y-115950380D01*
X102995928Y-115950380D01*
X102853071Y-115902761D01*
X102757833Y-115807523D01*
X102710214Y-115712285D01*
X102662595Y-115521809D01*
X102662595Y-115378952D01*
X102710214Y-115188476D01*
X102757833Y-115093238D01*
X102853071Y-114998000D01*
X102995928Y-114950380D01*
X103091166Y-114950380D01*
X103234023Y-114998000D01*
X103281642Y-115045619D01*
X103662595Y-115045619D02*
X103710214Y-114998000D01*
X103805452Y-114950380D01*
X104043547Y-114950380D01*
X104138785Y-114998000D01*
X104186404Y-115045619D01*
X104234023Y-115140857D01*
X104234023Y-115236095D01*
X104186404Y-115378952D01*
X103614976Y-115950380D01*
X104234023Y-115950380D01*
X104567357Y-114950380D02*
X105234023Y-114950380D01*
X104805452Y-115950380D01*
%TO.C,C26*%
X90709142Y-137333357D02*
X90756761Y-137380976D01*
X90804380Y-137523833D01*
X90804380Y-137619071D01*
X90756761Y-137761928D01*
X90661523Y-137857166D01*
X90566285Y-137904785D01*
X90375809Y-137952404D01*
X90232952Y-137952404D01*
X90042476Y-137904785D01*
X89947238Y-137857166D01*
X89852000Y-137761928D01*
X89804380Y-137619071D01*
X89804380Y-137523833D01*
X89852000Y-137380976D01*
X89899619Y-137333357D01*
X89899619Y-136952404D02*
X89852000Y-136904785D01*
X89804380Y-136809547D01*
X89804380Y-136571452D01*
X89852000Y-136476214D01*
X89899619Y-136428595D01*
X89994857Y-136380976D01*
X90090095Y-136380976D01*
X90232952Y-136428595D01*
X90804380Y-137000023D01*
X90804380Y-136380976D01*
X89804380Y-135523833D02*
X89804380Y-135714309D01*
X89852000Y-135809547D01*
X89899619Y-135857166D01*
X90042476Y-135952404D01*
X90232952Y-136000023D01*
X90613904Y-136000023D01*
X90709142Y-135952404D01*
X90756761Y-135904785D01*
X90804380Y-135809547D01*
X90804380Y-135619071D01*
X90756761Y-135523833D01*
X90709142Y-135476214D01*
X90613904Y-135428595D01*
X90375809Y-135428595D01*
X90280571Y-135476214D01*
X90232952Y-135523833D01*
X90185333Y-135619071D01*
X90185333Y-135809547D01*
X90232952Y-135904785D01*
X90280571Y-135952404D01*
X90375809Y-136000023D01*
%TO.C,C25*%
X108379142Y-136748357D02*
X108426761Y-136795976D01*
X108474380Y-136938833D01*
X108474380Y-137034071D01*
X108426761Y-137176928D01*
X108331523Y-137272166D01*
X108236285Y-137319785D01*
X108045809Y-137367404D01*
X107902952Y-137367404D01*
X107712476Y-137319785D01*
X107617238Y-137272166D01*
X107522000Y-137176928D01*
X107474380Y-137034071D01*
X107474380Y-136938833D01*
X107522000Y-136795976D01*
X107569619Y-136748357D01*
X107569619Y-136367404D02*
X107522000Y-136319785D01*
X107474380Y-136224547D01*
X107474380Y-135986452D01*
X107522000Y-135891214D01*
X107569619Y-135843595D01*
X107664857Y-135795976D01*
X107760095Y-135795976D01*
X107902952Y-135843595D01*
X108474380Y-136415023D01*
X108474380Y-135795976D01*
X107474380Y-134891214D02*
X107474380Y-135367404D01*
X107950571Y-135415023D01*
X107902952Y-135367404D01*
X107855333Y-135272166D01*
X107855333Y-135034071D01*
X107902952Y-134938833D01*
X107950571Y-134891214D01*
X108045809Y-134843595D01*
X108283904Y-134843595D01*
X108379142Y-134891214D01*
X108426761Y-134938833D01*
X108474380Y-135034071D01*
X108474380Y-135272166D01*
X108426761Y-135367404D01*
X108379142Y-135415023D01*
%TO.C,C23*%
X47401642Y-63675142D02*
X47354023Y-63722761D01*
X47211166Y-63770380D01*
X47115928Y-63770380D01*
X46973071Y-63722761D01*
X46877833Y-63627523D01*
X46830214Y-63532285D01*
X46782595Y-63341809D01*
X46782595Y-63198952D01*
X46830214Y-63008476D01*
X46877833Y-62913238D01*
X46973071Y-62818000D01*
X47115928Y-62770380D01*
X47211166Y-62770380D01*
X47354023Y-62818000D01*
X47401642Y-62865619D01*
X47782595Y-62865619D02*
X47830214Y-62818000D01*
X47925452Y-62770380D01*
X48163547Y-62770380D01*
X48258785Y-62818000D01*
X48306404Y-62865619D01*
X48354023Y-62960857D01*
X48354023Y-63056095D01*
X48306404Y-63198952D01*
X47734976Y-63770380D01*
X48354023Y-63770380D01*
X48687357Y-62770380D02*
X49306404Y-62770380D01*
X48973071Y-63151333D01*
X49115928Y-63151333D01*
X49211166Y-63198952D01*
X49258785Y-63246571D01*
X49306404Y-63341809D01*
X49306404Y-63579904D01*
X49258785Y-63675142D01*
X49211166Y-63722761D01*
X49115928Y-63770380D01*
X48830214Y-63770380D01*
X48734976Y-63722761D01*
X48687357Y-63675142D01*
%TO.C,C22*%
X95789142Y-110370857D02*
X95836761Y-110418476D01*
X95884380Y-110561333D01*
X95884380Y-110656571D01*
X95836761Y-110799428D01*
X95741523Y-110894666D01*
X95646285Y-110942285D01*
X95455809Y-110989904D01*
X95312952Y-110989904D01*
X95122476Y-110942285D01*
X95027238Y-110894666D01*
X94932000Y-110799428D01*
X94884380Y-110656571D01*
X94884380Y-110561333D01*
X94932000Y-110418476D01*
X94979619Y-110370857D01*
X94979619Y-109989904D02*
X94932000Y-109942285D01*
X94884380Y-109847047D01*
X94884380Y-109608952D01*
X94932000Y-109513714D01*
X94979619Y-109466095D01*
X95074857Y-109418476D01*
X95170095Y-109418476D01*
X95312952Y-109466095D01*
X95884380Y-110037523D01*
X95884380Y-109418476D01*
X94979619Y-109037523D02*
X94932000Y-108989904D01*
X94884380Y-108894666D01*
X94884380Y-108656571D01*
X94932000Y-108561333D01*
X94979619Y-108513714D01*
X95074857Y-108466095D01*
X95170095Y-108466095D01*
X95312952Y-108513714D01*
X95884380Y-109085142D01*
X95884380Y-108466095D01*
%TO.C,C21*%
X95789142Y-123363357D02*
X95836761Y-123410976D01*
X95884380Y-123553833D01*
X95884380Y-123649071D01*
X95836761Y-123791928D01*
X95741523Y-123887166D01*
X95646285Y-123934785D01*
X95455809Y-123982404D01*
X95312952Y-123982404D01*
X95122476Y-123934785D01*
X95027238Y-123887166D01*
X94932000Y-123791928D01*
X94884380Y-123649071D01*
X94884380Y-123553833D01*
X94932000Y-123410976D01*
X94979619Y-123363357D01*
X94979619Y-122982404D02*
X94932000Y-122934785D01*
X94884380Y-122839547D01*
X94884380Y-122601452D01*
X94932000Y-122506214D01*
X94979619Y-122458595D01*
X95074857Y-122410976D01*
X95170095Y-122410976D01*
X95312952Y-122458595D01*
X95884380Y-123030023D01*
X95884380Y-122410976D01*
X95884380Y-121458595D02*
X95884380Y-122030023D01*
X95884380Y-121744309D02*
X94884380Y-121744309D01*
X95027238Y-121839547D01*
X95122476Y-121934785D01*
X95170095Y-122030023D01*
%TO.C,C20*%
X86479142Y-128555142D02*
X86431523Y-128602761D01*
X86288666Y-128650380D01*
X86193428Y-128650380D01*
X86050571Y-128602761D01*
X85955333Y-128507523D01*
X85907714Y-128412285D01*
X85860095Y-128221809D01*
X85860095Y-128078952D01*
X85907714Y-127888476D01*
X85955333Y-127793238D01*
X86050571Y-127698000D01*
X86193428Y-127650380D01*
X86288666Y-127650380D01*
X86431523Y-127698000D01*
X86479142Y-127745619D01*
X86860095Y-127745619D02*
X86907714Y-127698000D01*
X87002952Y-127650380D01*
X87241047Y-127650380D01*
X87336285Y-127698000D01*
X87383904Y-127745619D01*
X87431523Y-127840857D01*
X87431523Y-127936095D01*
X87383904Y-128078952D01*
X86812476Y-128650380D01*
X87431523Y-128650380D01*
X88050571Y-127650380D02*
X88145809Y-127650380D01*
X88241047Y-127698000D01*
X88288666Y-127745619D01*
X88336285Y-127840857D01*
X88383904Y-128031333D01*
X88383904Y-128269428D01*
X88336285Y-128459904D01*
X88288666Y-128555142D01*
X88241047Y-128602761D01*
X88145809Y-128650380D01*
X88050571Y-128650380D01*
X87955333Y-128602761D01*
X87907714Y-128555142D01*
X87860095Y-128459904D01*
X87812476Y-128269428D01*
X87812476Y-128031333D01*
X87860095Y-127840857D01*
X87907714Y-127745619D01*
X87955333Y-127698000D01*
X88050571Y-127650380D01*
%TO.C,C18*%
X100449142Y-128555142D02*
X100401523Y-128602761D01*
X100258666Y-128650380D01*
X100163428Y-128650380D01*
X100020571Y-128602761D01*
X99925333Y-128507523D01*
X99877714Y-128412285D01*
X99830095Y-128221809D01*
X99830095Y-128078952D01*
X99877714Y-127888476D01*
X99925333Y-127793238D01*
X100020571Y-127698000D01*
X100163428Y-127650380D01*
X100258666Y-127650380D01*
X100401523Y-127698000D01*
X100449142Y-127745619D01*
X101401523Y-128650380D02*
X100830095Y-128650380D01*
X101115809Y-128650380D02*
X101115809Y-127650380D01*
X101020571Y-127793238D01*
X100925333Y-127888476D01*
X100830095Y-127936095D01*
X101972952Y-128078952D02*
X101877714Y-128031333D01*
X101830095Y-127983714D01*
X101782476Y-127888476D01*
X101782476Y-127840857D01*
X101830095Y-127745619D01*
X101877714Y-127698000D01*
X101972952Y-127650380D01*
X102163428Y-127650380D01*
X102258666Y-127698000D01*
X102306285Y-127745619D01*
X102353904Y-127840857D01*
X102353904Y-127888476D01*
X102306285Y-127983714D01*
X102258666Y-128031333D01*
X102163428Y-128078952D01*
X101972952Y-128078952D01*
X101877714Y-128126571D01*
X101830095Y-128174190D01*
X101782476Y-128269428D01*
X101782476Y-128459904D01*
X101830095Y-128555142D01*
X101877714Y-128602761D01*
X101972952Y-128650380D01*
X102163428Y-128650380D01*
X102258666Y-128602761D01*
X102306285Y-128555142D01*
X102353904Y-128459904D01*
X102353904Y-128269428D01*
X102306285Y-128174190D01*
X102258666Y-128126571D01*
X102163428Y-128078952D01*
%TO.C,R5*%
X72627833Y-137960380D02*
X72294500Y-137484190D01*
X72056404Y-137960380D02*
X72056404Y-136960380D01*
X72437357Y-136960380D01*
X72532595Y-137008000D01*
X72580214Y-137055619D01*
X72627833Y-137150857D01*
X72627833Y-137293714D01*
X72580214Y-137388952D01*
X72532595Y-137436571D01*
X72437357Y-137484190D01*
X72056404Y-137484190D01*
X73532595Y-136960380D02*
X73056404Y-136960380D01*
X73008785Y-137436571D01*
X73056404Y-137388952D01*
X73151642Y-137341333D01*
X73389738Y-137341333D01*
X73484976Y-137388952D01*
X73532595Y-137436571D01*
X73580214Y-137531809D01*
X73580214Y-137769904D01*
X73532595Y-137865142D01*
X73484976Y-137912761D01*
X73389738Y-137960380D01*
X73151642Y-137960380D01*
X73056404Y-137912761D01*
X73008785Y-137865142D01*
%TO.C,R4*%
X59015333Y-137960380D02*
X58682000Y-137484190D01*
X58443904Y-137960380D02*
X58443904Y-136960380D01*
X58824857Y-136960380D01*
X58920095Y-137008000D01*
X58967714Y-137055619D01*
X59015333Y-137150857D01*
X59015333Y-137293714D01*
X58967714Y-137388952D01*
X58920095Y-137436571D01*
X58824857Y-137484190D01*
X58443904Y-137484190D01*
X59872476Y-137293714D02*
X59872476Y-137960380D01*
X59634380Y-136912761D02*
X59396285Y-137627047D01*
X60015333Y-137627047D01*
%TO.C,L2*%
X80334380Y-131484666D02*
X80334380Y-131960857D01*
X79334380Y-131960857D01*
X79429619Y-131198952D02*
X79382000Y-131151333D01*
X79334380Y-131056095D01*
X79334380Y-130818000D01*
X79382000Y-130722761D01*
X79429619Y-130675142D01*
X79524857Y-130627523D01*
X79620095Y-130627523D01*
X79762952Y-130675142D01*
X80334380Y-131246571D01*
X80334380Y-130627523D01*
%TO.C,L1*%
X66364380Y-131484666D02*
X66364380Y-131960857D01*
X65364380Y-131960857D01*
X66364380Y-130627523D02*
X66364380Y-131198952D01*
X66364380Y-130913238D02*
X65364380Y-130913238D01*
X65507238Y-131008476D01*
X65602476Y-131103714D01*
X65650095Y-131198952D01*
%TO.C,C9*%
X76739142Y-136564666D02*
X76786761Y-136612285D01*
X76834380Y-136755142D01*
X76834380Y-136850380D01*
X76786761Y-136993238D01*
X76691523Y-137088476D01*
X76596285Y-137136095D01*
X76405809Y-137183714D01*
X76262952Y-137183714D01*
X76072476Y-137136095D01*
X75977238Y-137088476D01*
X75882000Y-136993238D01*
X75834380Y-136850380D01*
X75834380Y-136755142D01*
X75882000Y-136612285D01*
X75929619Y-136564666D01*
X76834380Y-136088476D02*
X76834380Y-135898000D01*
X76786761Y-135802761D01*
X76739142Y-135755142D01*
X76596285Y-135659904D01*
X76405809Y-135612285D01*
X76024857Y-135612285D01*
X75929619Y-135659904D01*
X75882000Y-135707523D01*
X75834380Y-135802761D01*
X75834380Y-135993238D01*
X75882000Y-136088476D01*
X75929619Y-136136095D01*
X76024857Y-136183714D01*
X76262952Y-136183714D01*
X76358190Y-136136095D01*
X76405809Y-136088476D01*
X76453428Y-135993238D01*
X76453428Y-135802761D01*
X76405809Y-135707523D01*
X76358190Y-135659904D01*
X76262952Y-135612285D01*
%TO.C,C8*%
X62769142Y-136564666D02*
X62816761Y-136612285D01*
X62864380Y-136755142D01*
X62864380Y-136850380D01*
X62816761Y-136993238D01*
X62721523Y-137088476D01*
X62626285Y-137136095D01*
X62435809Y-137183714D01*
X62292952Y-137183714D01*
X62102476Y-137136095D01*
X62007238Y-137088476D01*
X61912000Y-136993238D01*
X61864380Y-136850380D01*
X61864380Y-136755142D01*
X61912000Y-136612285D01*
X61959619Y-136564666D01*
X62292952Y-135993238D02*
X62245333Y-136088476D01*
X62197714Y-136136095D01*
X62102476Y-136183714D01*
X62054857Y-136183714D01*
X61959619Y-136136095D01*
X61912000Y-136088476D01*
X61864380Y-135993238D01*
X61864380Y-135802761D01*
X61912000Y-135707523D01*
X61959619Y-135659904D01*
X62054857Y-135612285D01*
X62102476Y-135612285D01*
X62197714Y-135659904D01*
X62245333Y-135707523D01*
X62292952Y-135802761D01*
X62292952Y-135993238D01*
X62340571Y-136088476D01*
X62388190Y-136136095D01*
X62483428Y-136183714D01*
X62673904Y-136183714D01*
X62769142Y-136136095D01*
X62816761Y-136088476D01*
X62864380Y-135993238D01*
X62864380Y-135802761D01*
X62816761Y-135707523D01*
X62769142Y-135659904D01*
X62673904Y-135612285D01*
X62483428Y-135612285D01*
X62388190Y-135659904D01*
X62340571Y-135707523D01*
X62292952Y-135802761D01*
%TO.C,C7*%
X73277833Y-128555142D02*
X73230214Y-128602761D01*
X73087357Y-128650380D01*
X72992119Y-128650380D01*
X72849261Y-128602761D01*
X72754023Y-128507523D01*
X72706404Y-128412285D01*
X72658785Y-128221809D01*
X72658785Y-128078952D01*
X72706404Y-127888476D01*
X72754023Y-127793238D01*
X72849261Y-127698000D01*
X72992119Y-127650380D01*
X73087357Y-127650380D01*
X73230214Y-127698000D01*
X73277833Y-127745619D01*
X73611166Y-127650380D02*
X74277833Y-127650380D01*
X73849261Y-128650380D01*
%TO.C,C6*%
X59015333Y-128555142D02*
X58967714Y-128602761D01*
X58824857Y-128650380D01*
X58729619Y-128650380D01*
X58586761Y-128602761D01*
X58491523Y-128507523D01*
X58443904Y-128412285D01*
X58396285Y-128221809D01*
X58396285Y-128078952D01*
X58443904Y-127888476D01*
X58491523Y-127793238D01*
X58586761Y-127698000D01*
X58729619Y-127650380D01*
X58824857Y-127650380D01*
X58967714Y-127698000D01*
X59015333Y-127745619D01*
X59872476Y-127650380D02*
X59682000Y-127650380D01*
X59586761Y-127698000D01*
X59539142Y-127745619D01*
X59443904Y-127888476D01*
X59396285Y-128078952D01*
X59396285Y-128459904D01*
X59443904Y-128555142D01*
X59491523Y-128602761D01*
X59586761Y-128650380D01*
X59777238Y-128650380D01*
X59872476Y-128602761D01*
X59920095Y-128555142D01*
X59967714Y-128459904D01*
X59967714Y-128221809D01*
X59920095Y-128126571D01*
X59872476Y-128078952D01*
X59777238Y-128031333D01*
X59586761Y-128031333D01*
X59491523Y-128078952D01*
X59443904Y-128126571D01*
X59396285Y-128221809D01*
%TO.C,C16*%
X49649142Y-100615142D02*
X49601523Y-100662761D01*
X49458666Y-100710380D01*
X49363428Y-100710380D01*
X49220571Y-100662761D01*
X49125333Y-100567523D01*
X49077714Y-100472285D01*
X49030095Y-100281809D01*
X49030095Y-100138952D01*
X49077714Y-99948476D01*
X49125333Y-99853238D01*
X49220571Y-99758000D01*
X49363428Y-99710380D01*
X49458666Y-99710380D01*
X49601523Y-99758000D01*
X49649142Y-99805619D01*
X50601523Y-100710380D02*
X50030095Y-100710380D01*
X50315809Y-100710380D02*
X50315809Y-99710380D01*
X50220571Y-99853238D01*
X50125333Y-99948476D01*
X50030095Y-99996095D01*
X51458666Y-99710380D02*
X51268190Y-99710380D01*
X51172952Y-99758000D01*
X51125333Y-99805619D01*
X51030095Y-99948476D01*
X50982476Y-100138952D01*
X50982476Y-100519904D01*
X51030095Y-100615142D01*
X51077714Y-100662761D01*
X51172952Y-100710380D01*
X51363428Y-100710380D01*
X51458666Y-100662761D01*
X51506285Y-100615142D01*
X51553904Y-100519904D01*
X51553904Y-100281809D01*
X51506285Y-100186571D01*
X51458666Y-100138952D01*
X51363428Y-100091333D01*
X51172952Y-100091333D01*
X51077714Y-100138952D01*
X51030095Y-100186571D01*
X50982476Y-100281809D01*
%TO.C,C15*%
X49356642Y-77755142D02*
X49309023Y-77802761D01*
X49166166Y-77850380D01*
X49070928Y-77850380D01*
X48928071Y-77802761D01*
X48832833Y-77707523D01*
X48785214Y-77612285D01*
X48737595Y-77421809D01*
X48737595Y-77278952D01*
X48785214Y-77088476D01*
X48832833Y-76993238D01*
X48928071Y-76898000D01*
X49070928Y-76850380D01*
X49166166Y-76850380D01*
X49309023Y-76898000D01*
X49356642Y-76945619D01*
X50309023Y-77850380D02*
X49737595Y-77850380D01*
X50023309Y-77850380D02*
X50023309Y-76850380D01*
X49928071Y-76993238D01*
X49832833Y-77088476D01*
X49737595Y-77136095D01*
X51213785Y-76850380D02*
X50737595Y-76850380D01*
X50689976Y-77326571D01*
X50737595Y-77278952D01*
X50832833Y-77231333D01*
X51070928Y-77231333D01*
X51166166Y-77278952D01*
X51213785Y-77326571D01*
X51261404Y-77421809D01*
X51261404Y-77659904D01*
X51213785Y-77755142D01*
X51166166Y-77802761D01*
X51070928Y-77850380D01*
X50832833Y-77850380D01*
X50737595Y-77802761D01*
X50689976Y-77755142D01*
%TO.C,C14*%
X49356642Y-89185142D02*
X49309023Y-89232761D01*
X49166166Y-89280380D01*
X49070928Y-89280380D01*
X48928071Y-89232761D01*
X48832833Y-89137523D01*
X48785214Y-89042285D01*
X48737595Y-88851809D01*
X48737595Y-88708952D01*
X48785214Y-88518476D01*
X48832833Y-88423238D01*
X48928071Y-88328000D01*
X49070928Y-88280380D01*
X49166166Y-88280380D01*
X49309023Y-88328000D01*
X49356642Y-88375619D01*
X50309023Y-89280380D02*
X49737595Y-89280380D01*
X50023309Y-89280380D02*
X50023309Y-88280380D01*
X49928071Y-88423238D01*
X49832833Y-88518476D01*
X49737595Y-88566095D01*
X51166166Y-88613714D02*
X51166166Y-89280380D01*
X50928071Y-88232761D02*
X50689976Y-88947047D01*
X51309023Y-88947047D01*
%TO.C,C3*%
X86899142Y-66714666D02*
X86946761Y-66762285D01*
X86994380Y-66905142D01*
X86994380Y-67000380D01*
X86946761Y-67143238D01*
X86851523Y-67238476D01*
X86756285Y-67286095D01*
X86565809Y-67333714D01*
X86422952Y-67333714D01*
X86232476Y-67286095D01*
X86137238Y-67238476D01*
X86042000Y-67143238D01*
X85994380Y-67000380D01*
X85994380Y-66905142D01*
X86042000Y-66762285D01*
X86089619Y-66714666D01*
X85994380Y-66381333D02*
X85994380Y-65762285D01*
X86375333Y-66095619D01*
X86375333Y-65952761D01*
X86422952Y-65857523D01*
X86470571Y-65809904D01*
X86565809Y-65762285D01*
X86803904Y-65762285D01*
X86899142Y-65809904D01*
X86946761Y-65857523D01*
X86994380Y-65952761D01*
X86994380Y-66238476D01*
X86946761Y-66333714D01*
X86899142Y-66381333D01*
%TO.C,C12*%
X42449142Y-107830857D02*
X42496761Y-107878476D01*
X42544380Y-108021333D01*
X42544380Y-108116571D01*
X42496761Y-108259428D01*
X42401523Y-108354666D01*
X42306285Y-108402285D01*
X42115809Y-108449904D01*
X41972952Y-108449904D01*
X41782476Y-108402285D01*
X41687238Y-108354666D01*
X41592000Y-108259428D01*
X41544380Y-108116571D01*
X41544380Y-108021333D01*
X41592000Y-107878476D01*
X41639619Y-107830857D01*
X42544380Y-106878476D02*
X42544380Y-107449904D01*
X42544380Y-107164190D02*
X41544380Y-107164190D01*
X41687238Y-107259428D01*
X41782476Y-107354666D01*
X41830095Y-107449904D01*
X41639619Y-106497523D02*
X41592000Y-106449904D01*
X41544380Y-106354666D01*
X41544380Y-106116571D01*
X41592000Y-106021333D01*
X41639619Y-105973714D01*
X41734857Y-105926095D01*
X41830095Y-105926095D01*
X41972952Y-105973714D01*
X42544380Y-106545142D01*
X42544380Y-105926095D01*
%TO.C,C11*%
X42449142Y-84970857D02*
X42496761Y-85018476D01*
X42544380Y-85161333D01*
X42544380Y-85256571D01*
X42496761Y-85399428D01*
X42401523Y-85494666D01*
X42306285Y-85542285D01*
X42115809Y-85589904D01*
X41972952Y-85589904D01*
X41782476Y-85542285D01*
X41687238Y-85494666D01*
X41592000Y-85399428D01*
X41544380Y-85256571D01*
X41544380Y-85161333D01*
X41592000Y-85018476D01*
X41639619Y-84970857D01*
X42544380Y-84018476D02*
X42544380Y-84589904D01*
X42544380Y-84304190D02*
X41544380Y-84304190D01*
X41687238Y-84399428D01*
X41782476Y-84494666D01*
X41830095Y-84589904D01*
X42544380Y-83066095D02*
X42544380Y-83637523D01*
X42544380Y-83351809D02*
X41544380Y-83351809D01*
X41687238Y-83447047D01*
X41782476Y-83542285D01*
X41830095Y-83637523D01*
%TO.C,C10*%
X42449142Y-96400857D02*
X42496761Y-96448476D01*
X42544380Y-96591333D01*
X42544380Y-96686571D01*
X42496761Y-96829428D01*
X42401523Y-96924666D01*
X42306285Y-96972285D01*
X42115809Y-97019904D01*
X41972952Y-97019904D01*
X41782476Y-96972285D01*
X41687238Y-96924666D01*
X41592000Y-96829428D01*
X41544380Y-96686571D01*
X41544380Y-96591333D01*
X41592000Y-96448476D01*
X41639619Y-96400857D01*
X42544380Y-95448476D02*
X42544380Y-96019904D01*
X42544380Y-95734190D02*
X41544380Y-95734190D01*
X41687238Y-95829428D01*
X41782476Y-95924666D01*
X41830095Y-96019904D01*
X41544380Y-94829428D02*
X41544380Y-94734190D01*
X41592000Y-94638952D01*
X41639619Y-94591333D01*
X41734857Y-94543714D01*
X41925333Y-94496095D01*
X42163428Y-94496095D01*
X42353904Y-94543714D01*
X42449142Y-94591333D01*
X42496761Y-94638952D01*
X42544380Y-94734190D01*
X42544380Y-94829428D01*
X42496761Y-94924666D01*
X42449142Y-94972285D01*
X42353904Y-95019904D01*
X42163428Y-95067523D01*
X41925333Y-95067523D01*
X41734857Y-95019904D01*
X41639619Y-94972285D01*
X41592000Y-94924666D01*
X41544380Y-94829428D01*
%TO.C,C2*%
X90709142Y-66714666D02*
X90756761Y-66762285D01*
X90804380Y-66905142D01*
X90804380Y-67000380D01*
X90756761Y-67143238D01*
X90661523Y-67238476D01*
X90566285Y-67286095D01*
X90375809Y-67333714D01*
X90232952Y-67333714D01*
X90042476Y-67286095D01*
X89947238Y-67238476D01*
X89852000Y-67143238D01*
X89804380Y-67000380D01*
X89804380Y-66905142D01*
X89852000Y-66762285D01*
X89899619Y-66714666D01*
X89899619Y-66333714D02*
X89852000Y-66286095D01*
X89804380Y-66190857D01*
X89804380Y-65952761D01*
X89852000Y-65857523D01*
X89899619Y-65809904D01*
X89994857Y-65762285D01*
X90090095Y-65762285D01*
X90232952Y-65809904D01*
X90804380Y-66381333D01*
X90804380Y-65762285D01*
%TO.C,C17*%
X49649142Y-66325142D02*
X49601523Y-66372761D01*
X49458666Y-66420380D01*
X49363428Y-66420380D01*
X49220571Y-66372761D01*
X49125333Y-66277523D01*
X49077714Y-66182285D01*
X49030095Y-65991809D01*
X49030095Y-65848952D01*
X49077714Y-65658476D01*
X49125333Y-65563238D01*
X49220571Y-65468000D01*
X49363428Y-65420380D01*
X49458666Y-65420380D01*
X49601523Y-65468000D01*
X49649142Y-65515619D01*
X50601523Y-66420380D02*
X50030095Y-66420380D01*
X50315809Y-66420380D02*
X50315809Y-65420380D01*
X50220571Y-65563238D01*
X50125333Y-65658476D01*
X50030095Y-65706095D01*
X50934857Y-65420380D02*
X51601523Y-65420380D01*
X51172952Y-66420380D01*
%TO.C,C13*%
X42449142Y-73540857D02*
X42496761Y-73588476D01*
X42544380Y-73731333D01*
X42544380Y-73826571D01*
X42496761Y-73969428D01*
X42401523Y-74064666D01*
X42306285Y-74112285D01*
X42115809Y-74159904D01*
X41972952Y-74159904D01*
X41782476Y-74112285D01*
X41687238Y-74064666D01*
X41592000Y-73969428D01*
X41544380Y-73826571D01*
X41544380Y-73731333D01*
X41592000Y-73588476D01*
X41639619Y-73540857D01*
X42544380Y-72588476D02*
X42544380Y-73159904D01*
X42544380Y-72874190D02*
X41544380Y-72874190D01*
X41687238Y-72969428D01*
X41782476Y-73064666D01*
X41830095Y-73159904D01*
X41544380Y-72255142D02*
X41544380Y-71636095D01*
X41925333Y-71969428D01*
X41925333Y-71826571D01*
X41972952Y-71731333D01*
X42020571Y-71683714D01*
X42115809Y-71636095D01*
X42353904Y-71636095D01*
X42449142Y-71683714D01*
X42496761Y-71731333D01*
X42544380Y-71826571D01*
X42544380Y-72112285D01*
X42496761Y-72207523D01*
X42449142Y-72255142D01*
%TO.C,C1*%
X74001333Y-69093142D02*
X73953714Y-69140761D01*
X73810857Y-69188380D01*
X73715619Y-69188380D01*
X73572761Y-69140761D01*
X73477523Y-69045523D01*
X73429904Y-68950285D01*
X73382285Y-68759809D01*
X73382285Y-68616952D01*
X73429904Y-68426476D01*
X73477523Y-68331238D01*
X73572761Y-68236000D01*
X73715619Y-68188380D01*
X73810857Y-68188380D01*
X73953714Y-68236000D01*
X74001333Y-68283619D01*
X74953714Y-69188380D02*
X74382285Y-69188380D01*
X74668000Y-69188380D02*
X74668000Y-68188380D01*
X74572761Y-68331238D01*
X74477523Y-68426476D01*
X74382285Y-68474095D01*
%TO.C,R9*%
X51854380Y-73064666D02*
X51378190Y-73398000D01*
X51854380Y-73636095D02*
X50854380Y-73636095D01*
X50854380Y-73255142D01*
X50902000Y-73159904D01*
X50949619Y-73112285D01*
X51044857Y-73064666D01*
X51187714Y-73064666D01*
X51282952Y-73112285D01*
X51330571Y-73159904D01*
X51378190Y-73255142D01*
X51378190Y-73636095D01*
X51854380Y-72588476D02*
X51854380Y-72398000D01*
X51806761Y-72302761D01*
X51759142Y-72255142D01*
X51616285Y-72159904D01*
X51425809Y-72112285D01*
X51044857Y-72112285D01*
X50949619Y-72159904D01*
X50902000Y-72207523D01*
X50854380Y-72302761D01*
X50854380Y-72493238D01*
X50902000Y-72588476D01*
X50949619Y-72636095D01*
X51044857Y-72683714D01*
X51282952Y-72683714D01*
X51378190Y-72636095D01*
X51425809Y-72588476D01*
X51473428Y-72493238D01*
X51473428Y-72302761D01*
X51425809Y-72207523D01*
X51378190Y-72159904D01*
X51282952Y-72112285D01*
%TO.C,R8*%
X51854380Y-107354666D02*
X51378190Y-107688000D01*
X51854380Y-107926095D02*
X50854380Y-107926095D01*
X50854380Y-107545142D01*
X50902000Y-107449904D01*
X50949619Y-107402285D01*
X51044857Y-107354666D01*
X51187714Y-107354666D01*
X51282952Y-107402285D01*
X51330571Y-107449904D01*
X51378190Y-107545142D01*
X51378190Y-107926095D01*
X51282952Y-106783238D02*
X51235333Y-106878476D01*
X51187714Y-106926095D01*
X51092476Y-106973714D01*
X51044857Y-106973714D01*
X50949619Y-106926095D01*
X50902000Y-106878476D01*
X50854380Y-106783238D01*
X50854380Y-106592761D01*
X50902000Y-106497523D01*
X50949619Y-106449904D01*
X51044857Y-106402285D01*
X51092476Y-106402285D01*
X51187714Y-106449904D01*
X51235333Y-106497523D01*
X51282952Y-106592761D01*
X51282952Y-106783238D01*
X51330571Y-106878476D01*
X51378190Y-106926095D01*
X51473428Y-106973714D01*
X51663904Y-106973714D01*
X51759142Y-106926095D01*
X51806761Y-106878476D01*
X51854380Y-106783238D01*
X51854380Y-106592761D01*
X51806761Y-106497523D01*
X51759142Y-106449904D01*
X51663904Y-106402285D01*
X51473428Y-106402285D01*
X51378190Y-106449904D01*
X51330571Y-106497523D01*
X51282952Y-106592761D01*
%TO.C,R7*%
X51854380Y-84852166D02*
X51378190Y-85185500D01*
X51854380Y-85423595D02*
X50854380Y-85423595D01*
X50854380Y-85042642D01*
X50902000Y-84947404D01*
X50949619Y-84899785D01*
X51044857Y-84852166D01*
X51187714Y-84852166D01*
X51282952Y-84899785D01*
X51330571Y-84947404D01*
X51378190Y-85042642D01*
X51378190Y-85423595D01*
X50854380Y-84518833D02*
X50854380Y-83852166D01*
X51854380Y-84280738D01*
%TO.C,R6*%
X51854380Y-95924666D02*
X51378190Y-96258000D01*
X51854380Y-96496095D02*
X50854380Y-96496095D01*
X50854380Y-96115142D01*
X50902000Y-96019904D01*
X50949619Y-95972285D01*
X51044857Y-95924666D01*
X51187714Y-95924666D01*
X51282952Y-95972285D01*
X51330571Y-96019904D01*
X51378190Y-96115142D01*
X51378190Y-96496095D01*
X50854380Y-95067523D02*
X50854380Y-95258000D01*
X50902000Y-95353238D01*
X50949619Y-95400857D01*
X51092476Y-95496095D01*
X51282952Y-95543714D01*
X51663904Y-95543714D01*
X51759142Y-95496095D01*
X51806761Y-95448476D01*
X51854380Y-95353238D01*
X51854380Y-95162761D01*
X51806761Y-95067523D01*
X51759142Y-95019904D01*
X51663904Y-94972285D01*
X51425809Y-94972285D01*
X51330571Y-95019904D01*
X51282952Y-95067523D01*
X51235333Y-95162761D01*
X51235333Y-95353238D01*
X51282952Y-95448476D01*
X51330571Y-95496095D01*
X51425809Y-95543714D01*
%TO.C,L5*%
X43530333Y-100910380D02*
X43054142Y-100910380D01*
X43054142Y-99910380D01*
X44339857Y-99910380D02*
X43863666Y-99910380D01*
X43816047Y-100386571D01*
X43863666Y-100338952D01*
X43958904Y-100291333D01*
X44197000Y-100291333D01*
X44292238Y-100338952D01*
X44339857Y-100386571D01*
X44387476Y-100481809D01*
X44387476Y-100719904D01*
X44339857Y-100815142D01*
X44292238Y-100862761D01*
X44197000Y-100910380D01*
X43958904Y-100910380D01*
X43863666Y-100862761D01*
X43816047Y-100815142D01*
%TO.C,L4*%
X43530333Y-78050380D02*
X43054142Y-78050380D01*
X43054142Y-77050380D01*
X44292238Y-77383714D02*
X44292238Y-78050380D01*
X44054142Y-77002761D02*
X43816047Y-77717047D01*
X44435095Y-77717047D01*
%TO.C,L3*%
X43530333Y-89480380D02*
X43054142Y-89480380D01*
X43054142Y-88480380D01*
X43768428Y-88480380D02*
X44387476Y-88480380D01*
X44054142Y-88861333D01*
X44197000Y-88861333D01*
X44292238Y-88908952D01*
X44339857Y-88956571D01*
X44387476Y-89051809D01*
X44387476Y-89289904D01*
X44339857Y-89385142D01*
X44292238Y-89432761D01*
X44197000Y-89480380D01*
X43911285Y-89480380D01*
X43816047Y-89432761D01*
X43768428Y-89385142D01*
%TO.C,U4*%
X80957595Y-94785380D02*
X80957595Y-95594904D01*
X81005214Y-95690142D01*
X81052833Y-95737761D01*
X81148071Y-95785380D01*
X81338547Y-95785380D01*
X81433785Y-95737761D01*
X81481404Y-95690142D01*
X81529023Y-95594904D01*
X81529023Y-94785380D01*
X82433785Y-95118714D02*
X82433785Y-95785380D01*
X82195690Y-94737761D02*
X81957595Y-95452047D01*
X82576642Y-95452047D01*
%TO.C,R3*%
X48093333Y-119170380D02*
X47760000Y-118694190D01*
X47521904Y-119170380D02*
X47521904Y-118170380D01*
X47902857Y-118170380D01*
X47998095Y-118218000D01*
X48045714Y-118265619D01*
X48093333Y-118360857D01*
X48093333Y-118503714D01*
X48045714Y-118598952D01*
X47998095Y-118646571D01*
X47902857Y-118694190D01*
X47521904Y-118694190D01*
X48426666Y-118170380D02*
X49045714Y-118170380D01*
X48712380Y-118551333D01*
X48855238Y-118551333D01*
X48950476Y-118598952D01*
X48998095Y-118646571D01*
X49045714Y-118741809D01*
X49045714Y-118979904D01*
X48998095Y-119075142D01*
X48950476Y-119122761D01*
X48855238Y-119170380D01*
X48569523Y-119170380D01*
X48474285Y-119122761D01*
X48426666Y-119075142D01*
%TO.C,R2*%
X48093333Y-121710380D02*
X47760000Y-121234190D01*
X47521904Y-121710380D02*
X47521904Y-120710380D01*
X47902857Y-120710380D01*
X47998095Y-120758000D01*
X48045714Y-120805619D01*
X48093333Y-120900857D01*
X48093333Y-121043714D01*
X48045714Y-121138952D01*
X47998095Y-121186571D01*
X47902857Y-121234190D01*
X47521904Y-121234190D01*
X48474285Y-120805619D02*
X48521904Y-120758000D01*
X48617142Y-120710380D01*
X48855238Y-120710380D01*
X48950476Y-120758000D01*
X48998095Y-120805619D01*
X49045714Y-120900857D01*
X49045714Y-120996095D01*
X48998095Y-121138952D01*
X48426666Y-121710380D01*
X49045714Y-121710380D01*
%TO.C,R1*%
X58888333Y-65449380D02*
X58555000Y-64973190D01*
X58316904Y-65449380D02*
X58316904Y-64449380D01*
X58697857Y-64449380D01*
X58793095Y-64497000D01*
X58840714Y-64544619D01*
X58888333Y-64639857D01*
X58888333Y-64782714D01*
X58840714Y-64877952D01*
X58793095Y-64925571D01*
X58697857Y-64973190D01*
X58316904Y-64973190D01*
X59840714Y-65449380D02*
X59269285Y-65449380D01*
X59555000Y-65449380D02*
X59555000Y-64449380D01*
X59459761Y-64592238D01*
X59364523Y-64687476D01*
X59269285Y-64735095D01*
%TO.C,L6*%
X44020333Y-66620380D02*
X43544142Y-66620380D01*
X43544142Y-65620380D01*
X44782238Y-65620380D02*
X44591761Y-65620380D01*
X44496523Y-65668000D01*
X44448904Y-65715619D01*
X44353666Y-65858476D01*
X44306047Y-66048952D01*
X44306047Y-66429904D01*
X44353666Y-66525142D01*
X44401285Y-66572761D01*
X44496523Y-66620380D01*
X44687000Y-66620380D01*
X44782238Y-66572761D01*
X44829857Y-66525142D01*
X44877476Y-66429904D01*
X44877476Y-66191809D01*
X44829857Y-66096571D01*
X44782238Y-66048952D01*
X44687000Y-66001333D01*
X44496523Y-66001333D01*
X44401285Y-66048952D01*
X44353666Y-66096571D01*
X44306047Y-66191809D01*
%TO.C,U2*%
X55967380Y-136016904D02*
X56776904Y-136016904D01*
X56872142Y-135969285D01*
X56919761Y-135921666D01*
X56967380Y-135826428D01*
X56967380Y-135635952D01*
X56919761Y-135540714D01*
X56872142Y-135493095D01*
X56776904Y-135445476D01*
X55967380Y-135445476D01*
X56062619Y-135016904D02*
X56015000Y-134969285D01*
X55967380Y-134874047D01*
X55967380Y-134635952D01*
X56015000Y-134540714D01*
X56062619Y-134493095D01*
X56157857Y-134445476D01*
X56253095Y-134445476D01*
X56395952Y-134493095D01*
X56967380Y-135064523D01*
X56967380Y-134445476D01*
X55983380Y-136757150D02*
X56221476Y-136757150D01*
X56126238Y-136995245D02*
X56221476Y-136757150D01*
X56126238Y-136519054D01*
X56411952Y-136900007D02*
X56221476Y-136757150D01*
X56411952Y-136614292D01*
X55983380Y-136757150D02*
X56221476Y-136757150D01*
X56126238Y-136995245D02*
X56221476Y-136757150D01*
X56126238Y-136519054D01*
X56411952Y-136900007D02*
X56221476Y-136757150D01*
X56411952Y-136614292D01*
%TO.C,U8*%
X48260095Y-75017380D02*
X48260095Y-75826904D01*
X48307714Y-75922142D01*
X48355333Y-75969761D01*
X48450571Y-76017380D01*
X48641047Y-76017380D01*
X48736285Y-75969761D01*
X48783904Y-75922142D01*
X48831523Y-75826904D01*
X48831523Y-75017380D01*
X49450571Y-75445952D02*
X49355333Y-75398333D01*
X49307714Y-75350714D01*
X49260095Y-75255476D01*
X49260095Y-75207857D01*
X49307714Y-75112619D01*
X49355333Y-75065000D01*
X49450571Y-75017380D01*
X49641047Y-75017380D01*
X49736285Y-75065000D01*
X49783904Y-75112619D01*
X49831523Y-75207857D01*
X49831523Y-75255476D01*
X49783904Y-75350714D01*
X49736285Y-75398333D01*
X49641047Y-75445952D01*
X49450571Y-75445952D01*
X49355333Y-75493571D01*
X49307714Y-75541190D01*
X49260095Y-75636428D01*
X49260095Y-75826904D01*
X49307714Y-75922142D01*
X49355333Y-75969761D01*
X49450571Y-76017380D01*
X49641047Y-76017380D01*
X49736285Y-75969761D01*
X49783904Y-75922142D01*
X49831523Y-75826904D01*
X49831523Y-75636428D01*
X49783904Y-75541190D01*
X49736285Y-75493571D01*
X49641047Y-75445952D01*
X50651150Y-75001380D02*
X50651150Y-75239476D01*
X50413054Y-75144238D02*
X50651150Y-75239476D01*
X50889245Y-75144238D01*
X50508292Y-75429952D02*
X50651150Y-75239476D01*
X50794007Y-75429952D01*
X50651150Y-75001380D02*
X50651150Y-75239476D01*
X50413054Y-75144238D02*
X50651150Y-75239476D01*
X50889245Y-75144238D01*
X50508292Y-75429952D02*
X50651150Y-75239476D01*
X50794007Y-75429952D01*
%TO.C,U1*%
X67310095Y-66000380D02*
X67310095Y-66809904D01*
X67357714Y-66905142D01*
X67405333Y-66952761D01*
X67500571Y-67000380D01*
X67691047Y-67000380D01*
X67786285Y-66952761D01*
X67833904Y-66905142D01*
X67881523Y-66809904D01*
X67881523Y-66000380D01*
X68881523Y-67000380D02*
X68310095Y-67000380D01*
X68595809Y-67000380D02*
X68595809Y-66000380D01*
X68500571Y-66143238D01*
X68405333Y-66238476D01*
X68310095Y-66286095D01*
X62715000Y-70302380D02*
X62238809Y-70302380D01*
X62238809Y-69302380D01*
X63048333Y-70302380D02*
X63048333Y-69302380D01*
X63381666Y-70016666D01*
X63715000Y-69302380D01*
X63715000Y-70302380D01*
X64095952Y-69302380D02*
X64762619Y-69302380D01*
X64334047Y-70302380D01*
X65286428Y-69730952D02*
X65191190Y-69683333D01*
X65143571Y-69635714D01*
X65095952Y-69540476D01*
X65095952Y-69492857D01*
X65143571Y-69397619D01*
X65191190Y-69350000D01*
X65286428Y-69302380D01*
X65476904Y-69302380D01*
X65572142Y-69350000D01*
X65619761Y-69397619D01*
X65667380Y-69492857D01*
X65667380Y-69540476D01*
X65619761Y-69635714D01*
X65572142Y-69683333D01*
X65476904Y-69730952D01*
X65286428Y-69730952D01*
X65191190Y-69778571D01*
X65143571Y-69826190D01*
X65095952Y-69921428D01*
X65095952Y-70111904D01*
X65143571Y-70207142D01*
X65191190Y-70254761D01*
X65286428Y-70302380D01*
X65476904Y-70302380D01*
X65572142Y-70254761D01*
X65619761Y-70207142D01*
X65667380Y-70111904D01*
X65667380Y-69921428D01*
X65619761Y-69826190D01*
X65572142Y-69778571D01*
X65476904Y-69730952D01*
X66572142Y-70302380D02*
X66095952Y-70302380D01*
X66095952Y-69302380D01*
X67095952Y-69302380D02*
X67191190Y-69302380D01*
X67286428Y-69350000D01*
X67334047Y-69397619D01*
X67381666Y-69492857D01*
X67429285Y-69683333D01*
X67429285Y-69921428D01*
X67381666Y-70111904D01*
X67334047Y-70207142D01*
X67286428Y-70254761D01*
X67191190Y-70302380D01*
X67095952Y-70302380D01*
X67000714Y-70254761D01*
X66953095Y-70207142D01*
X66905476Y-70111904D01*
X66857857Y-69921428D01*
X66857857Y-69683333D01*
X66905476Y-69492857D01*
X66953095Y-69397619D01*
X67000714Y-69350000D01*
X67095952Y-69302380D01*
X68334047Y-69302380D02*
X67857857Y-69302380D01*
X67810238Y-69778571D01*
X67857857Y-69730952D01*
X67953095Y-69683333D01*
X68191190Y-69683333D01*
X68286428Y-69730952D01*
X68334047Y-69778571D01*
X68381666Y-69873809D01*
X68381666Y-70111904D01*
X68334047Y-70207142D01*
X68286428Y-70254761D01*
X68191190Y-70302380D01*
X67953095Y-70302380D01*
X67857857Y-70254761D01*
X67810238Y-70207142D01*
X68762619Y-70016666D02*
X69238809Y-70016666D01*
X68667380Y-70302380D02*
X69000714Y-69302380D01*
X69334047Y-70302380D01*
X70238809Y-70207142D02*
X70191190Y-70254761D01*
X70048333Y-70302380D01*
X69953095Y-70302380D01*
X69810238Y-70254761D01*
X69715000Y-70159523D01*
X69667380Y-70064285D01*
X69619761Y-69873809D01*
X69619761Y-69730952D01*
X69667380Y-69540476D01*
X69715000Y-69445238D01*
X69810238Y-69350000D01*
X69953095Y-69302380D01*
X70048333Y-69302380D01*
X70191190Y-69350000D01*
X70238809Y-69397619D01*
X70667380Y-70302380D02*
X70667380Y-69302380D01*
X71000714Y-70016666D01*
X71334047Y-69302380D01*
X71334047Y-70302380D01*
X71572142Y-70397619D02*
X72334047Y-70397619D01*
X72572142Y-70302380D02*
X72572142Y-69302380D01*
X73143571Y-70302380D01*
X73143571Y-69302380D01*
X73810238Y-69302380D02*
X74000714Y-69302380D01*
X74095952Y-69350000D01*
X74191190Y-69445238D01*
X74238809Y-69635714D01*
X74238809Y-69969047D01*
X74191190Y-70159523D01*
X74095952Y-70254761D01*
X74000714Y-70302380D01*
X73810238Y-70302380D01*
X73715000Y-70254761D01*
X73619761Y-70159523D01*
X73572142Y-69969047D01*
X73572142Y-69635714D01*
X73619761Y-69445238D01*
X73715000Y-69350000D01*
X73810238Y-69302380D01*
X74667380Y-70302380D02*
X74667380Y-69302380D01*
X75048333Y-69302380D01*
X75143571Y-69350000D01*
X75191190Y-69397619D01*
X75238809Y-69492857D01*
X75238809Y-69635714D01*
X75191190Y-69730952D01*
X75143571Y-69778571D01*
X75048333Y-69826190D01*
X74667380Y-69826190D01*
X76000714Y-69778571D02*
X76143571Y-69826190D01*
X76191190Y-69873809D01*
X76238809Y-69969047D01*
X76238809Y-70111904D01*
X76191190Y-70207142D01*
X76143571Y-70254761D01*
X76048333Y-70302380D01*
X75667380Y-70302380D01*
X75667380Y-69302380D01*
X76000714Y-69302380D01*
X76095952Y-69350000D01*
X76143571Y-69397619D01*
X76191190Y-69492857D01*
X76191190Y-69588095D01*
X76143571Y-69683333D01*
X76095952Y-69730952D01*
X76000714Y-69778571D01*
X75667380Y-69778571D01*
X60301714Y-63190380D02*
X60301714Y-62190380D01*
X60539809Y-62190380D01*
X60682666Y-62238000D01*
X60777904Y-62333238D01*
X60825523Y-62428476D01*
X60873142Y-62618952D01*
X60873142Y-62761809D01*
X60825523Y-62952285D01*
X60777904Y-63047523D01*
X60682666Y-63142761D01*
X60539809Y-63190380D01*
X60301714Y-63190380D01*
X61682666Y-63142761D02*
X61587428Y-63190380D01*
X61396952Y-63190380D01*
X61301714Y-63142761D01*
X61254095Y-63047523D01*
X61254095Y-62666571D01*
X61301714Y-62571333D01*
X61396952Y-62523714D01*
X61587428Y-62523714D01*
X61682666Y-62571333D01*
X61730285Y-62666571D01*
X61730285Y-62761809D01*
X61254095Y-62857047D01*
X62111238Y-63142761D02*
X62206476Y-63190380D01*
X62396952Y-63190380D01*
X62492190Y-63142761D01*
X62539809Y-63047523D01*
X62539809Y-62999904D01*
X62492190Y-62904666D01*
X62396952Y-62857047D01*
X62254095Y-62857047D01*
X62158857Y-62809428D01*
X62111238Y-62714190D01*
X62111238Y-62666571D01*
X62158857Y-62571333D01*
X62254095Y-62523714D01*
X62396952Y-62523714D01*
X62492190Y-62571333D01*
X62968380Y-63190380D02*
X62968380Y-62523714D01*
X62968380Y-62190380D02*
X62920761Y-62238000D01*
X62968380Y-62285619D01*
X63016000Y-62238000D01*
X62968380Y-62190380D01*
X62968380Y-62285619D01*
X63873142Y-62523714D02*
X63873142Y-63333238D01*
X63825523Y-63428476D01*
X63777904Y-63476095D01*
X63682666Y-63523714D01*
X63539809Y-63523714D01*
X63444571Y-63476095D01*
X63873142Y-63142761D02*
X63777904Y-63190380D01*
X63587428Y-63190380D01*
X63492190Y-63142761D01*
X63444571Y-63095142D01*
X63396952Y-62999904D01*
X63396952Y-62714190D01*
X63444571Y-62618952D01*
X63492190Y-62571333D01*
X63587428Y-62523714D01*
X63777904Y-62523714D01*
X63873142Y-62571333D01*
X64349333Y-62523714D02*
X64349333Y-63190380D01*
X64349333Y-62618952D02*
X64396952Y-62571333D01*
X64492190Y-62523714D01*
X64635047Y-62523714D01*
X64730285Y-62571333D01*
X64777904Y-62666571D01*
X64777904Y-63190380D01*
X65682666Y-63190380D02*
X65682666Y-62666571D01*
X65635047Y-62571333D01*
X65539809Y-62523714D01*
X65349333Y-62523714D01*
X65254095Y-62571333D01*
X65682666Y-63142761D02*
X65587428Y-63190380D01*
X65349333Y-63190380D01*
X65254095Y-63142761D01*
X65206476Y-63047523D01*
X65206476Y-62952285D01*
X65254095Y-62857047D01*
X65349333Y-62809428D01*
X65587428Y-62809428D01*
X65682666Y-62761809D01*
X66016000Y-62523714D02*
X66396952Y-62523714D01*
X66158857Y-62190380D02*
X66158857Y-63047523D01*
X66206476Y-63142761D01*
X66301714Y-63190380D01*
X66396952Y-63190380D01*
X66873142Y-63190380D02*
X66777904Y-63142761D01*
X66730285Y-63095142D01*
X66682666Y-62999904D01*
X66682666Y-62714190D01*
X66730285Y-62618952D01*
X66777904Y-62571333D01*
X66873142Y-62523714D01*
X67016000Y-62523714D01*
X67111238Y-62571333D01*
X67158857Y-62618952D01*
X67206476Y-62714190D01*
X67206476Y-62999904D01*
X67158857Y-63095142D01*
X67111238Y-63142761D01*
X67016000Y-63190380D01*
X66873142Y-63190380D01*
X67635047Y-63190380D02*
X67635047Y-62523714D01*
X67635047Y-62714190D02*
X67682666Y-62618952D01*
X67730285Y-62571333D01*
X67825523Y-62523714D01*
X67920761Y-62523714D01*
X68301714Y-63190380D02*
X68492190Y-63190380D01*
X68587428Y-63142761D01*
X68635047Y-63095142D01*
X68730285Y-62952285D01*
X68777904Y-62761809D01*
X68777904Y-62380857D01*
X68730285Y-62285619D01*
X68682666Y-62238000D01*
X68587428Y-62190380D01*
X68396952Y-62190380D01*
X68301714Y-62238000D01*
X68254095Y-62285619D01*
X68206476Y-62380857D01*
X68206476Y-62618952D01*
X68254095Y-62714190D01*
X68301714Y-62761809D01*
X68396952Y-62809428D01*
X68587428Y-62809428D01*
X68682666Y-62761809D01*
X68730285Y-62714190D01*
X68777904Y-62618952D01*
X68072000Y-66000380D02*
X68072000Y-66238476D01*
X67833904Y-66143238D02*
X68072000Y-66238476D01*
X68310095Y-66143238D01*
X67929142Y-66428952D02*
X68072000Y-66238476D01*
X68214857Y-66428952D01*
%TO.C,U18*%
X100996904Y-87717380D02*
X100996904Y-88526904D01*
X101044523Y-88622142D01*
X101092142Y-88669761D01*
X101187380Y-88717380D01*
X101377857Y-88717380D01*
X101473095Y-88669761D01*
X101520714Y-88622142D01*
X101568333Y-88526904D01*
X101568333Y-87717380D01*
X102568333Y-88717380D02*
X101996904Y-88717380D01*
X102282619Y-88717380D02*
X102282619Y-87717380D01*
X102187380Y-87860238D01*
X102092142Y-87955476D01*
X101996904Y-88003095D01*
X103139761Y-88145952D02*
X103044523Y-88098333D01*
X102996904Y-88050714D01*
X102949285Y-87955476D01*
X102949285Y-87907857D01*
X102996904Y-87812619D01*
X103044523Y-87765000D01*
X103139761Y-87717380D01*
X103330238Y-87717380D01*
X103425476Y-87765000D01*
X103473095Y-87812619D01*
X103520714Y-87907857D01*
X103520714Y-87955476D01*
X103473095Y-88050714D01*
X103425476Y-88098333D01*
X103330238Y-88145952D01*
X103139761Y-88145952D01*
X103044523Y-88193571D01*
X102996904Y-88241190D01*
X102949285Y-88336428D01*
X102949285Y-88526904D01*
X102996904Y-88622142D01*
X103044523Y-88669761D01*
X103139761Y-88717380D01*
X103330238Y-88717380D01*
X103425476Y-88669761D01*
X103473095Y-88622142D01*
X103520714Y-88526904D01*
X103520714Y-88336428D01*
X103473095Y-88241190D01*
X103425476Y-88193571D01*
X103330238Y-88145952D01*
X103991150Y-87701380D02*
X103991150Y-87939476D01*
X103753054Y-87844238D02*
X103991150Y-87939476D01*
X104229245Y-87844238D01*
X103848292Y-88129952D02*
X103991150Y-87939476D01*
X104134007Y-88129952D01*
X103991150Y-87701380D02*
X103991150Y-87939476D01*
X103753054Y-87844238D02*
X103991150Y-87939476D01*
X104229245Y-87844238D01*
X103848292Y-88129952D02*
X103991150Y-87939476D01*
X104134007Y-88129952D01*
%TO.C,U17*%
X100996904Y-99782380D02*
X100996904Y-100591904D01*
X101044523Y-100687142D01*
X101092142Y-100734761D01*
X101187380Y-100782380D01*
X101377857Y-100782380D01*
X101473095Y-100734761D01*
X101520714Y-100687142D01*
X101568333Y-100591904D01*
X101568333Y-99782380D01*
X102568333Y-100782380D02*
X101996904Y-100782380D01*
X102282619Y-100782380D02*
X102282619Y-99782380D01*
X102187380Y-99925238D01*
X102092142Y-100020476D01*
X101996904Y-100068095D01*
X102901666Y-99782380D02*
X103568333Y-99782380D01*
X103139761Y-100782380D01*
X103991150Y-99722180D02*
X103991150Y-99960276D01*
X103753054Y-99865038D02*
X103991150Y-99960276D01*
X104229245Y-99865038D01*
X103848292Y-100150752D02*
X103991150Y-99960276D01*
X104134007Y-100150752D01*
X103991150Y-99722180D02*
X103991150Y-99960276D01*
X103753054Y-99865038D02*
X103991150Y-99960276D01*
X104229245Y-99865038D01*
X103848292Y-100150752D02*
X103991150Y-99960276D01*
X104134007Y-100150752D01*
%TO.C,U16*%
X63587380Y-57753095D02*
X64396904Y-57753095D01*
X64492142Y-57705476D01*
X64539761Y-57657857D01*
X64587380Y-57562619D01*
X64587380Y-57372142D01*
X64539761Y-57276904D01*
X64492142Y-57229285D01*
X64396904Y-57181666D01*
X63587380Y-57181666D01*
X64587380Y-56181666D02*
X64587380Y-56753095D01*
X64587380Y-56467380D02*
X63587380Y-56467380D01*
X63730238Y-56562619D01*
X63825476Y-56657857D01*
X63873095Y-56753095D01*
X63587380Y-55324523D02*
X63587380Y-55515000D01*
X63635000Y-55610238D01*
X63682619Y-55657857D01*
X63825476Y-55753095D01*
X64015952Y-55800714D01*
X64396904Y-55800714D01*
X64492142Y-55753095D01*
X64539761Y-55705476D01*
X64587380Y-55610238D01*
X64587380Y-55419761D01*
X64539761Y-55324523D01*
X64492142Y-55276904D01*
X64396904Y-55229285D01*
X64158809Y-55229285D01*
X64063571Y-55276904D01*
X64015952Y-55324523D01*
X63968333Y-55419761D01*
X63968333Y-55610238D01*
X64015952Y-55705476D01*
X64063571Y-55753095D01*
X64158809Y-55800714D01*
X63846180Y-54878049D02*
X64084276Y-54878049D01*
X63989038Y-55116144D02*
X64084276Y-54878049D01*
X63989038Y-54639953D01*
X64274752Y-55020906D02*
X64084276Y-54878049D01*
X64274752Y-54735191D01*
X63846180Y-54878049D02*
X64084276Y-54878049D01*
X63989038Y-55116144D02*
X64084276Y-54878049D01*
X63989038Y-54639953D01*
X64274752Y-55020906D02*
X64084276Y-54878049D01*
X64274752Y-54735191D01*
%TO.C,U15*%
X77557380Y-57753095D02*
X78366904Y-57753095D01*
X78462142Y-57705476D01*
X78509761Y-57657857D01*
X78557380Y-57562619D01*
X78557380Y-57372142D01*
X78509761Y-57276904D01*
X78462142Y-57229285D01*
X78366904Y-57181666D01*
X77557380Y-57181666D01*
X78557380Y-56181666D02*
X78557380Y-56753095D01*
X78557380Y-56467380D02*
X77557380Y-56467380D01*
X77700238Y-56562619D01*
X77795476Y-56657857D01*
X77843095Y-56753095D01*
X77557380Y-55276904D02*
X77557380Y-55753095D01*
X78033571Y-55800714D01*
X77985952Y-55753095D01*
X77938333Y-55657857D01*
X77938333Y-55419761D01*
X77985952Y-55324523D01*
X78033571Y-55276904D01*
X78128809Y-55229285D01*
X78366904Y-55229285D01*
X78462142Y-55276904D01*
X78509761Y-55324523D01*
X78557380Y-55419761D01*
X78557380Y-55657857D01*
X78509761Y-55753095D01*
X78462142Y-55800714D01*
X77795380Y-54758850D02*
X78033476Y-54758850D01*
X77938238Y-54996945D02*
X78033476Y-54758850D01*
X77938238Y-54520754D01*
X78223952Y-54901707D02*
X78033476Y-54758850D01*
X78223952Y-54615992D01*
X77795380Y-54758850D02*
X78033476Y-54758850D01*
X77938238Y-54996945D02*
X78033476Y-54758850D01*
X77938238Y-54520754D01*
X78223952Y-54901707D02*
X78033476Y-54758850D01*
X78223952Y-54615992D01*
%TO.C,U14*%
X91527380Y-56356095D02*
X92336904Y-56356095D01*
X92432142Y-56308476D01*
X92479761Y-56260857D01*
X92527380Y-56165619D01*
X92527380Y-55975142D01*
X92479761Y-55879904D01*
X92432142Y-55832285D01*
X92336904Y-55784666D01*
X91527380Y-55784666D01*
X92527380Y-54784666D02*
X92527380Y-55356095D01*
X92527380Y-55070380D02*
X91527380Y-55070380D01*
X91670238Y-55165619D01*
X91765476Y-55260857D01*
X91813095Y-55356095D01*
X91860714Y-53927523D02*
X92527380Y-53927523D01*
X91479761Y-54165619D02*
X92194047Y-54403714D01*
X92194047Y-53784666D01*
X91765380Y-53488850D02*
X92003476Y-53488850D01*
X91908238Y-53726945D02*
X92003476Y-53488850D01*
X91908238Y-53250754D01*
X92193952Y-53631707D02*
X92003476Y-53488850D01*
X92193952Y-53345992D01*
X91765380Y-53488850D02*
X92003476Y-53488850D01*
X91908238Y-53726945D02*
X92003476Y-53488850D01*
X91908238Y-53250754D01*
X92193952Y-53631707D02*
X92003476Y-53488850D01*
X92193952Y-53345992D01*
%TO.C,U13*%
X49617380Y-57753095D02*
X50426904Y-57753095D01*
X50522142Y-57705476D01*
X50569761Y-57657857D01*
X50617380Y-57562619D01*
X50617380Y-57372142D01*
X50569761Y-57276904D01*
X50522142Y-57229285D01*
X50426904Y-57181666D01*
X49617380Y-57181666D01*
X50617380Y-56181666D02*
X50617380Y-56753095D01*
X50617380Y-56467380D02*
X49617380Y-56467380D01*
X49760238Y-56562619D01*
X49855476Y-56657857D01*
X49903095Y-56753095D01*
X49617380Y-55848333D02*
X49617380Y-55229285D01*
X49998333Y-55562619D01*
X49998333Y-55419761D01*
X50045952Y-55324523D01*
X50093571Y-55276904D01*
X50188809Y-55229285D01*
X50426904Y-55229285D01*
X50522142Y-55276904D01*
X50569761Y-55324523D01*
X50617380Y-55419761D01*
X50617380Y-55705476D01*
X50569761Y-55800714D01*
X50522142Y-55848333D01*
X49855380Y-54758850D02*
X50093476Y-54758850D01*
X49998238Y-54996945D02*
X50093476Y-54758850D01*
X49998238Y-54520754D01*
X50283952Y-54901707D02*
X50093476Y-54758850D01*
X50283952Y-54615992D01*
X49855380Y-54758850D02*
X50093476Y-54758850D01*
X49998238Y-54996945D02*
X50093476Y-54758850D01*
X49998238Y-54520754D01*
X50283952Y-54901707D02*
X50093476Y-54758850D01*
X50283952Y-54615992D01*
%TO.C,U12*%
X101123904Y-111847380D02*
X101123904Y-112656904D01*
X101171523Y-112752142D01*
X101219142Y-112799761D01*
X101314380Y-112847380D01*
X101504857Y-112847380D01*
X101600095Y-112799761D01*
X101647714Y-112752142D01*
X101695333Y-112656904D01*
X101695333Y-111847380D01*
X102695333Y-112847380D02*
X102123904Y-112847380D01*
X102409619Y-112847380D02*
X102409619Y-111847380D01*
X102314380Y-111990238D01*
X102219142Y-112085476D01*
X102123904Y-112133095D01*
X103076285Y-111942619D02*
X103123904Y-111895000D01*
X103219142Y-111847380D01*
X103457238Y-111847380D01*
X103552476Y-111895000D01*
X103600095Y-111942619D01*
X103647714Y-112037857D01*
X103647714Y-112133095D01*
X103600095Y-112275952D01*
X103028666Y-112847380D01*
X103647714Y-112847380D01*
X103991150Y-111831380D02*
X103991150Y-112069476D01*
X103753054Y-111974238D02*
X103991150Y-112069476D01*
X104229245Y-111974238D01*
X103848292Y-112259952D02*
X103991150Y-112069476D01*
X104134007Y-112259952D01*
X103991150Y-111831380D02*
X103991150Y-112069476D01*
X103753054Y-111974238D02*
X103991150Y-112069476D01*
X104229245Y-111974238D01*
X103848292Y-112259952D02*
X103991150Y-112069476D01*
X104134007Y-112259952D01*
%TO.C,U11*%
X101123904Y-124547380D02*
X101123904Y-125356904D01*
X101171523Y-125452142D01*
X101219142Y-125499761D01*
X101314380Y-125547380D01*
X101504857Y-125547380D01*
X101600095Y-125499761D01*
X101647714Y-125452142D01*
X101695333Y-125356904D01*
X101695333Y-124547380D01*
X102695333Y-125547380D02*
X102123904Y-125547380D01*
X102409619Y-125547380D02*
X102409619Y-124547380D01*
X102314380Y-124690238D01*
X102219142Y-124785476D01*
X102123904Y-124833095D01*
X103647714Y-125547380D02*
X103076285Y-125547380D01*
X103362000Y-125547380D02*
X103362000Y-124547380D01*
X103266761Y-124690238D01*
X103171523Y-124785476D01*
X103076285Y-124833095D01*
X103991150Y-124531380D02*
X103991150Y-124769476D01*
X103753054Y-124674238D02*
X103991150Y-124769476D01*
X104229245Y-124674238D01*
X103848292Y-124959952D02*
X103991150Y-124769476D01*
X104134007Y-124959952D01*
X103991150Y-124531380D02*
X103991150Y-124769476D01*
X103753054Y-124674238D02*
X103991150Y-124769476D01*
X104229245Y-124674238D01*
X103848292Y-124959952D02*
X103991150Y-124769476D01*
X104134007Y-124959952D01*
%TO.C,U10*%
X83907380Y-136366095D02*
X84716904Y-136366095D01*
X84812142Y-136318476D01*
X84859761Y-136270857D01*
X84907380Y-136175619D01*
X84907380Y-135985142D01*
X84859761Y-135889904D01*
X84812142Y-135842285D01*
X84716904Y-135794666D01*
X83907380Y-135794666D01*
X84907380Y-134794666D02*
X84907380Y-135366095D01*
X84907380Y-135080380D02*
X83907380Y-135080380D01*
X84050238Y-135175619D01*
X84145476Y-135270857D01*
X84193095Y-135366095D01*
X83907380Y-134175619D02*
X83907380Y-134080380D01*
X83955000Y-133985142D01*
X84002619Y-133937523D01*
X84097857Y-133889904D01*
X84288333Y-133842285D01*
X84526428Y-133842285D01*
X84716904Y-133889904D01*
X84812142Y-133937523D01*
X84859761Y-133985142D01*
X84907380Y-134080380D01*
X84907380Y-134175619D01*
X84859761Y-134270857D01*
X84812142Y-134318476D01*
X84716904Y-134366095D01*
X84526428Y-134413714D01*
X84288333Y-134413714D01*
X84097857Y-134366095D01*
X84002619Y-134318476D01*
X83955000Y-134270857D01*
X83907380Y-134175619D01*
X83923380Y-136757150D02*
X84161476Y-136757150D01*
X84066238Y-136995245D02*
X84161476Y-136757150D01*
X84066238Y-136519054D01*
X84351952Y-136900007D02*
X84161476Y-136757150D01*
X84351952Y-136614292D01*
X83923380Y-136757150D02*
X84161476Y-136757150D01*
X84066238Y-136995245D02*
X84161476Y-136757150D01*
X84066238Y-136519054D01*
X84351952Y-136900007D02*
X84161476Y-136757150D01*
X84351952Y-136614292D01*
%TO.C,U9*%
X97877380Y-135889904D02*
X98686904Y-135889904D01*
X98782142Y-135842285D01*
X98829761Y-135794666D01*
X98877380Y-135699428D01*
X98877380Y-135508952D01*
X98829761Y-135413714D01*
X98782142Y-135366095D01*
X98686904Y-135318476D01*
X97877380Y-135318476D01*
X98877380Y-134794666D02*
X98877380Y-134604190D01*
X98829761Y-134508952D01*
X98782142Y-134461333D01*
X98639285Y-134366095D01*
X98448809Y-134318476D01*
X98067857Y-134318476D01*
X97972619Y-134366095D01*
X97925000Y-134413714D01*
X97877380Y-134508952D01*
X97877380Y-134699428D01*
X97925000Y-134794666D01*
X97972619Y-134842285D01*
X98067857Y-134889904D01*
X98305952Y-134889904D01*
X98401190Y-134842285D01*
X98448809Y-134794666D01*
X98496428Y-134699428D01*
X98496428Y-134508952D01*
X98448809Y-134413714D01*
X98401190Y-134366095D01*
X98305952Y-134318476D01*
X97893380Y-136757150D02*
X98131476Y-136757150D01*
X98036238Y-136995245D02*
X98131476Y-136757150D01*
X98036238Y-136519054D01*
X98321952Y-136900007D02*
X98131476Y-136757150D01*
X98321952Y-136614292D01*
X97893380Y-136757150D02*
X98131476Y-136757150D01*
X98036238Y-136995245D02*
X98131476Y-136757150D01*
X98036238Y-136519054D01*
X98321952Y-136900007D02*
X98131476Y-136757150D01*
X98321952Y-136614292D01*
%TO.C,U3*%
X69937380Y-135889904D02*
X70746904Y-135889904D01*
X70842142Y-135842285D01*
X70889761Y-135794666D01*
X70937380Y-135699428D01*
X70937380Y-135508952D01*
X70889761Y-135413714D01*
X70842142Y-135366095D01*
X70746904Y-135318476D01*
X69937380Y-135318476D01*
X69937380Y-134937523D02*
X69937380Y-134318476D01*
X70318333Y-134651809D01*
X70318333Y-134508952D01*
X70365952Y-134413714D01*
X70413571Y-134366095D01*
X70508809Y-134318476D01*
X70746904Y-134318476D01*
X70842142Y-134366095D01*
X70889761Y-134413714D01*
X70937380Y-134508952D01*
X70937380Y-134794666D01*
X70889761Y-134889904D01*
X70842142Y-134937523D01*
X69953380Y-136757150D02*
X70191476Y-136757150D01*
X70096238Y-136995245D02*
X70191476Y-136757150D01*
X70096238Y-136519054D01*
X70381952Y-136900007D02*
X70191476Y-136757150D01*
X70381952Y-136614292D01*
X69953380Y-136757150D02*
X70191476Y-136757150D01*
X70096238Y-136995245D02*
X70191476Y-136757150D01*
X70096238Y-136519054D01*
X70381952Y-136900007D02*
X70191476Y-136757150D01*
X70381952Y-136614292D01*
%TO.C,U7*%
X48260095Y-109307380D02*
X48260095Y-110116904D01*
X48307714Y-110212142D01*
X48355333Y-110259761D01*
X48450571Y-110307380D01*
X48641047Y-110307380D01*
X48736285Y-110259761D01*
X48783904Y-110212142D01*
X48831523Y-110116904D01*
X48831523Y-109307380D01*
X49212476Y-109307380D02*
X49879142Y-109307380D01*
X49450571Y-110307380D01*
X50651150Y-109291380D02*
X50651150Y-109529476D01*
X50413054Y-109434238D02*
X50651150Y-109529476D01*
X50889245Y-109434238D01*
X50508292Y-109719952D02*
X50651150Y-109529476D01*
X50794007Y-109719952D01*
X50651150Y-109291380D02*
X50651150Y-109529476D01*
X50413054Y-109434238D02*
X50651150Y-109529476D01*
X50889245Y-109434238D01*
X50508292Y-109719952D02*
X50651150Y-109529476D01*
X50794007Y-109719952D01*
%TO.C,U6*%
X48260095Y-86447380D02*
X48260095Y-87256904D01*
X48307714Y-87352142D01*
X48355333Y-87399761D01*
X48450571Y-87447380D01*
X48641047Y-87447380D01*
X48736285Y-87399761D01*
X48783904Y-87352142D01*
X48831523Y-87256904D01*
X48831523Y-86447380D01*
X49736285Y-86447380D02*
X49545809Y-86447380D01*
X49450571Y-86495000D01*
X49402952Y-86542619D01*
X49307714Y-86685476D01*
X49260095Y-86875952D01*
X49260095Y-87256904D01*
X49307714Y-87352142D01*
X49355333Y-87399761D01*
X49450571Y-87447380D01*
X49641047Y-87447380D01*
X49736285Y-87399761D01*
X49783904Y-87352142D01*
X49831523Y-87256904D01*
X49831523Y-87018809D01*
X49783904Y-86923571D01*
X49736285Y-86875952D01*
X49641047Y-86828333D01*
X49450571Y-86828333D01*
X49355333Y-86875952D01*
X49307714Y-86923571D01*
X49260095Y-87018809D01*
X50651150Y-86431380D02*
X50651150Y-86669476D01*
X50413054Y-86574238D02*
X50651150Y-86669476D01*
X50889245Y-86574238D01*
X50508292Y-86859952D02*
X50651150Y-86669476D01*
X50794007Y-86859952D01*
X50651150Y-86431380D02*
X50651150Y-86669476D01*
X50413054Y-86574238D02*
X50651150Y-86669476D01*
X50889245Y-86574238D01*
X50508292Y-86859952D02*
X50651150Y-86669476D01*
X50794007Y-86859952D01*
%TO.C,U5*%
X48133095Y-97877380D02*
X48133095Y-98686904D01*
X48180714Y-98782142D01*
X48228333Y-98829761D01*
X48323571Y-98877380D01*
X48514047Y-98877380D01*
X48609285Y-98829761D01*
X48656904Y-98782142D01*
X48704523Y-98686904D01*
X48704523Y-97877380D01*
X49656904Y-97877380D02*
X49180714Y-97877380D01*
X49133095Y-98353571D01*
X49180714Y-98305952D01*
X49275952Y-98258333D01*
X49514047Y-98258333D01*
X49609285Y-98305952D01*
X49656904Y-98353571D01*
X49704523Y-98448809D01*
X49704523Y-98686904D01*
X49656904Y-98782142D01*
X49609285Y-98829761D01*
X49514047Y-98877380D01*
X49275952Y-98877380D01*
X49180714Y-98829761D01*
X49133095Y-98782142D01*
X50545999Y-97861380D02*
X50545999Y-98099476D01*
X50307903Y-98004238D02*
X50545999Y-98099476D01*
X50784094Y-98004238D01*
X50403141Y-98289952D02*
X50545999Y-98099476D01*
X50688856Y-98289952D01*
X50545999Y-97861380D02*
X50545999Y-98099476D01*
X50307903Y-98004238D02*
X50545999Y-98099476D01*
X50784094Y-98004238D01*
X50403141Y-98289952D02*
X50545999Y-98099476D01*
X50688856Y-98289952D01*
%TD*%
M02*
